<svg width="1304" height="1374" xmlns="http://www.w3.org/2000/svg" xmlns:xlink="http://www.w3.org/1999/xlink" xml:space="preserve" overflow="hidden"><g transform="translate(-1739 -708)"><rect x="2882" y="1591" width="94.9998" height="228" fill="#FFFFFF"/><text font-family="Arial,Arial_MSFontService,sans-serif" font-weight="400" font-size="48" transform="matrix(6.12323e-17 1 -1 6.12323e-17 2915.2 1652)">CNN</text><rect x="2134.5" y="875.5" width="758" height="1001" stroke="#005828" stroke-width="6.875" stroke-miterlimit="8" fill="#EEF9EB"/><rect x="2206" y="1219" width="609" height="141" fill="#D9D9D9"/><path d="M2308.27 1277.55C2310.18 1277.55 2311.62 1277.84 2312.62 1278.41 2313.62 1278.98 2314.44 1279.97 2315.08 1281.38 2315.72 1282.8 2316.33 1285.06 2316.9 1288.18L2317.26 1288.18C2319.02 1285.7 2320.38 1283.84 2321.36 1282.6 2322.33 1281.35 2323.23 1280.35 2324.06 1279.6 2324.9 1278.85 2325.7 1278.33 2326.49 1278.02 2327.27 1277.71 2328.2 1277.55 2329.27 1277.55 2330.46 1277.55 2331.66 1277.77 2332.87 1278.19L2331.19 1285.89 2327.99 1285.89C2327.87 1284.9 2327.43 1284.4 2326.67 1284.4 2326.33 1284.4 2325.98 1284.48 2325.62 1284.65 2325.25 1284.81 2324.76 1285.19 2324.15 1285.77 2323.55 1286.35 2322.79 1287.19 2321.89 1288.3 2320.99 1289.4 2319.63 1291.09 2317.83 1293.34 2318.66 1298.36 2319.34 1301.95 2319.88 1304.13 2320.41 1306.3 2320.96 1307.71 2321.53 1308.35 2321.87 1308.71 2322.27 1308.88 2322.75 1308.88 2323.34 1308.88 2323.89 1308.65 2324.4 1308.19 2324.91 1307.73 2325.57 1306.69 2326.38 1305.07L2329.63 1306.57C2328.25 1309.09 2326.68 1310.96 2324.94 1312.2 2323.19 1313.44 2321.14 1314.05 2318.79 1314.05 2317.34 1314.05 2316.18 1313.87 2315.31 1313.5 2314.45 1313.13 2313.71 1312.52 2313.1 1311.66 2312.5 1310.81 2311.96 1309.6 2311.5 1308.05 2311.04 1306.49 2310.6 1304.45 2310.2 1301.93L2309.84 1301.93C2307.82 1304.83 2306.21 1307.04 2304.99 1308.56 2303.78 1310.08 2302.74 1311.23 2301.88 1311.99 2301.01 1312.75 2300.18 1313.28 2299.38 1313.59 2298.58 1313.9 2297.63 1314.05 2296.51 1314.05 2295.99 1314.05 2295.35 1313.99 2294.6 1313.86 2293.86 1313.73 2293.29 1313.59 2292.91 1313.45L2294.59 1305.71 2297.79 1305.71C2297.82 1306.21 2297.94 1306.59 2298.17 1306.84 2298.39 1307.08 2298.69 1307.21 2299.04 1307.21 2299.47 1307.21 2299.87 1307.12 2300.24 1306.94 2300.6 1306.76 2301.12 1306.37 2301.77 1305.75 2302.42 1305.13 2303.25 1304.22 2304.25 1303.02 2305.24 1301.82 2306.93 1299.71 2309.31 1296.69 2308.81 1293.89 2308.34 1291.47 2307.9 1289.44 2307.46 1287.41 2307.06 1285.94 2306.71 1285.02 2306.35 1284.11 2306.01 1283.49 2305.69 1283.18 2305.37 1282.88 2305.01 1282.72 2304.6 1282.72 2304.13 1282.72 2303.71 1282.85 2303.36 1283.1 2303 1283.35 2302.62 1283.75 2302.23 1284.31 2301.84 1284.87 2301.42 1285.61 2300.97 1286.54L2297.72 1285.04C2299.1 1282.52 2300.65 1280.64 2302.38 1279.41 2304.1 1278.17 2306.06 1277.55 2308.27 1277.55Z" fill="#005828" fill-rule="evenodd"/><text fill="#000000" fill-opacity="0" font-family="Arial,Arial_MSFontService,sans-serif" font-size="36.5" x="2292.91" y="1309.49">𝒙</text><path d="M2340.3 1305.21 2347.43 1305.21 2347.43 1313.48 2340.3 1313.48ZM2340.3 1281.3 2347.43 1281.3 2347.43 1289.64 2340.3 1289.64Z" fill="#005828" fill-rule="evenodd"/><text fill="#000000" fill-opacity="0" font-family="Arial,Arial_MSFontService,sans-serif" font-size="32.187" x="2340.3" y="1309.46">:</text><path d="M2429.78 1283.01C2428.64 1283.01 2427.51 1283.37 2426.41 1284.09 2425.3 1284.82 2424.07 1286.02 2422.72 1287.69 2421.36 1289.37 2420.26 1291.09 2419.4 1292.84 2418.55 1294.6 2417.82 1296.85 2417.23 1299.58L2416.91 1301.08C2416.55 1302.74 2416.37 1304.36 2416.37 1305.93 2416.37 1307.8 2416.78 1309.16 2417.6 1309.99 2418.42 1310.82 2419.78 1311.24 2421.68 1311.24 2422.66 1311.24 2423.59 1311.08 2424.46 1310.76 2425.34 1310.44 2426.24 1309.91 2427.16 1309.17 2428.07 1308.43 2428.94 1307.46 2429.76 1306.26 2430.58 1305.06 2431.33 1303.59 2432.02 1301.83 2432.71 1300.07 2433.25 1298.19 2433.63 1296.18 2434.01 1294.17 2434.2 1292.25 2434.2 1290.42 2434.2 1287.95 2433.85 1286.1 2433.14 1284.86 2432.44 1283.62 2431.32 1283.01 2429.78 1283.01ZM2388.49 1281.69C2386.02 1281.69 2383.87 1282.72 2382.03 1284.79 2380.18 1286.86 2378.73 1289.81 2377.68 1293.66 2376.62 1297.51 2376.09 1300.83 2376.09 1303.61 2376.09 1306.22 2376.63 1308.15 2377.71 1309.4 2378.79 1310.65 2380.43 1311.27 2382.61 1311.27 2384.94 1311.27 2387.01 1310.23 2388.82 1308.14 2390.62 1306.04 2392.05 1303.12 2393.09 1299.35 2394.14 1295.58 2394.66 1292.27 2394.66 1289.42 2394.66 1286.86 2394.16 1284.93 2393.16 1283.63 2392.17 1282.34 2390.61 1281.69 2388.49 1281.69ZM2463.82 1278.84C2466.03 1278.84 2468.05 1278.97 2469.86 1279.23 2471.68 1279.49 2473.49 1279.94 2475.3 1280.58L2473.69 1288.07 2470.81 1288.07C2470.55 1285.95 2469.85 1284.35 2468.72 1283.26 2467.59 1282.16 2465.82 1281.62 2463.39 1281.62 2461.52 1281.62 2460 1282.1 2458.83 1283.06 2457.67 1284.02 2457.08 1285.29 2457.08 1286.86 2457.08 1287.71 2457.23 1288.47 2457.53 1289.12 2457.83 1289.77 2458.43 1290.49 2459.33 1291.28 2460.23 1292.06 2461.64 1293.02 2463.54 1294.16 2465.03 1295.07 2466.23 1295.89 2467.14 1296.64 2468.04 1297.39 2468.75 1298.13 2469.27 1298.87 2469.8 1299.61 2470.18 1300.38 2470.42 1301.2 2470.65 1302.02 2470.77 1303.02 2470.77 1304.18 2470.77 1306.29 2470.21 1308.11 2469.08 1309.62 2467.95 1311.12 2466.42 1312.25 2464.48 1312.98 2462.54 1313.72 2460.34 1314.09 2457.87 1314.09 2455.9 1314.09 2453.96 1313.94 2452.06 1313.64 2450.16 1313.35 2448.04 1312.84 2445.71 1312.13L2447.42 1304.36 2450.21 1304.36C2450.3 1306.64 2450.94 1308.36 2452.13 1309.53 2453.32 1310.69 2455.21 1311.27 2457.8 1311.27 2460.05 1311.27 2461.82 1310.77 2463.09 1309.76 2464.36 1308.75 2465 1307.32 2465 1305.46 2465 1304.39 2464.82 1303.47 2464.46 1302.7 2464.11 1301.93 2463.52 1301.19 2462.72 1300.47 2461.91 1299.76 2460.63 1298.87 2458.87 1297.8 2457.01 1296.68 2455.57 1295.67 2454.54 1294.77 2453.5 1293.87 2452.72 1292.89 2452.2 1291.83 2451.68 1290.77 2451.42 1289.55 2451.42 1288.18 2451.42 1286.3 2451.92 1284.65 2452.93 1283.24 2453.94 1281.82 2455.39 1280.74 2457.26 1279.98 2459.14 1279.22 2461.33 1278.84 2463.82 1278.84ZM2389.21 1278.84C2393.01 1278.84 2395.91 1279.88 2397.9 1281.96 2399.9 1284.03 2400.9 1287.01 2400.9 1290.88 2400.9 1293.64 2400.42 1296.59 2399.46 1299.72 2398.49 1302.86 2397.17 1305.5 2395.5 1307.64 2393.82 1309.78 2391.82 1311.39 2389.49 1312.47 2387.16 1313.55 2384.49 1314.09 2381.47 1314.09 2377.79 1314.09 2374.93 1313.06 2372.9 1310.99 2370.87 1308.92 2369.85 1305.95 2369.85 1302.08 2369.85 1300.18 2370.14 1297.98 2370.71 1295.48 2371.44 1292.11 2372.68 1289.16 2374.42 1286.64 2376.15 1284.12 2378.29 1282.19 2380.83 1280.85 2383.37 1279.51 2386.17 1278.84 2389.21 1278.84ZM2423.54 1262.51 2425.61 1262.51 2419.33 1287.46 2419.8 1287.6C2422.1 1284.52 2424.26 1282.28 2426.28 1280.9 2428.3 1279.53 2430.32 1278.84 2432.34 1278.84 2434.93 1278.84 2436.95 1279.82 2438.38 1281.79 2439.82 1283.77 2440.54 1286.55 2440.54 1290.14 2440.54 1294.06 2439.75 1297.91 2438.17 1301.7 2436.59 1305.49 2434.4 1308.5 2431.59 1310.72 2428.79 1312.94 2425.65 1314.05 2422.18 1314.05 2419.02 1314.05 2416.22 1313.28 2413.77 1311.74L2410.49 1314.05 2408.21 1313.48 2417.44 1272.74C2417.99 1270.32 2418.26 1268.56 2418.26 1267.47 2418.26 1266.47 2417.96 1265.77 2417.35 1265.36 2416.75 1264.96 2415.66 1264.73 2414.09 1264.69L2414.52 1262.83Z" fill="#005828" fill-rule="evenodd"/><text fill="#000000" fill-opacity="0" font-family="Arial,Arial_MSFontService,sans-serif" font-size="51.5776" x="2369.85" y="1307.64">𝑜𝑏𝑠</text><path d="M2618.62 1283.01C2617.48 1283.01 2616.36 1283.37 2615.25 1284.09 2614.15 1284.82 2612.92 1286.02 2611.56 1287.69 2610.21 1289.37 2609.1 1291.09 2608.25 1292.84 2607.39 1294.6 2606.67 1296.85 2606.07 1299.58L2605.75 1301.08C2605.4 1302.74 2605.22 1304.36 2605.22 1305.93 2605.22 1307.8 2605.63 1309.16 2606.45 1309.99 2607.27 1310.82 2608.63 1311.24 2610.53 1311.24 2611.5 1311.24 2612.43 1311.08 2613.31 1310.76 2614.19 1310.44 2615.09 1309.91 2616 1309.17 2616.92 1308.43 2617.78 1307.46 2618.6 1306.26 2619.42 1305.06 2620.18 1303.59 2620.87 1301.83 2621.56 1300.07 2622.09 1298.19 2622.47 1296.18 2622.85 1294.17 2623.04 1292.25 2623.04 1290.42 2623.04 1287.95 2622.69 1286.1 2621.99 1284.86 2621.29 1283.62 2620.17 1283.01 2618.62 1283.01ZM2692.55 1281.62C2690.13 1281.62 2687.96 1282.6 2686.03 1284.56 2684.11 1286.52 2682.59 1289.16 2681.49 1292.49 2680.38 1295.81 2679.83 1299.13 2679.83 1302.43 2679.83 1304.9 2680.17 1306.75 2680.85 1307.98 2681.52 1309.2 2682.66 1309.81 2684.25 1309.81 2684.99 1309.81 2685.73 1309.65 2686.49 1309.33 2687.26 1309.01 2688.05 1308.49 2688.87 1307.78 2689.69 1307.07 2690.49 1306.2 2691.29 1305.18 2692.09 1304.16 2692.82 1303.13 2693.48 1302.09 2694.15 1301.06 2694.76 1299.84 2695.33 1298.42 2695.91 1297.01 2696.39 1295.3 2696.8 1293.31L2697.12 1291.78C2697.47 1290.06 2697.65 1288.45 2697.65 1286.93 2697.65 1285.07 2697.26 1283.73 2696.48 1282.88 2695.69 1282.04 2694.38 1281.62 2692.55 1281.62ZM2656.7 1281.62C2654.3 1281.62 2651.99 1282.83 2649.76 1285.25 2647.54 1287.68 2645.84 1290.96 2644.65 1295.09 2648 1295.07 2650.88 1294.76 2653.28 1294.18 2655.68 1293.6 2657.52 1292.67 2658.8 1291.4 2660.08 1290.13 2660.72 1288.41 2660.72 1286.25 2660.72 1284.8 2660.39 1283.67 2659.71 1282.85 2659.03 1282.03 2658.03 1281.62 2656.7 1281.62ZM2518.7 1281.62C2516.3 1281.62 2513.99 1282.83 2511.76 1285.25 2509.54 1287.68 2507.84 1290.96 2506.65 1295.09 2510 1295.07 2512.88 1294.76 2515.28 1294.18 2517.68 1293.6 2519.52 1292.67 2520.8 1291.4 2522.08 1290.13 2522.72 1288.41 2522.72 1286.25 2522.72 1284.8 2522.39 1283.67 2521.71 1282.85 2521.03 1282.03 2520.03 1281.62 2518.7 1281.62ZM2657.98 1278.8C2660.86 1278.8 2663.01 1279.38 2664.45 1280.55 2665.89 1281.71 2666.61 1283.53 2666.61 1286 2666.61 1290.04 2664.71 1293.07 2660.92 1295.09 2657.13 1297.11 2651.5 1298.12 2644.04 1298.12 2643.76 1299.55 2643.62 1301.09 2643.62 1302.75 2643.62 1305.25 2644.1 1307.06 2645.08 1308.19 2646.05 1309.32 2647.64 1309.88 2649.85 1309.88 2652.04 1309.88 2654.02 1309.41 2655.79 1308.46 2657.56 1307.51 2659.43 1306.04 2661.4 1304.07L2663.61 1306.39C2661.31 1308.93 2658.97 1310.85 2656.61 1312.13 2654.24 1313.41 2651.49 1314.05 2648.36 1314.05 2644.91 1314.05 2642.24 1313 2640.35 1310.9 2638.46 1308.8 2637.52 1305.87 2637.52 1302.11 2637.52 1299.57 2637.98 1296.84 2638.89 1293.93 2639.81 1291.02 2641.19 1288.41 2643.05 1286.09 2644.9 1283.77 2647.12 1281.98 2649.71 1280.71 2652.3 1279.44 2655.06 1278.8 2657.98 1278.8ZM2544.01 1278.8C2545.5 1278.8 2546.68 1279.29 2547.55 1280.28 2548.42 1281.27 2548.85 1282.56 2548.85 1284.15 2548.85 1285.45 2548.58 1286.84 2548.03 1288.32L2548.46 1288.46C2550.65 1285.2 2552.82 1282.79 2554.98 1281.21 2557.15 1279.63 2559.33 1278.84 2561.54 1278.84 2563.82 1278.84 2565.56 1279.48 2566.75 1280.78 2567.94 1282.07 2568.53 1283.95 2568.53 1286.39L2568.53 1286.89C2568.53 1287.06 2568.52 1287.24 2568.49 1287.43 2570.54 1284.53 2572.57 1282.37 2574.61 1280.96 2576.64 1279.54 2578.75 1278.84 2580.93 1278.84 2583.12 1278.84 2584.81 1279.47 2585.99 1280.73 2587.18 1281.98 2587.78 1283.76 2587.78 1286.04 2587.78 1287.53 2587.43 1289.66 2586.74 1292.42L2584.43 1301.76C2583.78 1304.35 2583.46 1306.18 2583.46 1307.24 2583.46 1308.2 2583.62 1308.88 2583.93 1309.31 2584.24 1309.74 2584.72 1309.95 2585.39 1309.95 2586.1 1309.95 2586.86 1309.66 2587.67 1309.08 2588.48 1308.5 2589.62 1307.39 2591.09 1305.75L2593.12 1307.74C2591.08 1309.91 2589.3 1311.5 2587.78 1312.52 2586.26 1313.54 2584.52 1314.05 2582.57 1314.05 2581.03 1314.05 2579.79 1313.5 2578.87 1312.4 2577.94 1311.29 2577.48 1309.88 2577.48 1308.17 2577.48 1306.63 2577.87 1304.36 2578.65 1301.36L2580.22 1295.2C2580.79 1292.96 2581.17 1291.31 2581.34 1290.24 2581.52 1289.17 2581.61 1288.31 2581.61 1287.64 2581.61 1286 2581.34 1284.82 2580.79 1284.09 2580.24 1283.37 2579.35 1283.01 2578.12 1283.01 2577.12 1283.01 2576.05 1283.38 2574.91 1284.13 2573.77 1284.88 2572.57 1286.04 2571.31 1287.62 2570.05 1289.2 2569.02 1290.76 2568.23 1292.29 2567.43 1293.82 2566.79 1295.7 2566.32 1297.91L2563.08 1313.48 2556.91 1313.48 2561.01 1295.38C2561.51 1293.17 2561.85 1291.53 2562.02 1290.47 2562.2 1289.42 2562.29 1288.51 2562.29 1287.75 2562.29 1286.04 2561.99 1284.82 2561.38 1284.09 2560.78 1283.37 2559.83 1283.01 2558.55 1283.01 2557.65 1283.01 2556.62 1283.38 2555.47 1284.13 2554.31 1284.88 2553.08 1286.08 2551.78 1287.73 2550.47 1289.38 2549.45 1290.97 2548.71 1292.49 2547.97 1294.01 2547.36 1295.86 2546.86 1298.05L2543.47 1313.48 2537.3 1313.48 2542.51 1290.88C2543.03 1288.6 2543.29 1286.84 2543.29 1285.61 2543.29 1284.66 2543.14 1283.97 2542.83 1283.54 2542.52 1283.11 2542.03 1282.9 2541.37 1282.9 2540.63 1282.9 2539.85 1283.2 2539.03 1283.81 2538.21 1284.41 2537.09 1285.51 2535.66 1287.11L2533.63 1285.11C2535.72 1282.92 2537.52 1281.33 2539.03 1280.32 2540.54 1279.31 2542.2 1278.8 2544.01 1278.8ZM2519.98 1278.8C2522.86 1278.8 2525.01 1279.38 2526.45 1280.55 2527.89 1281.71 2528.61 1283.53 2528.61 1286 2528.61 1290.04 2526.71 1293.07 2522.92 1295.09 2519.13 1297.11 2513.5 1298.12 2506.04 1298.12 2505.76 1299.55 2505.62 1301.09 2505.62 1302.75 2505.62 1305.25 2506.1 1307.06 2507.08 1308.19 2508.05 1309.32 2509.64 1309.88 2511.85 1309.88 2514.04 1309.88 2516.02 1309.41 2517.79 1308.46 2519.56 1307.51 2521.43 1306.04 2523.4 1304.07L2525.61 1306.39C2523.31 1308.93 2520.97 1310.85 2518.61 1312.13 2516.24 1313.41 2513.49 1314.05 2510.36 1314.05 2506.91 1314.05 2504.24 1313 2502.35 1310.9 2500.46 1308.8 2499.52 1305.87 2499.52 1302.11 2499.52 1299.57 2499.98 1296.84 2500.89 1293.93 2501.81 1291.02 2503.19 1288.41 2505.05 1286.09 2506.9 1283.77 2509.12 1281.98 2511.71 1280.71 2514.3 1279.44 2517.06 1278.8 2519.98 1278.8ZM2707.49 1262.51 2709.59 1262.51 2700.72 1301.97C2700.19 1304.3 2699.93 1306.06 2699.93 1307.24 2699.93 1308.2 2700.09 1308.88 2700.4 1309.31 2700.71 1309.74 2701.19 1309.95 2701.86 1309.95 2702.57 1309.95 2703.33 1309.66 2704.14 1309.08 2704.95 1308.5 2706.09 1307.39 2707.56 1305.75L2709.59 1307.74C2707.41 1310.05 2705.56 1311.68 2704.07 1312.63 2702.57 1313.58 2700.95 1314.05 2699.22 1314.05 2697.75 1314.05 2696.57 1313.57 2695.69 1312.59 2694.81 1311.62 2694.37 1310.32 2694.37 1308.71 2694.37 1307.4 2694.65 1306.01 2695.19 1304.54L2694.73 1304.39C2692.45 1307.72 2690.29 1310.16 2688.24 1311.7 2686.2 1313.25 2684.04 1314.02 2681.75 1314.02 2679.14 1314.02 2677.11 1313.03 2675.68 1311.06 2674.24 1309.09 2673.52 1306.32 2673.52 1302.75 2673.52 1298.67 2674.32 1294.74 2675.93 1290.97 2677.53 1287.21 2679.73 1284.24 2682.54 1282.06 2685.34 1279.89 2688.47 1278.8 2691.91 1278.8 2693.36 1278.8 2694.7 1278.95 2695.92 1279.25 2697.15 1279.54 2698.4 1280.06 2699.68 1280.8L2701.54 1272.56C2701.73 1271.78 2701.89 1270.91 2702.04 1269.96 2702.18 1269.01 2702.25 1268.18 2702.25 1267.47 2702.25 1266.75 2702.12 1266.21 2701.86 1265.84 2701.6 1265.48 2701.22 1265.21 2700.73 1265.04 2700.25 1264.88 2699.37 1264.76 2698.11 1264.69L2698.54 1262.83ZM2612.38 1262.51 2614.45 1262.51 2608.18 1287.46 2608.64 1287.6C2610.95 1284.52 2613.11 1282.28 2615.13 1280.9 2617.15 1279.53 2619.17 1278.84 2621.19 1278.84 2623.78 1278.84 2625.79 1279.82 2627.23 1281.79 2628.67 1283.77 2629.39 1286.55 2629.39 1290.14 2629.39 1294.06 2628.6 1297.91 2627.02 1301.7 2625.44 1305.49 2623.24 1308.5 2620.44 1310.72 2617.64 1312.94 2614.5 1314.05 2611.03 1314.05 2607.87 1314.05 2605.06 1313.28 2602.62 1311.74L2599.34 1314.05 2597.06 1313.48 2606.29 1272.74C2606.84 1270.32 2607.11 1268.56 2607.11 1267.47 2607.11 1266.47 2606.81 1265.77 2606.2 1265.36 2605.59 1264.96 2604.51 1264.73 2602.94 1264.69L2603.37 1262.83Z" fill="#005828" fill-rule="evenodd"/><text fill="#000000" fill-opacity="0" font-family="Arial,Arial_MSFontService,sans-serif" font-size="51.542" x="2499.52" y="1307.61">𝑒𝑚𝑏𝑒𝑑</text><rect x="2134.5" y="1970.5" width="758" height="108" stroke="#005828" stroke-width="6.875" stroke-miterlimit="8" fill="none"/><path d="M2455.95 2000.33C2453.65 2000.33 2451.4 2001.34 2449.2 2003.37 2447 2005.39 2444.98 2008.31 2443.16 2012.12 2441.34 2015.93 2439.93 2020.23 2438.94 2025.03 2437.96 2029.83 2437.47 2033.78 2437.47 2036.88 2437.47 2040.61 2438.01 2043.31 2439.09 2044.97 2440.17 2046.63 2441.92 2047.46 2444.35 2047.46 2445.92 2047.46 2447.46 2047 2448.98 2046.08 2450.87 2044.95 2452.64 2043.17 2454.28 2040.73 2456.2 2037.92 2457.85 2034.53 2459.23 2030.56 2460.44 2027.08 2461.46 2022.85 2462.27 2017.88 2462.7 2015.28 2462.92 2012.92 2462.92 2010.78 2462.92 2007.16 2462.38 2004.52 2461.3 2002.84 2460.21 2001.17 2458.43 2000.33 2455.95 2000.33ZM2456.35 1995.59C2462.51 1995.59 2467.18 1997.19 2470.35 2000.41 2473.53 2003.62 2475.12 2008.3 2475.12 2014.43 2475.12 2017.03 2474.84 2019.91 2474.28 2023.08 2473.73 2026.26 2472.83 2029.45 2471.57 2032.65 2470.31 2035.85 2468.77 2038.69 2466.93 2041.18 2465.09 2043.67 2462.97 2045.74 2460.57 2047.4 2458.16 2049.06 2455.57 2050.28 2452.8 2051.05 2450.04 2051.82 2447.07 2052.2 2443.91 2052.2 2437.75 2052.2 2433.1 2050.59 2429.97 2047.36 2426.83 2044.13 2425.27 2039.38 2425.27 2033.11 2425.27 2030.98 2425.48 2028.53 2425.92 2025.78 2426.35 2023.02 2427.08 2020.11 2428.1 2017.05 2429.13 2013.98 2430.55 2011.08 2432.36 2008.35 2434.17 2005.62 2436.3 2003.29 2438.74 2001.36 2441.19 1999.43 2443.91 1997.98 2446.91 1997.02 2449.91 1996.07 2453.05 1995.59 2456.35 1995.59Z" fill="#005828" fill-rule="evenodd"/><text fill="#000000" fill-opacity="0" font-family="Arial,Arial_MSFontService,sans-serif" font-size="56.6167" x="2425.27" y="2045.13">𝑶</text><path d="M2497.82 2032.38 2499.61 2032.38C2499.57 2033.46 2499.54 2034.42 2499.52 2035.27 2499.5 2036.12 2499.49 2036.94 2499.48 2037.74 2499.47 2038.54 2499.47 2039.34 2499.47 2040.12L2499.47 2062.38C2499.47 2062.99 2499.49 2063.51 2499.52 2063.95 2499.56 2064.39 2499.63 2064.76 2499.71 2065.06 2499.8 2065.37 2499.92 2065.62 2500.07 2065.84 2500.21 2066.05 2500.38 2066.24 2500.58 2066.4 2500.81 2066.63 2501.13 2066.81 2501.52 2066.94 2501.91 2067.07 2502.41 2067.17 2503.01 2067.26 2503.62 2067.35 2504.34 2067.42 2505.19 2067.47 2506.04 2067.51 2507.06 2067.55 2508.25 2067.57L2508.25 2070.12 2485.02 2070.12 2485.02 2067.57C2486.17 2067.53 2487.15 2067.49 2487.95 2067.44 2488.75 2067.39 2489.44 2067.32 2490 2067.23 2490.57 2067.14 2491.02 2067.05 2491.36 2066.94 2491.71 2066.83 2492 2066.7 2492.26 2066.54 2492.53 2066.37 2492.77 2066.18 2492.96 2065.97 2493.16 2065.77 2493.31 2065.51 2493.43 2065.2 2493.55 2064.88 2493.64 2064.5 2493.71 2064.05 2493.78 2063.6 2493.81 2063.05 2493.81 2062.38L2493.81 2041.38C2493.81 2040.61 2493.66 2040.08 2493.37 2039.77 2493.08 2039.45 2492.66 2039.3 2492.11 2039.3 2491.51 2039.3 2490.61 2039.61 2489.42 2040.23 2488.23 2040.86 2486.68 2041.79 2484.79 2043.02 2484.53 2042.57 2484.3 2042.12 2484.08 2041.67 2483.87 2041.22 2483.65 2040.76 2483.41 2040.29 2485.83 2038.96 2488.23 2037.64 2490.6 2036.32 2492.98 2035 2495.38 2033.69 2497.82 2032.38Z" fill="#005828" fill-rule="evenodd"/><text fill="#000000" fill-opacity="0" font-family="Arial,Arial_MSFontService,sans-serif" font-size="37.7344" x="2483.41" y="2065.4">1</text><path d="M2517.98 2063.32 2523.84 2063.32 2523.84 2070.12 2517.98 2070.12ZM2517.98 2043.66 2523.84 2043.66 2523.84 2050.52 2517.98 2050.52Z" fill="#005828" fill-rule="evenodd"/><text fill="#000000" fill-opacity="0" font-family="Arial,Arial_MSFontService,sans-serif" font-size="26.4551" x="2517.98" y="2066.81">:</text><path d="M2539.7 2040.2C2541.15 2040.2 2542.27 2040.68 2543.06 2041.63 2543.85 2042.57 2544.24 2043.82 2544.24 2045.36 2544.24 2045.79 2544.21 2046.21 2544.16 2046.62 2544.1 2047.03 2543.99 2047.43 2543.83 2047.82L2544.19 2047.97C2546.04 2045.37 2547.9 2043.43 2549.75 2042.14 2551.61 2040.85 2553.51 2040.2 2555.46 2040.2 2557.54 2040.2 2559.08 2040.74 2560.11 2041.8 2561.13 2042.87 2561.65 2044.43 2561.65 2046.5 2561.65 2046.68 2561.65 2046.85 2561.65 2047.02 2561.65 2047.18 2561.63 2047.35 2561.59 2047.53L2561.71 2047.53C2563.52 2045.05 2565.33 2043.21 2567.12 2042.01 2568.92 2040.81 2570.8 2040.2 2572.75 2040.2 2574.82 2040.2 2576.37 2040.76 2577.39 2041.87 2578.42 2042.99 2578.93 2044.55 2578.93 2046.56 2578.93 2047.17 2578.83 2047.98 2578.64 2049.01 2578.44 2050.03 2578.2 2051.16 2577.92 2052.39 2577.64 2053.62 2577.33 2054.9 2577 2056.22 2576.67 2057.53 2576.35 2058.78 2576.06 2059.95 2575.88 2060.71 2575.74 2061.33 2575.64 2061.81 2575.53 2062.29 2575.45 2062.69 2575.39 2063.01 2575.33 2063.33 2575.29 2063.61 2575.27 2063.85 2575.25 2064.08 2575.24 2064.34 2575.24 2064.61 2575.24 2065.35 2575.38 2065.89 2575.65 2066.22 2575.92 2066.55 2576.36 2066.72 2576.97 2066.72 2577.32 2066.72 2577.67 2066.65 2578.02 2066.51 2578.38 2066.38 2578.75 2066.16 2579.15 2065.87 2579.55 2065.58 2579.99 2065.2 2580.47 2064.74 2580.95 2064.28 2581.48 2063.73 2582.07 2063.09L2584.09 2065.02C2583.15 2066 2582.28 2066.84 2581.47 2067.54 2580.66 2068.24 2579.87 2068.82 2579.12 2069.28 2578.37 2069.74 2577.62 2070.08 2576.88 2070.31 2576.14 2070.53 2575.36 2070.64 2574.54 2070.64 2573.79 2070.64 2573.12 2070.51 2572.52 2070.23 2571.91 2069.96 2571.4 2069.58 2570.98 2069.11 2570.56 2068.63 2570.23 2068.06 2570 2067.41 2569.76 2066.75 2569.64 2066.03 2569.64 2065.25 2569.64 2063.65 2569.99 2061.59 2570.67 2059.07 2571.04 2057.8 2571.38 2056.59 2571.68 2055.42 2571.98 2054.26 2572.24 2053.19 2572.46 2052.2 2572.67 2051.22 2572.84 2050.34 2572.97 2049.57 2573.1 2048.79 2573.16 2048.15 2573.16 2047.65 2573.16 2046.44 2572.93 2045.55 2572.47 2044.98 2572.01 2044.41 2571.29 2044.13 2570.32 2044.13 2569.71 2044.13 2569.07 2044.29 2568.38 2044.6 2567.7 2044.91 2567.01 2045.35 2566.32 2045.9 2565.63 2046.46 2564.95 2047.12 2564.28 2047.88 2563.62 2048.64 2563 2049.47 2562.44 2050.36 2561.87 2051.24 2561.37 2052.18 2560.93 2053.15 2560.49 2054.13 2560.15 2055.12 2559.92 2056.11L2557.02 2070.12 2551.3 2070.12C2551.58 2068.87 2551.89 2067.52 2552.23 2066.09 2552.57 2064.65 2552.92 2063.2 2553.27 2061.74 2553.62 2060.27 2553.96 2058.83 2554.28 2057.4 2554.6 2055.98 2554.89 2054.64 2555.14 2053.4 2555.4 2052.16 2555.6 2051.05 2555.76 2050.06 2555.91 2049.08 2555.99 2048.29 2555.99 2047.7 2555.99 2046.47 2555.75 2045.57 2555.27 2044.99 2554.8 2044.42 2554.03 2044.13 2552.97 2044.13 2552.04 2044.13 2551.03 2044.48 2549.96 2045.19 2548.88 2045.89 2547.86 2046.81 2546.9 2047.95 2545.93 2049.1 2545.06 2050.39 2544.3 2051.82 2543.54 2053.26 2543 2054.71 2542.69 2056.17L2539.7 2070.12 2533.96 2070.12 2538.36 2051.02C2538.61 2049.96 2538.79 2049.04 2538.91 2048.26 2539.03 2047.48 2539.09 2046.84 2539.09 2046.33 2539.09 2044.9 2538.51 2044.19 2537.36 2044.19 2537.01 2044.19 2536.65 2044.26 2536.29 2044.41 2535.93 2044.56 2535.55 2044.78 2535.15 2045.07 2534.75 2045.36 2534.31 2045.73 2533.84 2046.18 2533.38 2046.63 2532.85 2047.16 2532.26 2047.76L2530.24 2045.86C2531.2 2044.88 2532.08 2044.04 2532.89 2043.32 2533.7 2042.61 2534.48 2042.03 2535.24 2041.57 2535.99 2041.11 2536.72 2040.77 2537.45 2040.54 2538.17 2040.32 2538.92 2040.2 2539.7 2040.2Z" fill="#005828" fill-rule="evenodd"/><text fill="#000000" fill-opacity="0" font-family="Arial,Arial_MSFontService,sans-serif" font-size="30.4395" x="2530.24" y="2066.84">𝑚</text><path d="M2511.77 1989.72C2512.26 1989.72 2512.76 1989.76 2513.28 1989.85 2513.79 1989.94 2514.24 1990.07 2514.61 1990.25L2513.2 1996.43 2510.54 1996.43C2510.5 1996.02 2510.4 1995.68 2510.24 1995.4 2510.09 1995.13 2509.79 1994.99 2509.34 1994.99 2509.1 1995.01 2508.88 1995.04 2508.68 1995.08 2508.47 1995.12 2508.24 1995.21 2507.97 1995.36 2507.71 1995.51 2507.39 1995.72 2507.01 1996 2506.63 1996.29 2506.16 1996.67 2505.6 1997.16 2505.04 1997.65 2504.37 1998.26 2503.56 1998.99 2502.76 1999.72 2501.82 2000.62 2500.72 2001.67L2504 2011.87C2504.28 2012.75 2504.52 2013.47 2504.72 2014.04 2504.93 2014.6 2505.14 2015.05 2505.37 2015.37 2505.59 2015.69 2505.84 2015.92 2506.11 2016.04 2506.39 2016.17 2506.72 2016.23 2507.11 2016.23 2507.68 2016.23 2508.33 2015.97 2509.07 2015.46 2509.81 2014.94 2510.73 2014.07 2511.83 2012.86L2513.76 2014.77C2512 2016.68 2510.41 2018.06 2508.98 2018.9 2507.56 2019.74 2506.16 2020.16 2504.8 2020.16 2504.03 2020.16 2503.36 2020.06 2502.77 2019.87 2502.19 2019.67 2501.67 2019.35 2501.21 2018.91 2500.75 2018.47 2500.34 2017.9 2499.98 2017.19 2499.61 2016.47 2499.28 2015.61 2498.97 2014.59L2496.12 2004.98C2495.38 2005.45 2494.64 2005.87 2493.9 2006.24 2493.15 2006.61 2492.44 2006.92 2491.76 2007.15L2489.09 2019.63 2483.35 2019.63 2488.07 1998.39C2488.2 1997.81 2488.31 1997.28 2488.39 1996.82 2488.47 1996.36 2488.53 1995.94 2488.56 1995.55 2488.62 1995.22 2488.65 1994.91 2488.64 1994.63 2488.63 1994.34 2488.6 1994.09 2488.56 1993.88 2488.45 1993.33 2488.12 1992.95 2487.58 1992.72 2487.05 1992.5 2486.26 1992.37 2485.23 1992.33L2485.58 1990.33 2493.43 1990.01 2495.45 1990.01 2492.43 2003.96C2493.72 2003.33 2495.18 2002.36 2496.8 2001.03 2498.42 1999.7 2500.15 1998.11 2501.98 1996.25 2503.14 1995.06 2504.15 1994.05 2505.03 1993.22 2505.91 1992.39 2506.72 1991.72 2507.46 1991.2 2508.2 1990.68 2508.92 1990.31 2509.6 1990.07 2510.28 1989.84 2511.01 1989.72 2511.77 1989.72Z" fill="#005828" fill-rule="evenodd"/><text fill="#000000" fill-opacity="0" font-family="Arial,Arial_MSFontService,sans-serif" font-size="30.4395" x="2483.35" y="2016.35">𝜅</text><path d="M2134.5 1914.5 2963.56 1914.5" stroke="#005828" stroke-width="6.875" stroke-miterlimit="8" fill="none" fill-rule="evenodd"/><path d="M3.4375-1.26823e-05 3.43778 74.9021-3.43722 74.9021-3.4375 1.26823e-05ZM13.7503 70.3187 0.000360892 97.8188-13.7497 70.3188Z" fill="#005828" transform="matrix(1 0 0 -1 2929.5 1911.32)"/><rect x="1781.5" y="978.5" width="115" height="613" stroke="#005828" stroke-width="6.875" stroke-miterlimit="8" fill="none"/><path d="M1820.63 1336.15 1844.26 1348.68 1844.26 1335.46 1834.53 1335.63C1831.07 1335.68 1828.21 1335.71 1825.94 1335.71 1824.21 1335.71 1822.44 1335.69 1820.63 1335.67ZM1810.54 1336.72 1810.54 1325.05 1853.86 1323.31C1855.4 1323.25 1856.79 1323.14 1858.02 1322.98 1859.25 1322.82 1860.25 1322.56 1861.04 1322.21 1861.82 1321.86 1862.39 1321.42 1862.76 1320.89 1863.12 1320.37 1863.36 1319.7 1863.47 1318.89L1866.14 1319.5 1866.14 1340.45 1863.47 1339.84C1863.39 1338.65 1863.08 1337.71 1862.55 1337.02 1862.03 1336.34 1861.31 1335.86 1860.41 1335.59 1859.5 1335.32 1858.24 1335.18 1856.62 1335.18 1855.46 1335.18 1854.24 1335.21 1852.97 1335.26L1849 1335.34 1849 1351.19 1850.01 1351.76C1852.74 1353.27 1854.81 1354.28 1856.21 1354.78 1857.62 1355.28 1858.91 1355.52 1860.1 1355.52 1862.05 1355.52 1863.17 1354.38 1863.47 1352.08L1866.14 1352.69 1866.14 1369.79 1863.47 1369.18C1863.25 1368.24 1862.89 1367.41 1862.37 1366.69 1861.86 1365.97 1861.16 1365.29 1860.29 1364.64 1859.41 1364 1857.9 1363.08 1855.77 1361.89Z" fill="#005828" fill-rule="evenodd"/><text fill="#000000" fill-opacity="0" font-family="Arial,Arial_MSFontService,sans-serif" font-size="50.9023" x="1810.54" y="1363.43">𝑨</text><path d="M1845.25 1296.96 1845.25 1295.18C1846.33 1295.22 1847.29 1295.24 1848.14 1295.26 1848.99 1295.28 1849.81 1295.3 1850.61 1295.31 1851.41 1295.32 1852.2 1295.32 1852.99 1295.32L1875.25 1295.32C1875.86 1295.32 1876.38 1295.3 1876.82 1295.26 1877.26 1295.23 1877.63 1295.16 1877.93 1295.07 1878.23 1294.99 1878.49 1294.87 1878.71 1294.72 1878.92 1294.58 1879.11 1294.4 1879.26 1294.21 1879.5 1293.98 1879.68 1293.66 1879.81 1293.27 1879.93 1292.88 1880.04 1292.38 1880.13 1291.78 1880.22 1291.17 1880.29 1290.44 1880.33 1289.6 1880.38 1288.75 1880.42 1287.73 1880.44 1286.53L1882.99 1286.53 1882.99 1309.77 1880.44 1309.77C1880.4 1308.61 1880.35 1307.64 1880.3 1306.84 1880.26 1306.04 1880.19 1305.35 1880.1 1304.79 1880.01 1304.22 1879.91 1303.77 1879.81 1303.42 1879.7 1303.08 1879.57 1302.78 1879.41 1302.53 1879.24 1302.26 1879.04 1302.02 1878.84 1301.83 1878.63 1301.63 1878.38 1301.48 1878.06 1301.36 1877.75 1301.24 1877.37 1301.15 1876.92 1301.08 1876.47 1301.01 1875.92 1300.98 1875.25 1300.98L1854.25 1300.98C1853.48 1300.98 1852.95 1301.12 1852.63 1301.42 1852.32 1301.71 1852.17 1302.13 1852.17 1302.68 1852.17 1303.28 1852.48 1304.18 1853.1 1305.37 1853.73 1306.56 1854.66 1308.11 1855.89 1310 1855.44 1310.25 1854.99 1310.49 1854.54 1310.7 1854.09 1310.92 1853.63 1311.14 1853.16 1311.38 1851.83 1308.96 1850.51 1306.56 1849.19 1304.19 1847.87 1301.81 1846.56 1299.4 1845.25 1296.96Z" fill="#005828" fill-rule="evenodd"/><text fill="#000000" fill-opacity="0" font-family="Arial,Arial_MSFontService,sans-serif" font-size="24.8438" x="1845.25" y="1308.27">1</text><path d="M1876.19 1276.81 1876.19 1270.95 1882.99 1270.95 1882.99 1276.81ZM1856.53 1276.81 1856.53 1270.95 1863.39 1270.95 1863.39 1276.81Z" fill="#005828" fill-rule="evenodd"/><text fill="#000000" fill-opacity="0" font-family="Arial,Arial_MSFontService,sans-serif" font-size="5.85938" x="1856.53" y="1276.08">:</text><path d="M1844.99 1256.64 1844.99 1246.53C1847.43 1245.61 1849.88 1244.67 1852.36 1243.7 1854.83 1242.74 1857.29 1241.78 1859.75 1240.85 1862.21 1239.91 1864.64 1239.01 1867.03 1238.14 1869.43 1237.27 1871.76 1236.47 1874.05 1235.75L1874.05 1235.37C1872.8 1235.15 1871.32 1234.88 1869.61 1234.55 1867.9 1234.22 1866.13 1233.83 1864.29 1233.38 1862.91 1233.04 1861.48 1232.71 1860.02 1232.37 1858.55 1232.02 1857.15 1231.71 1855.8 1231.41 1854.45 1231.12 1853.21 1230.88 1852.06 1230.7 1850.92 1230.51 1849.98 1230.42 1849.24 1230.42 1848.38 1230.42 1847.77 1230.64 1847.4 1231.08 1847.04 1231.52 1846.85 1232.33 1846.83 1233.52L1844.99 1233.11 1844.99 1222.24 1846.75 1222.62C1846.94 1223.29 1847.11 1223.82 1847.26 1224.21 1847.4 1224.6 1847.69 1224.93 1848.11 1225.2 1848.53 1225.48 1849.14 1225.73 1849.94 1225.98 1850.74 1226.22 1851.89 1226.51 1853.4 1226.84L1882.99 1233.46 1882.99 1237.89C1880.33 1238.92 1877.65 1239.98 1874.96 1241.07 1872.26 1242.15 1869.57 1243.21 1866.87 1244.26 1864.18 1245.3 1861.5 1246.31 1858.84 1247.26 1856.19 1248.22 1853.57 1249.09 1850.99 1249.87L1850.99 1250.25C1851.6 1250.35 1852.3 1250.47 1853.1 1250.6 1853.9 1250.74 1854.77 1250.89 1855.7 1251.06 1856.62 1251.22 1857.58 1251.4 1858.55 1251.58 1859.53 1251.77 1860.5 1251.96 1861.48 1252.16 1862.22 1252.33 1863.09 1252.54 1864.07 1252.79 1865.06 1253.03 1866.12 1253.28 1867.24 1253.53 1868.36 1253.79 1869.5 1254.05 1870.65 1254.31 1871.8 1254.57 1872.9 1254.81 1873.95 1255.03 1874.99 1255.24 1875.94 1255.41 1876.8 1255.54 1877.66 1255.67 1878.34 1255.73 1878.83 1255.73 1879.65 1255.73 1880.23 1255.5 1880.57 1255.03 1880.91 1254.56 1881.12 1253.76 1881.2 1252.62L1882.99 1252.95 1882.99 1263.87 1881.2 1263.49C1881.1 1262.91 1880.98 1262.42 1880.85 1262.03 1880.71 1261.64 1880.43 1261.3 1880.01 1261 1879.59 1260.71 1878.96 1260.43 1878.12 1260.17 1877.28 1259.9 1876.1 1259.61 1874.58 1259.27L1853.22 1254.47C1852.44 1254.29 1851.71 1254.16 1851.04 1254.07 1850.36 1253.99 1849.76 1253.94 1849.24 1253.94 1848.38 1253.94 1847.77 1254.17 1847.4 1254.62 1847.04 1255.07 1846.85 1255.89 1846.83 1257.08Z" fill="#005828" fill-rule="evenodd"/><text fill="#000000" fill-opacity="0" font-family="Arial,Arial_MSFontService,sans-serif" font-size="41.6309" x="1844.99" y="1258.67">𝑁</text><rect x="1982.5" y="1320.5" width="115" height="271" stroke="#005828" stroke-width="6.875" stroke-miterlimit="8" fill="none"/><path d="M2032.65 1458.86C2032.65 1460.15 2033.06 1461.43 2033.88 1462.69 2034.71 1463.94 2036.07 1465.34 2037.98 1466.88 2039.88 1468.42 2041.83 1469.68 2043.83 1470.65 2045.83 1471.62 2048.38 1472.45 2051.49 1473.12L2053.19 1473.49C2055.08 1473.89 2056.92 1474.09 2058.7 1474.09 2060.84 1474.09 2062.38 1473.63 2063.32 1472.7 2064.27 1471.76 2064.74 1470.22 2064.74 1468.06 2064.74 1466.95 2064.56 1465.89 2064.2 1464.89 2063.83 1463.89 2063.23 1462.87 2062.39 1461.83 2061.56 1460.79 2060.45 1459.81 2059.09 1458.88 2057.73 1457.94 2056.04 1457.09 2054.04 1456.3 2052.04 1455.52 2049.9 1454.91 2047.62 1454.48 2045.34 1454.05 2043.16 1453.83 2041.08 1453.83 2038.27 1453.83 2036.16 1454.23 2034.75 1455.03 2033.35 1455.82 2032.65 1457.1 2032.65 1458.86ZM2009.34 1465.95 2009.34 1463.6 2037.71 1470.73 2037.87 1470.2C2034.36 1467.58 2031.82 1465.12 2030.25 1462.83 2028.69 1460.53 2027.9 1458.23 2027.9 1455.94 2027.9 1452.99 2029.03 1450.7 2031.27 1449.07 2033.51 1447.43 2036.67 1446.62 2040.75 1446.62 2045.21 1446.62 2049.59 1447.51 2053.9 1449.31 2058.21 1451.11 2061.63 1453.6 2064.16 1456.79 2066.68 1459.98 2067.95 1463.54 2067.95 1467.49 2067.95 1471.08 2067.07 1474.27 2065.31 1477.05L2067.95 1480.78 2067.3 1483.37 2020.97 1472.88C2018.22 1472.26 2016.22 1471.95 2014.98 1471.95 2013.84 1471.95 2013.04 1472.29 2012.58 1472.98 2012.13 1473.67 2011.87 1474.9 2011.81 1476.69L2009.71 1476.2Z" fill="#005828" fill-rule="evenodd"/><text fill="#000000" fill-opacity="0" font-family="Arial,Arial_MSFontService,sans-serif" font-size="36.7583" x="2009.34" y="1478.78">𝑏</text><rect x="1985.5" y="978.5" width="115" height="270" stroke="#005828" stroke-width="6.875" stroke-miterlimit="8" fill="none"/><path d="M2033.36 1119.03C2033.36 1121.82 2034.48 1124.31 2036.72 1126.53 2038.96 1128.75 2041.97 1130.47 2045.74 1131.72 2049.51 1132.96 2053.27 1133.58 2057.02 1133.58 2059.83 1133.58 2061.94 1133.2 2063.33 1132.43 2064.72 1131.66 2065.41 1130.37 2065.41 1128.56 2065.41 1126.77 2064.64 1125.02 2063.1 1123.31 2061.56 1121.59 2059.37 1119.82 2056.52 1118 2053.67 1116.18 2050.38 1114.89 2046.65 1114.13L2044.91 1113.76C2043.8 1113.52 2042.84 1113.36 2042.03 1113.28 2041.22 1113.2 2040.34 1113.16 2039.4 1113.16 2037.31 1113.16 2035.79 1113.6 2034.82 1114.49 2033.84 1115.38 2033.36 1116.9 2033.36 1119.03ZM2030.15 1119.84C2030.15 1118.09 2030.35 1116.45 2030.74 1114.92 2031.13 1113.39 2031.83 1111.82 2032.83 1110.2L2030.15 1106.47 2030.8 1103.88 2056.5 1109.83C2059.06 1110.43 2061.06 1110.72 2062.5 1110.72 2063.58 1110.72 2064.36 1110.55 2064.85 1110.2 2065.33 1109.85 2065.58 1109.29 2065.58 1108.54 2065.58 1107.73 2065.24 1106.86 2064.58 1105.94 2063.92 1105.02 2062.66 1103.73 2060.79 1102.05L2063.06 1099.74C2065.66 1102.17 2067.5 1104.25 2068.59 1105.96 2069.69 1107.68 2070.24 1109.54 2070.24 1111.53 2070.24 1113.21 2069.68 1114.55 2068.57 1115.55 2067.47 1116.55 2065.99 1117.05 2064.16 1117.05 2062.67 1117.05 2061.09 1116.74 2059.42 1116.11L2059.25 1116.64C2063.04 1119.23 2065.81 1121.69 2067.56 1124.02 2069.32 1126.34 2070.2 1128.8 2070.2 1131.39 2070.2 1134.37 2069.07 1136.67 2066.83 1138.3 2064.59 1139.94 2061.44 1140.76 2057.39 1140.76 2052.74 1140.76 2048.28 1139.84 2043.99 1138.02 2039.71 1136.2 2036.34 1133.69 2033.86 1130.5 2031.39 1127.31 2030.15 1123.76 2030.15 1119.84Z" fill="#005828" fill-rule="evenodd"/><text fill="#000000" fill-opacity="0" font-family="Arial,Arial_MSFontService,sans-serif" font-size="41.0137" x="2030.15" y="1135.63">𝑎</text><rect x="2208.5" y="711.5" width="610" height="109" stroke="#005828" stroke-width="6.875" stroke-miterlimit="8" fill="none"/><path d="M2449.14 742.905C2446.84 742.905 2444.59 743.918 2442.39 745.944 2440.19 747.971 2438.18 750.889 2436.35 754.698 2434.53 758.508 2433.12 762.811 2432.14 767.606 2431.15 772.402 2430.66 776.353 2430.66 779.461 2430.66 783.189 2431.2 785.884 2432.28 787.546 2433.36 789.207 2435.12 790.038 2437.55 790.038 2439.12 790.038 2440.66 789.579 2442.17 788.66 2444.06 787.525 2445.83 785.742 2447.48 783.311 2449.4 780.501 2451.04 777.11 2452.42 773.138 2453.64 769.653 2454.65 765.425 2455.46 760.453 2455.89 757.859 2456.11 755.495 2456.11 753.361 2456.11 749.74 2455.57 747.093 2454.49 745.418 2453.41 743.742 2451.62 742.905 2449.14 742.905ZM2449.54 738.163C2455.7 738.163 2460.37 739.771 2463.55 742.986 2466.72 746.201 2468.31 750.875 2468.31 757.008 2468.31 759.602 2468.03 762.486 2467.48 765.661 2466.92 768.836 2466.02 772.024 2464.76 775.225 2463.51 778.427 2461.96 781.271 2460.12 783.756 2458.29 786.242 2456.16 788.316 2453.76 789.977 2451.35 791.639 2448.77 792.855 2446 793.625 2443.23 794.395 2440.26 794.78 2437.1 794.78 2430.94 794.78 2426.3 793.166 2423.16 789.937 2420.03 786.708 2418.46 781.96 2418.46 775.691 2418.46 773.557 2418.68 771.112 2419.11 768.356 2419.54 765.6 2420.27 762.689 2421.3 759.622 2422.32 756.556 2423.74 753.658 2425.55 750.929 2427.36 748.2 2429.49 745.87 2431.94 743.938 2434.38 742.006 2437.1 740.561 2440.1 739.602 2443.1 738.643 2446.25 738.163 2449.54 738.163Z" fill="#005828" fill-rule="evenodd"/><text fill="#000000" fill-opacity="0" font-family="Arial,Arial_MSFontService,sans-serif" font-size="56.6167" x="2418.46" y="787.703">𝑶</text><path d="M2483.81 782.919C2485.25 782.919 2486.37 783.393 2487.16 784.34 2487.95 785.287 2488.35 786.533 2488.35 788.076 2488.35 788.505 2488.32 788.925 2488.26 789.335 2488.2 789.745 2488.1 790.146 2487.94 790.536L2488.29 790.683C2490.15 788.085 2492 786.142 2493.86 784.853 2495.71 783.564 2497.62 782.919 2499.57 782.919 2501.64 782.919 2503.19 783.451 2504.21 784.516 2505.24 785.58 2505.75 787.148 2505.75 789.218 2505.75 789.394 2505.75 789.565 2505.75 789.731 2505.75 789.897 2505.73 790.068 2505.69 790.243L2505.81 790.243C2507.63 787.763 2509.43 785.922 2511.23 784.721 2513.03 783.52 2514.9 782.919 2516.86 782.919 2518.93 782.919 2520.47 783.476 2521.5 784.589 2522.53 785.702 2523.04 787.265 2523.04 789.277 2523.04 789.882 2522.94 790.698 2522.74 791.723 2522.55 792.748 2522.31 793.876 2522.03 795.107 2521.74 796.337 2521.44 797.612 2521.1 798.93 2520.77 800.248 2520.46 801.493 2520.17 802.665 2519.99 803.427 2519.85 804.047 2519.74 804.526 2519.63 805.004 2519.55 805.405 2519.49 805.727 2519.43 806.049 2519.4 806.327 2519.38 806.562 2519.36 806.796 2519.35 807.05 2519.35 807.324 2519.35 808.066 2519.48 808.603 2519.76 808.935 2520.03 809.267 2520.47 809.433 2521.07 809.433 2521.43 809.433 2521.78 809.365 2522.13 809.228 2522.48 809.091 2522.86 808.876 2523.26 808.583 2523.66 808.29 2524.1 807.914 2524.58 807.455 2525.05 806.996 2525.59 806.445 2526.17 805.8L2528.19 807.734C2527.26 808.71 2526.38 809.55 2525.57 810.253 2524.76 810.956 2523.98 811.537 2523.23 811.996 2522.48 812.455 2521.73 812.797 2520.99 813.022 2520.24 813.246 2519.46 813.359 2518.64 813.359 2517.9 813.359 2517.23 813.222 2516.62 812.949 2516.02 812.675 2515.5 812.299 2515.08 811.821 2514.66 811.342 2514.34 810.776 2514.1 810.121 2513.87 809.467 2513.75 808.749 2513.75 807.968 2513.75 806.367 2514.09 804.306 2514.78 801.786 2515.15 800.517 2515.48 799.301 2515.79 798.139 2516.09 796.977 2516.35 795.903 2516.56 794.916 2516.78 793.93 2516.95 793.051 2517.08 792.28 2517.2 791.508 2517.27 790.868 2517.27 790.361 2517.27 789.15 2517.04 788.261 2516.58 787.695 2516.12 787.128 2515.4 786.845 2514.42 786.845 2513.82 786.845 2513.17 787.001 2512.49 787.314 2511.81 787.626 2511.12 788.061 2510.43 788.617 2509.73 789.174 2509.05 789.833 2508.39 790.595 2507.73 791.357 2507.11 792.182 2506.54 793.071 2505.98 793.959 2505.47 794.892 2505.03 795.868 2504.6 796.845 2504.26 797.831 2504.02 798.827L2501.12 812.831 2495.41 812.831C2495.68 811.581 2495.99 810.239 2496.33 808.803 2496.68 807.367 2497.02 805.917 2497.37 804.452 2497.73 802.988 2498.06 801.542 2498.38 800.117 2498.71 798.691 2498.99 797.358 2499.25 796.117 2499.5 794.877 2499.71 793.764 2499.86 792.778 2500.02 791.791 2500.1 791.005 2500.1 790.419 2500.1 789.189 2499.86 788.285 2499.38 787.709 2498.9 787.133 2498.14 786.845 2497.08 786.845 2496.14 786.845 2495.14 787.197 2494.06 787.9 2492.99 788.603 2491.97 789.526 2491 790.668 2490.03 791.811 2489.17 793.1 2488.41 794.535 2487.65 795.971 2487.11 797.421 2486.8 798.886L2483.81 812.831 2478.07 812.831 2482.46 793.73C2482.72 792.675 2482.9 791.757 2483.02 790.976 2483.14 790.195 2483.19 789.55 2483.19 789.042 2483.19 787.617 2482.62 786.904 2481.47 786.904 2481.11 786.904 2480.76 786.977 2480.4 787.123 2480.03 787.27 2479.65 787.49 2479.25 787.783 2478.85 788.076 2478.42 788.447 2477.95 788.896 2477.48 789.345 2476.95 789.872 2476.37 790.478L2474.35 788.574C2475.3 787.597 2476.19 786.752 2477 786.039 2477.81 785.326 2478.59 784.741 2479.34 784.282 2480.09 783.823 2480.83 783.481 2481.55 783.256 2482.28 783.032 2483.03 782.919 2483.81 782.919Z" fill="#005828" fill-rule="evenodd"/><text fill="#000000" fill-opacity="0" font-family="Arial,Arial_MSFontService,sans-serif" font-size="30.4395" x="2474.35" y="809.554">𝑚</text><path d="M2535.3 806.034 2541.16 806.034 2541.16 812.831 2535.3 812.831ZM2535.3 786.376 2541.16 786.376 2541.16 793.232 2535.3 793.232Z" fill="#005828" fill-rule="evenodd"/><text fill="#000000" fill-opacity="0" font-family="Arial,Arial_MSFontService,sans-serif" font-size="26.4551" x="2535.3" y="809.524">:</text><path d="M2555.48 774.833 2565.58 774.833C2566.5 777.275 2567.44 779.731 2568.41 782.201 2569.38 784.672 2570.33 787.138 2571.27 789.599 2572.2 792.06 2573.11 794.487 2573.98 796.879 2574.85 799.272 2575.64 801.611 2576.36 803.896L2576.74 803.896C2576.96 802.646 2577.23 801.166 2577.57 799.457 2577.9 797.748 2578.29 795.976 2578.74 794.14 2579.07 792.753 2579.41 791.327 2579.75 789.863 2580.09 788.398 2580.41 786.992 2580.7 785.644 2580.99 784.296 2581.23 783.051 2581.42 781.909 2581.6 780.766 2581.7 779.824 2581.7 779.081 2581.7 778.222 2581.48 777.612 2581.04 777.25 2580.6 776.889 2579.78 776.699 2578.59 776.679L2579 774.833 2589.87 774.833 2589.49 776.591C2588.82 776.786 2588.3 776.957 2587.91 777.104 2587.52 777.25 2587.18 777.534 2586.91 777.953 2586.64 778.373 2586.38 778.984 2586.13 779.784 2585.89 780.585 2585.6 781.738 2585.27 783.242L2578.65 812.831 2574.23 812.831C2573.19 810.175 2572.13 807.499 2571.05 804.804 2569.96 802.109 2568.9 799.413 2567.85 796.718 2566.81 794.023 2565.81 791.347 2564.85 788.691 2563.89 786.034 2563.02 783.417 2562.24 780.839L2561.86 780.839C2561.76 781.445 2561.65 782.148 2561.51 782.949 2561.37 783.749 2561.22 784.614 2561.06 785.541 2560.89 786.469 2560.71 787.421 2560.53 788.398 2560.34 789.374 2560.15 790.351 2559.96 791.327 2559.78 792.07 2559.57 792.934 2559.33 793.92 2559.08 794.907 2558.83 795.961 2558.58 797.084 2558.33 798.207 2558.07 799.345 2557.8 800.497 2557.54 801.65 2557.3 802.748 2557.09 803.793 2556.87 804.838 2556.7 805.79 2556.57 806.65 2556.45 807.509 2556.38 808.183 2556.38 808.671 2556.38 809.492 2556.62 810.073 2557.09 810.414 2557.56 810.756 2558.36 810.966 2559.49 811.044L2559.17 812.831 2548.24 812.831 2548.62 811.044C2549.21 810.947 2549.69 810.829 2550.08 810.693 2550.48 810.556 2550.82 810.278 2551.11 809.858 2551.4 809.438 2551.68 808.808 2551.95 807.968 2552.21 807.128 2552.51 805.947 2552.84 804.423L2557.64 783.066C2557.82 782.284 2557.95 781.557 2558.04 780.883 2558.13 780.209 2558.17 779.609 2558.17 779.081 2558.17 778.222 2557.95 777.612 2557.5 777.25 2557.05 776.889 2556.23 776.699 2555.04 776.679Z" fill="#005828" fill-rule="evenodd"/><text fill="#000000" fill-opacity="0" font-family="Arial,Arial_MSFontService,sans-serif" font-size="37.998" x="2548.24" y="808.082">𝑁</text><path d="M2504.96 732.182C2505.45 732.182 2505.95 732.226 2506.47 732.314 2506.99 732.401 2507.43 732.533 2507.8 732.709L2506.4 738.891 2503.73 738.891C2503.69 738.481 2503.59 738.139 2503.44 737.865 2503.28 737.592 2502.98 737.455 2502.53 737.455 2502.3 737.475 2502.08 737.504 2501.87 737.543 2501.67 737.582 2501.43 737.675 2501.17 737.821 2500.9 737.968 2500.58 738.183 2500.2 738.466 2499.82 738.749 2499.35 739.135 2498.79 739.623 2498.24 740.111 2497.56 740.722 2496.76 741.454 2495.96 742.187 2495.01 743.08 2493.92 744.135L2497.2 754.33C2497.47 755.209 2497.71 755.932 2497.92 756.498 2498.12 757.065 2498.34 757.509 2498.56 757.831 2498.78 758.153 2499.03 758.378 2499.31 758.505 2499.58 758.632 2499.91 758.695 2500.3 758.695 2500.87 758.695 2501.52 758.437 2502.27 757.919 2503.01 757.401 2503.93 756.537 2505.02 755.326L2506.95 757.231C2505.2 759.145 2503.6 760.522 2502.18 761.361 2500.75 762.201 2499.36 762.621 2497.99 762.621 2497.23 762.621 2496.55 762.524 2495.97 762.328 2495.38 762.133 2494.86 761.816 2494.4 761.376 2493.94 760.937 2493.53 760.36 2493.17 759.648 2492.81 758.935 2492.47 758.07 2492.16 757.055L2489.32 747.445C2488.57 747.914 2487.83 748.334 2487.09 748.705 2486.35 749.076 2485.64 749.379 2484.95 749.613L2482.29 762.094 2476.54 762.094 2481.26 740.854C2481.4 740.268 2481.5 739.745 2481.58 739.286 2481.66 738.827 2481.72 738.402 2481.76 738.012 2481.82 737.68 2481.84 737.372 2481.83 737.089 2481.82 736.806 2481.8 736.557 2481.76 736.342 2481.64 735.795 2481.31 735.409 2480.78 735.185 2480.24 734.96 2479.45 734.828 2478.42 734.789L2478.77 732.797 2486.62 732.475 2488.64 732.475 2485.63 746.42C2486.91 745.795 2488.37 744.818 2489.99 743.49 2491.61 742.162 2493.34 740.57 2495.18 738.715 2496.33 737.524 2497.34 736.513 2498.22 735.683 2499.1 734.853 2499.91 734.179 2500.66 733.661 2501.4 733.144 2502.11 732.768 2502.79 732.533 2503.48 732.299 2504.2 732.182 2504.96 732.182Z" fill="#005828" fill-rule="evenodd"/><text fill="#000000" fill-opacity="0" font-family="Arial,Arial_MSFontService,sans-serif" font-size="30.4395" x="2476.54" y="758.816">𝜅</text><path d="M2515.79 742.699 2549.54 742.699 2549.54 747.182 2515.79 747.182Z" fill="#005828" fill-rule="evenodd"/><text fill="#000000" fill-opacity="0" font-family="Arial,Arial_MSFontService,sans-serif" font-size="4.48242" x="2515.79" y="746.621">−</text><path d="M2574.16 724.359 2575.95 724.359C2575.91 725.434 2575.88 726.396 2575.86 727.245 2575.84 728.095 2575.83 728.92 2575.82 729.721 2575.81 730.522 2575.8 731.313 2575.8 732.094L2575.8 754.359C2575.8 754.965 2575.82 755.487 2575.86 755.927 2575.9 756.366 2575.96 756.737 2576.05 757.04 2576.14 757.343 2576.25 757.602 2576.4 757.817 2576.55 758.031 2576.72 758.217 2576.91 758.373 2577.15 758.608 2577.46 758.788 2577.85 758.915 2578.24 759.042 2578.74 759.15 2579.35 759.237 2579.95 759.325 2580.68 759.394 2581.53 759.443 2582.38 759.491 2583.4 759.526 2584.59 759.545L2584.59 762.094 2561.36 762.094 2561.36 759.545C2562.51 759.506 2563.49 759.462 2564.29 759.413 2565.09 759.364 2565.77 759.296 2566.34 759.208 2566.9 759.12 2567.36 759.023 2567.7 758.915 2568.04 758.808 2568.34 758.676 2568.59 758.52 2568.87 758.344 2569.1 758.153 2569.3 757.948 2569.49 757.743 2569.65 757.484 2569.77 757.172 2569.88 756.859 2569.98 756.479 2570.04 756.029 2570.11 755.58 2570.15 755.024 2570.15 754.359L2570.15 733.354C2570.15 732.592 2570 732.055 2569.71 731.742 2569.41 731.43 2568.99 731.274 2568.45 731.274 2567.84 731.274 2566.94 731.586 2565.75 732.211 2564.56 732.836 2563.02 733.764 2561.12 734.994 2560.87 734.545 2560.63 734.096 2560.42 733.647 2560.21 733.197 2559.98 732.738 2559.75 732.27 2562.17 730.942 2564.57 729.618 2566.94 728.3 2569.31 726.982 2571.72 725.668 2574.16 724.359Z" fill="#005828" fill-rule="evenodd"/><text fill="#000000" fill-opacity="0" font-family="Arial,Arial_MSFontService,sans-serif" font-size="37.7344" x="2559.75" y="757.377">1</text><rect x="2206" y="984" width="609" height="141" fill="#D9D9D9"/><path d="M2378.08 1045.67C2375.3 1045.67 2372.8 1046.79 2370.58 1049.04 2368.37 1051.28 2366.64 1054.28 2365.39 1058.05 2364.15 1061.82 2363.53 1065.58 2363.53 1069.34 2363.53 1072.15 2363.92 1074.25 2364.69 1075.64 2365.46 1077.03 2366.75 1077.73 2368.56 1077.73 2370.34 1077.73 2372.09 1076.96 2373.8 1075.42 2375.52 1073.88 2377.29 1071.68 2379.11 1068.83 2380.94 1065.98 2382.23 1062.69 2382.98 1058.96L2383.35 1057.22C2383.59 1056.11 2383.75 1055.16 2383.83 1054.34 2383.92 1053.53 2383.96 1052.66 2383.96 1051.71 2383.96 1049.63 2383.51 1048.1 2382.62 1047.13 2381.73 1046.16 2380.21 1045.67 2378.08 1045.67ZM2377.27 1042.47C2379.02 1042.47 2380.67 1042.67 2382.19 1043.06 2383.72 1043.45 2385.29 1044.15 2386.91 1045.15L2390.64 1042.47 2393.24 1043.12 2387.28 1068.81C2386.68 1071.38 2386.39 1073.38 2386.39 1074.81 2386.39 1075.89 2386.56 1076.68 2386.91 1077.16 2387.27 1077.65 2387.82 1077.89 2388.58 1077.89 2389.39 1077.89 2390.25 1077.56 2391.17 1076.9 2392.09 1076.24 2393.39 1074.97 2395.06 1073.11L2397.37 1075.38C2394.94 1077.97 2392.86 1079.82 2391.15 1080.91 2389.43 1082 2387.58 1082.55 2385.58 1082.55 2383.9 1082.55 2382.56 1082 2381.56 1080.89 2380.56 1079.78 2380.07 1078.31 2380.07 1076.47 2380.07 1074.99 2380.38 1073.41 2381 1071.73L2380.47 1071.57C2377.88 1075.35 2375.42 1078.12 2373.09 1079.88 2370.77 1081.63 2368.31 1082.51 2365.72 1082.51 2362.75 1082.51 2360.44 1081.39 2358.81 1079.15 2357.17 1076.9 2356.36 1073.76 2356.36 1069.7 2356.36 1065.06 2357.27 1060.59 2359.09 1056.31 2360.92 1052.03 2363.42 1048.65 2366.61 1046.18 2369.8 1043.71 2373.35 1042.47 2377.27 1042.47Z" fill="#005828" fill-rule="evenodd"/><text fill="#000000" fill-opacity="0" font-family="Arial,Arial_MSFontService,sans-serif" font-size="40.0815" x="2356.36" y="1077.54">𝑎</text><path d="M2430 1052.36C2431.05 1052.36 2432 1052.61 2432.85 1053.11 2433.71 1053.61 2434.36 1054.3 2434.82 1055.2 2435.28 1056.09 2435.51 1057.09 2435.51 1058.19 2435.51 1059.33 2435.27 1060.34 2434.8 1061.23 2434.33 1062.13 2433.66 1062.81 2432.81 1063.3 2431.96 1063.79 2431.02 1064.03 2430 1064.03 2428.97 1064.03 2428.03 1063.79 2427.18 1063.3 2426.33 1062.81 2425.67 1062.13 2425.19 1061.23 2424.72 1060.34 2424.49 1059.33 2424.49 1058.19 2424.49 1057.09 2424.72 1056.09 2425.17 1055.2 2425.63 1054.3 2426.29 1053.61 2427.14 1053.11 2427.99 1052.61 2428.94 1052.36 2430 1052.36Z" fill="#005828" fill-rule="evenodd"/><text fill="#000000" fill-opacity="0" font-family="Arial,Arial_MSFontService,sans-serif" font-size="11.6719" x="2424.49" y="1062.57">∙</text><path d="M2478.79 1041.05C2480.95 1041.05 2482.6 1041.38 2483.74 1042.02 2484.87 1042.67 2485.8 1043.8 2486.53 1045.41 2487.26 1047.02 2487.95 1049.59 2488.6 1053.13L2489 1053.13C2491 1050.32 2492.56 1048.2 2493.66 1046.79 2494.77 1045.37 2495.8 1044.23 2496.74 1043.38 2497.69 1042.53 2498.61 1041.93 2499.5 1041.58 2500.39 1041.23 2501.45 1041.05 2502.66 1041.05 2504.01 1041.05 2505.38 1041.29 2506.75 1041.78L2504.85 1050.54 2501.2 1050.54C2501.07 1049.4 2500.57 1048.83 2499.7 1048.83 2499.32 1048.83 2498.93 1048.93 2498.51 1049.12 2498.09 1049.31 2497.53 1049.73 2496.85 1050.39 2496.16 1051.06 2495.3 1052.01 2494.27 1053.27 2493.25 1054.53 2491.71 1056.44 2489.65 1059.01 2490.6 1064.71 2491.37 1068.79 2491.98 1071.26 2492.59 1073.74 2493.22 1075.34 2493.87 1076.07 2494.25 1076.47 2494.7 1076.68 2495.24 1076.68 2495.92 1076.68 2496.55 1076.41 2497.13 1075.89 2497.71 1075.36 2498.46 1074.18 2499.38 1072.34L2503.07 1074.04C2501.5 1076.9 2499.72 1079.04 2497.74 1080.44 2495.75 1081.85 2493.42 1082.55 2490.75 1082.55 2489.1 1082.55 2487.78 1082.34 2486.79 1081.92 2485.81 1081.5 2484.97 1080.81 2484.28 1079.84 2483.59 1078.86 2482.99 1077.49 2482.46 1075.72 2481.93 1073.95 2481.44 1071.64 2480.98 1068.77L2480.57 1068.77C2478.28 1072.07 2476.44 1074.58 2475.06 1076.31 2473.68 1078.04 2472.5 1079.34 2471.52 1080.2 2470.53 1081.07 2469.58 1081.67 2468.68 1082.02 2467.77 1082.38 2466.69 1082.55 2465.42 1082.55 2464.82 1082.55 2464.1 1082.48 2463.25 1082.33 2462.4 1082.18 2461.76 1082.02 2461.32 1081.86L2463.23 1073.07 2466.88 1073.07C2466.9 1073.64 2467.04 1074.06 2467.3 1074.34 2467.56 1074.63 2467.89 1074.77 2468.29 1074.77 2468.78 1074.77 2469.23 1074.67 2469.65 1074.47 2470.07 1074.26 2470.65 1073.81 2471.39 1073.11 2472.14 1072.41 2473.08 1071.37 2474.21 1070.01 2475.35 1068.64 2477.26 1066.25 2479.97 1062.81 2479.4 1059.63 2478.86 1056.88 2478.37 1054.57 2477.87 1052.26 2477.41 1050.58 2477.01 1049.54 2476.6 1048.5 2476.22 1047.81 2475.85 1047.46 2475.49 1047.1 2475.08 1046.93 2474.62 1046.93 2474.08 1046.93 2473.6 1047.07 2473.2 1047.35 2472.79 1047.64 2472.37 1048.1 2471.92 1048.73 2471.48 1049.37 2471 1050.21 2470.48 1051.26L2466.79 1049.56C2468.36 1046.7 2470.12 1044.56 2472.08 1043.16 2474.04 1041.75 2476.28 1041.05 2478.79 1041.05Z" fill="#005828" fill-rule="evenodd"/><text fill="#000000" fill-opacity="0" font-family="Arial,Arial_MSFontService,sans-serif" font-size="41.5" x="2461.32" y="1077.36">𝒙</text><path d="M2554.12 1032.14 2559.87 1032.14 2559.87 1055.48 2581.96 1055.48 2581.96 1060.87 2559.87 1060.87 2559.87 1084.21 2554.12 1084.21 2554.12 1060.87 2532.03 1060.87 2532.03 1055.48 2554.12 1055.48Z" fill="#005828" fill-rule="evenodd"/><text fill="#000000" fill-opacity="0" font-family="Arial,Arial_MSFontService,sans-serif" font-size="52.0776" x="2532.03" y="1077.7">+</text><path d="M2634.45 1047.25C2633.15 1047.25 2631.88 1047.66 2630.62 1048.49 2629.36 1049.31 2627.96 1050.68 2626.42 1052.58 2624.88 1054.49 2623.63 1056.44 2622.66 1058.44 2621.68 1060.44 2620.86 1062.99 2620.18 1066.1L2619.82 1067.8C2619.41 1069.69 2619.21 1071.53 2619.21 1073.31 2619.21 1075.45 2619.68 1076.99 2620.61 1077.93 2621.54 1078.88 2623.09 1079.35 2625.25 1079.35 2626.36 1079.35 2627.41 1079.17 2628.41 1078.8 2629.41 1078.44 2630.43 1077.84 2631.47 1077 2632.51 1076.16 2633.5 1075.06 2634.43 1073.7 2635.36 1072.33 2636.22 1070.65 2637 1068.65 2637.79 1066.65 2638.39 1064.51 2638.83 1062.23 2639.26 1059.94 2639.47 1057.76 2639.47 1055.68 2639.47 1052.87 2639.08 1050.76 2638.28 1049.36 2637.48 1047.95 2636.21 1047.25 2634.45 1047.25ZM2627.36 1023.95 2629.71 1023.95 2622.57 1052.32 2623.1 1052.48C2625.72 1048.97 2628.18 1046.43 2630.48 1044.86 2632.77 1043.29 2635.07 1042.51 2637.37 1042.51 2640.31 1042.51 2642.6 1043.63 2644.24 1045.87 2645.87 1048.12 2646.69 1051.28 2646.69 1055.36 2646.69 1059.82 2645.79 1064.2 2643.99 1068.51 2642.2 1072.82 2639.7 1076.24 2636.52 1078.76 2633.33 1081.29 2629.76 1082.55 2625.82 1082.55 2622.22 1082.55 2619.04 1081.67 2616.25 1079.92L2612.52 1082.55 2609.93 1081.9 2620.43 1035.58C2621.05 1032.82 2621.36 1030.83 2621.36 1029.58 2621.36 1028.45 2621.01 1027.65 2620.33 1027.19 2619.64 1026.73 2618.4 1026.48 2616.62 1026.42L2617.1 1024.31Z" fill="#005828" fill-rule="evenodd"/><text fill="#000000" fill-opacity="0" font-family="Arial,Arial_MSFontService,sans-serif" font-size="58.6025" x="2609.93" y="1075.23">𝑏</text><path d="M3.4375-1.24048e-05 3.43778 77.0902-3.43722 77.0902-3.4375 1.24048e-05ZM13.7503 72.5068 0.000360892 100.007-13.7497 72.5069Z" fill="#005828" transform="matrix(1 0 0 -1 2511.5 1460.51)"/><path d="M3.4375-1.32257e-05 3.43777 70.8832-3.43723 70.8832-3.4375 1.32257e-05ZM13.7503 66.2998 0.000360892 93.7999-13.7497 66.3Z" fill="#005828" transform="matrix(1 0 0 -1 2511.5 1219.3)"/><path d="M3.4375-7.5721e-06 3.43781 140.917-3.43719 140.917-3.4375 7.5721e-06ZM13.7503 136.334 0.000360892 163.834-13.7497 136.334Z" fill="#005828" transform="matrix(1 0 0 -1 2511.5 984.334)"/><path d="M0 0 0.000360892 553.116" stroke="#005828" stroke-width="6.875" stroke-miterlimit="8" fill="none" fill-rule="evenodd" transform="matrix(1 0 0 -1 1959.5 1560.62)"/><path d="M1.65147-3.01481 88.1178 44.3501 84.8148 50.3797-1.65147 3.01481ZM89.0524 33.1037 106.565 58.3747 75.8407 57.2222Z" fill="#005828" transform="matrix(1 0 0 -1 2100.5 1112.87)"/><path d="M3.31752-0.900259 106.172 378.126 99.537 379.927-3.31752 0.900259ZM114.924 371.002 108.856 401.143 88.3842 378.204Z" fill="#005828" transform="matrix(1 0 0 -1 2097.5 1455.64)"/><text fill="#005828" font-family="Aptos,Aptos_MSFontService,sans-serif" font-weight="400" font-size="50" transform="matrix(1 0 0 1 1860.09 1682)">Loca</text><text fill="#005828" font-family="Aptos,Aptos_MSFontService,sans-serif" font-weight="400" font-size="50" transform="matrix(1 0 0 1 1966.65 1682)">l</text><text fill="#005828" font-family="Aptos,Aptos_MSFontService,sans-serif" font-weight="400" font-size="50" transform="matrix(1 0 0 1 1868.11 1742)">F</text><text fill="#005828" font-family="Aptos,Aptos_MSFontService,sans-serif" font-weight="400" font-size="50" transform="matrix(1 0 0 1 1894.46 1742)">iLM</text><text fill="#005828" font-family="Aptos,Aptos_MSFontService,sans-serif" font-weight="400" font-size="50" transform="matrix(1 0 0 1 1779.88 1803)">Conditioning</text><rect x="2206" y="1700" width="609" height="141" fill="#D9D9D9"/><path d="M2308.27 1758.63C2310.18 1758.63 2311.62 1758.92 2312.62 1759.49 2313.62 1760.06 2314.44 1761.05 2315.08 1762.46 2315.72 1763.88 2316.33 1766.14 2316.9 1769.25L2317.26 1769.25C2319.02 1766.78 2320.38 1764.92 2321.36 1763.67 2322.33 1762.43 2323.23 1761.43 2324.06 1760.68 2324.9 1759.93 2325.7 1759.4 2326.49 1759.09 2327.27 1758.78 2328.2 1758.63 2329.27 1758.63 2330.46 1758.63 2331.66 1758.84 2332.87 1759.27L2331.19 1766.97 2327.99 1766.97C2327.87 1765.97 2327.43 1765.47 2326.67 1765.47 2326.33 1765.47 2325.98 1765.56 2325.62 1765.72 2325.25 1765.89 2324.76 1766.26 2324.15 1766.85 2323.55 1767.43 2322.79 1768.27 2321.89 1769.38 2320.99 1770.48 2319.63 1772.16 2317.83 1774.42 2318.66 1779.44 2319.34 1783.03 2319.88 1785.2 2320.41 1787.38 2320.96 1788.79 2321.53 1789.43 2321.87 1789.78 2322.27 1789.96 2322.75 1789.96 2323.34 1789.96 2323.89 1789.73 2324.4 1789.27 2324.91 1788.8 2325.57 1787.76 2326.38 1786.15L2329.63 1787.65C2328.25 1790.16 2326.68 1792.04 2324.94 1793.28 2323.19 1794.51 2321.14 1795.13 2318.79 1795.13 2317.34 1795.13 2316.18 1794.95 2315.31 1794.58 2314.45 1794.21 2313.71 1793.6 2313.1 1792.74 2312.5 1791.89 2311.96 1790.68 2311.5 1789.12 2311.04 1787.57 2310.6 1785.53 2310.2 1783.01L2309.84 1783.01C2307.82 1785.91 2306.21 1788.12 2304.99 1789.64 2303.78 1791.16 2302.74 1792.3 2301.88 1793.06 2301.01 1793.82 2300.18 1794.36 2299.38 1794.67 2298.58 1794.98 2297.63 1795.13 2296.51 1795.13 2295.99 1795.13 2295.35 1795.07 2294.6 1794.93 2293.86 1794.8 2293.29 1794.67 2292.91 1794.52L2294.59 1786.79 2297.79 1786.79C2297.82 1787.29 2297.94 1787.66 2298.17 1787.91 2298.39 1788.16 2298.69 1788.29 2299.04 1788.29 2299.47 1788.29 2299.87 1788.2 2300.24 1788.02 2300.6 1787.84 2301.12 1787.44 2301.77 1786.83 2302.42 1786.21 2303.25 1785.3 2304.25 1784.1 2305.24 1782.9 2306.93 1780.79 2309.31 1777.77 2308.81 1774.97 2308.34 1772.55 2307.9 1770.52 2307.46 1768.49 2307.06 1767.01 2306.71 1766.1 2306.35 1765.18 2306.01 1764.57 2305.69 1764.26 2305.37 1763.95 2305.01 1763.8 2304.6 1763.8 2304.13 1763.8 2303.71 1763.92 2303.36 1764.17 2303 1764.42 2302.62 1764.83 2302.23 1765.39 2301.84 1765.94 2301.42 1766.69 2300.97 1767.61L2297.72 1766.12C2299.1 1763.6 2300.65 1761.72 2302.38 1760.48 2304.1 1759.25 2306.06 1758.63 2308.27 1758.63Z" fill="#005828" fill-rule="evenodd"/><text fill="#000000" fill-opacity="0" font-family="Arial,Arial_MSFontService,sans-serif" font-size="36.5" x="2292.91" y="1790.57">𝒙</text><path d="M2340.3 1786.29 2347.43 1786.29 2347.43 1794.56 2340.3 1794.56ZM2340.3 1762.37 2347.43 1762.37 2347.43 1770.71 2340.3 1770.71Z" fill="#005828" fill-rule="evenodd"/><text fill="#000000" fill-opacity="0" font-family="Arial,Arial_MSFontService,sans-serif" font-size="32.187" x="2340.3" y="1790.54">:</text><path d="M2429.78 1764.08C2428.64 1764.08 2427.51 1764.45 2426.41 1765.17 2425.3 1765.9 2424.07 1767.1 2422.72 1768.77 2421.36 1770.45 2420.26 1772.16 2419.4 1773.92 2418.55 1775.68 2417.82 1777.93 2417.23 1780.66L2416.91 1782.16C2416.55 1783.82 2416.37 1785.44 2416.37 1787 2416.37 1788.88 2416.78 1790.24 2417.6 1791.07 2418.42 1791.9 2419.78 1792.31 2421.68 1792.31 2422.66 1792.31 2423.59 1792.15 2424.46 1791.83 2425.34 1791.51 2426.24 1790.98 2427.16 1790.25 2428.07 1789.51 2428.94 1788.54 2429.76 1787.34 2430.58 1786.14 2431.33 1784.66 2432.02 1782.9 2432.71 1781.15 2433.25 1779.26 2433.63 1777.25 2434.01 1775.25 2434.2 1773.33 2434.2 1771.5 2434.2 1769.03 2433.85 1767.17 2433.14 1765.94 2432.44 1764.7 2431.32 1764.08 2429.78 1764.08ZM2388.49 1762.77C2386.02 1762.77 2383.87 1763.8 2382.03 1765.87 2380.18 1767.93 2378.73 1770.89 2377.68 1774.74 2376.62 1778.59 2376.09 1781.91 2376.09 1784.69 2376.09 1787.3 2376.63 1789.23 2377.71 1790.48 2378.79 1791.73 2380.43 1792.35 2382.61 1792.35 2384.94 1792.35 2387.01 1791.3 2388.82 1789.21 2390.62 1787.12 2392.05 1784.19 2393.09 1780.43 2394.14 1776.66 2394.66 1773.35 2394.66 1770.5 2394.66 1767.93 2394.16 1766 2393.16 1764.71 2392.17 1763.41 2390.61 1762.77 2388.49 1762.77ZM2463.82 1759.91C2466.03 1759.91 2468.05 1760.04 2469.86 1760.31 2471.68 1760.57 2473.49 1761.02 2475.3 1761.66L2473.69 1769.15 2470.81 1769.15C2470.55 1767.03 2469.85 1765.43 2468.72 1764.33 2467.59 1763.24 2465.82 1762.69 2463.39 1762.69 2461.52 1762.69 2460 1763.18 2458.83 1764.14 2457.67 1765.1 2457.08 1766.37 2457.08 1767.93 2457.08 1768.79 2457.23 1769.54 2457.53 1770.2 2457.83 1770.85 2458.43 1771.57 2459.33 1772.35 2460.23 1773.14 2461.64 1774.1 2463.54 1775.24 2465.03 1776.14 2466.23 1776.97 2467.14 1777.72 2468.04 1778.47 2468.75 1779.21 2469.27 1779.95 2469.8 1780.68 2470.18 1781.46 2470.42 1782.28 2470.65 1783.1 2470.77 1784.09 2470.77 1785.26 2470.77 1787.37 2470.21 1789.18 2469.08 1790.69 2467.95 1792.2 2466.42 1793.32 2464.48 1794.06 2462.54 1794.8 2460.34 1795.17 2457.87 1795.17 2455.9 1795.17 2453.96 1795.02 2452.06 1794.72 2450.16 1794.42 2448.04 1793.92 2445.71 1793.21L2447.42 1785.44 2450.21 1785.44C2450.3 1787.72 2450.94 1789.44 2452.13 1790.6 2453.32 1791.77 2455.21 1792.35 2457.8 1792.35 2460.05 1792.35 2461.82 1791.85 2463.09 1790.84 2464.36 1789.83 2465 1788.39 2465 1786.54 2465 1785.47 2464.82 1784.55 2464.46 1783.78 2464.11 1783.01 2463.52 1782.26 2462.72 1781.55 2461.91 1780.84 2460.63 1779.95 2458.87 1778.88 2457.01 1777.76 2455.57 1776.75 2454.54 1775.85 2453.5 1774.94 2452.72 1773.96 2452.2 1772.91 2451.68 1771.85 2451.42 1770.63 2451.42 1769.25 2451.42 1767.38 2451.92 1765.73 2452.93 1764.32 2453.94 1762.9 2455.39 1761.81 2457.26 1761.05 2459.14 1760.29 2461.33 1759.91 2463.82 1759.91ZM2389.21 1759.91C2393.01 1759.91 2395.91 1760.95 2397.9 1763.03 2399.9 1765.11 2400.9 1768.09 2400.9 1771.96 2400.9 1774.72 2400.42 1777.66 2399.46 1780.8 2398.49 1783.94 2397.17 1786.58 2395.5 1788.71 2393.82 1790.85 2391.82 1792.46 2389.49 1793.54 2387.16 1794.63 2384.49 1795.17 2381.47 1795.17 2377.79 1795.17 2374.93 1794.13 2372.9 1792.07 2370.87 1790 2369.85 1787.03 2369.85 1783.15 2369.85 1781.25 2370.14 1779.05 2370.71 1776.56 2371.44 1773.19 2372.68 1770.24 2374.42 1767.72 2376.15 1765.2 2378.29 1763.27 2380.83 1761.93 2383.37 1760.58 2386.17 1759.91 2389.21 1759.91ZM2423.54 1743.59 2425.61 1743.59 2419.33 1768.54 2419.8 1768.68C2422.1 1765.59 2424.26 1763.36 2426.28 1761.98 2428.3 1760.6 2430.32 1759.91 2432.34 1759.91 2434.93 1759.91 2436.95 1760.9 2438.38 1762.87 2439.82 1764.84 2440.54 1767.62 2440.54 1771.21 2440.54 1775.13 2439.75 1778.99 2438.17 1782.78 2436.59 1786.57 2434.4 1789.58 2431.59 1791.8 2428.79 1794.02 2425.65 1795.13 2422.18 1795.13 2419.02 1795.13 2416.22 1794.36 2413.77 1792.81L2410.49 1795.13 2408.21 1794.56 2417.44 1753.82C2417.99 1751.39 2418.26 1749.64 2418.26 1748.54 2418.26 1747.55 2417.96 1746.84 2417.35 1746.44 2416.75 1746.04 2415.66 1745.81 2414.09 1745.76L2414.52 1743.91Z" fill="#005828" fill-rule="evenodd"/><text fill="#000000" fill-opacity="0" font-family="Arial,Arial_MSFontService,sans-serif" font-size="51.5776" x="2369.85" y="1788.72">𝑜𝑏𝑠</text><path d="M2618.62 1764.08C2617.48 1764.08 2616.36 1764.45 2615.25 1765.17 2614.15 1765.9 2612.92 1767.1 2611.56 1768.77 2610.21 1770.45 2609.1 1772.16 2608.25 1773.92 2607.39 1775.68 2606.67 1777.93 2606.07 1780.66L2605.75 1782.16C2605.4 1783.82 2605.22 1785.44 2605.22 1787 2605.22 1788.88 2605.63 1790.24 2606.45 1791.07 2607.27 1791.9 2608.63 1792.31 2610.53 1792.31 2611.5 1792.31 2612.43 1792.15 2613.31 1791.83 2614.19 1791.51 2615.09 1790.98 2616 1790.25 2616.92 1789.51 2617.78 1788.54 2618.6 1787.34 2619.42 1786.14 2620.18 1784.66 2620.87 1782.9 2621.56 1781.15 2622.09 1779.26 2622.47 1777.25 2622.85 1775.25 2623.04 1773.33 2623.04 1771.5 2623.04 1769.03 2622.69 1767.17 2621.99 1765.94 2621.29 1764.7 2620.17 1764.08 2618.62 1764.08ZM2692.55 1762.69C2690.13 1762.69 2687.96 1763.67 2686.03 1765.63 2684.11 1767.6 2682.59 1770.24 2681.49 1773.57 2680.38 1776.89 2679.83 1780.21 2679.83 1783.51 2679.83 1785.98 2680.17 1787.83 2680.85 1789.05 2681.52 1790.28 2682.66 1790.89 2684.25 1790.89 2684.99 1790.89 2685.73 1790.73 2686.49 1790.41 2687.26 1790.09 2688.05 1789.57 2688.87 1788.86 2689.69 1788.14 2690.49 1787.28 2691.29 1786.26 2692.09 1785.23 2692.82 1784.21 2693.48 1783.17 2694.15 1782.14 2694.76 1780.91 2695.33 1779.5 2695.91 1778.09 2696.39 1776.38 2696.8 1774.39L2697.12 1772.85C2697.47 1771.14 2697.65 1769.53 2697.65 1768.01 2697.65 1766.15 2697.26 1764.8 2696.48 1763.96 2695.69 1763.12 2694.38 1762.69 2692.55 1762.69ZM2656.7 1762.69C2654.3 1762.69 2651.99 1763.91 2649.76 1766.33 2647.54 1768.75 2645.84 1772.03 2644.65 1776.17 2648 1776.14 2650.88 1775.84 2653.28 1775.26 2655.68 1774.68 2657.52 1773.75 2658.8 1772.48 2660.08 1771.21 2660.72 1769.49 2660.72 1767.33 2660.72 1765.88 2660.39 1764.74 2659.71 1763.92 2659.03 1763.1 2658.03 1762.69 2656.7 1762.69ZM2518.7 1762.69C2516.3 1762.69 2513.99 1763.91 2511.76 1766.33 2509.54 1768.75 2507.84 1772.03 2506.65 1776.17 2510 1776.14 2512.88 1775.84 2515.28 1775.26 2517.68 1774.68 2519.52 1773.75 2520.8 1772.48 2522.08 1771.21 2522.72 1769.49 2522.72 1767.33 2522.72 1765.88 2522.39 1764.74 2521.71 1763.92 2521.03 1763.1 2520.03 1762.69 2518.7 1762.69ZM2657.98 1759.88C2660.86 1759.88 2663.01 1760.46 2664.45 1761.62 2665.89 1762.79 2666.61 1764.61 2666.61 1767.08 2666.61 1771.12 2664.71 1774.15 2660.92 1776.17 2657.13 1778.19 2651.5 1779.2 2644.04 1779.2 2643.76 1780.62 2643.62 1782.17 2643.62 1783.83 2643.62 1786.33 2644.1 1788.14 2645.08 1789.27 2646.05 1790.4 2647.64 1790.96 2649.85 1790.96 2652.04 1790.96 2654.02 1790.48 2655.79 1789.53 2657.56 1788.58 2659.43 1787.12 2661.4 1785.15L2663.61 1787.47C2661.31 1790.01 2658.97 1791.92 2656.61 1793.21 2654.24 1794.49 2651.49 1795.13 2648.36 1795.13 2644.91 1795.13 2642.24 1794.08 2640.35 1791.98 2638.46 1789.87 2637.52 1786.94 2637.52 1783.19 2637.52 1780.65 2637.98 1777.92 2638.89 1775.01 2639.81 1772.1 2641.19 1769.48 2643.05 1767.17 2644.9 1764.85 2647.12 1763.06 2649.71 1761.79 2652.3 1760.51 2655.06 1759.88 2657.98 1759.88ZM2544.01 1759.88C2545.5 1759.88 2546.68 1760.37 2547.55 1761.36 2548.42 1762.34 2548.85 1763.63 2548.85 1765.22 2548.85 1766.53 2548.58 1767.92 2548.03 1769.4L2548.46 1769.54C2550.65 1766.28 2552.82 1763.86 2554.98 1762.28 2557.15 1760.7 2559.33 1759.91 2561.54 1759.91 2563.82 1759.91 2565.56 1760.56 2566.75 1761.86 2567.94 1763.15 2568.53 1765.02 2568.53 1767.47L2568.53 1767.97C2568.53 1768.14 2568.52 1768.31 2568.49 1768.5 2570.54 1765.6 2572.57 1763.45 2574.61 1762.03 2576.64 1760.62 2578.75 1759.91 2580.93 1759.91 2583.12 1759.91 2584.81 1760.54 2585.99 1761.8 2587.18 1763.06 2587.78 1764.83 2587.78 1767.11 2587.78 1768.61 2587.43 1770.74 2586.74 1773.49L2584.43 1782.83C2583.78 1785.42 2583.46 1787.25 2583.46 1788.32 2583.46 1789.27 2583.62 1789.96 2583.93 1790.39 2584.24 1790.82 2584.72 1791.03 2585.39 1791.03 2586.1 1791.03 2586.86 1790.74 2587.67 1790.16 2588.48 1789.58 2589.62 1788.46 2591.09 1786.83L2593.12 1788.82C2591.08 1790.98 2589.3 1792.58 2587.78 1793.6 2586.26 1794.62 2584.52 1795.13 2582.57 1795.13 2581.03 1795.13 2579.79 1794.58 2578.87 1793.47 2577.94 1792.37 2577.48 1790.96 2577.48 1789.25 2577.48 1787.7 2577.87 1785.44 2578.65 1782.44L2580.22 1776.27C2580.79 1774.04 2581.17 1772.39 2581.34 1771.32 2581.52 1770.25 2581.61 1769.38 2581.61 1768.72 2581.61 1767.08 2581.34 1765.9 2580.79 1765.17 2580.24 1764.45 2579.35 1764.08 2578.12 1764.08 2577.12 1764.08 2576.05 1764.46 2574.91 1765.21 2573.77 1765.96 2572.57 1767.12 2571.31 1768.7 2570.05 1770.28 2569.02 1771.84 2568.23 1773.37 2567.43 1774.9 2566.79 1776.77 2566.32 1778.98L2563.08 1794.56 2556.91 1794.56 2561.01 1776.45C2561.51 1774.24 2561.85 1772.61 2562.02 1771.55 2562.2 1770.49 2562.29 1769.59 2562.29 1768.82 2562.29 1767.11 2561.99 1765.9 2561.38 1765.17 2560.78 1764.45 2559.83 1764.08 2558.55 1764.08 2557.65 1764.08 2556.62 1764.46 2555.47 1765.21 2554.31 1765.96 2553.08 1767.16 2551.78 1768.81 2550.47 1770.46 2549.45 1772.04 2548.71 1773.57 2547.97 1775.09 2547.36 1776.94 2546.86 1779.13L2543.47 1794.56 2537.3 1794.56 2542.51 1771.96C2543.03 1769.68 2543.29 1767.92 2543.29 1766.69 2543.29 1765.74 2543.14 1765.05 2542.83 1764.62 2542.52 1764.19 2542.03 1763.98 2541.37 1763.98 2540.63 1763.98 2539.85 1764.28 2539.03 1764.89 2538.21 1765.49 2537.09 1766.59 2535.66 1768.18L2533.63 1766.19C2535.72 1764 2537.52 1762.4 2539.03 1761.39 2540.54 1760.38 2542.2 1759.88 2544.01 1759.88ZM2519.98 1759.88C2522.86 1759.88 2525.01 1760.46 2526.45 1761.62 2527.89 1762.79 2528.61 1764.61 2528.61 1767.08 2528.61 1771.12 2526.71 1774.15 2522.92 1776.17 2519.13 1778.19 2513.5 1779.2 2506.04 1779.2 2505.76 1780.62 2505.62 1782.17 2505.62 1783.83 2505.62 1786.33 2506.1 1788.14 2507.08 1789.27 2508.05 1790.4 2509.64 1790.96 2511.85 1790.96 2514.04 1790.96 2516.02 1790.48 2517.79 1789.53 2519.56 1788.58 2521.43 1787.12 2523.4 1785.15L2525.61 1787.47C2523.31 1790.01 2520.97 1791.92 2518.61 1793.21 2516.24 1794.49 2513.49 1795.13 2510.36 1795.13 2506.91 1795.13 2504.24 1794.08 2502.35 1791.98 2500.46 1789.87 2499.52 1786.94 2499.52 1783.19 2499.52 1780.65 2499.98 1777.92 2500.89 1775.01 2501.81 1772.1 2503.19 1769.48 2505.05 1767.17 2506.9 1764.85 2509.12 1763.06 2511.71 1761.79 2514.3 1760.51 2517.06 1759.88 2519.98 1759.88ZM2707.49 1743.59 2709.59 1743.59 2700.72 1783.05C2700.19 1785.38 2699.93 1787.13 2699.93 1788.32 2699.93 1789.27 2700.09 1789.96 2700.4 1790.39 2700.71 1790.82 2701.19 1791.03 2701.86 1791.03 2702.57 1791.03 2703.33 1790.74 2704.14 1790.16 2704.95 1789.58 2706.09 1788.46 2707.56 1786.83L2709.59 1788.82C2707.41 1791.13 2705.56 1792.75 2704.07 1793.7 2702.57 1794.66 2700.95 1795.13 2699.22 1795.13 2697.75 1795.13 2696.57 1794.64 2695.69 1793.67 2694.81 1792.69 2694.37 1791.4 2694.37 1789.78 2694.37 1788.48 2694.65 1787.09 2695.19 1785.61L2694.73 1785.47C2692.45 1788.8 2690.29 1791.23 2688.24 1792.78 2686.2 1794.32 2684.04 1795.09 2681.75 1795.09 2679.14 1795.09 2677.11 1794.11 2675.68 1792.14 2674.24 1790.16 2673.52 1787.4 2673.52 1783.83 2673.52 1779.74 2674.32 1775.82 2675.93 1772.05 2677.53 1768.28 2679.73 1765.31 2682.54 1763.14 2685.34 1760.97 2688.47 1759.88 2691.91 1759.88 2693.36 1759.88 2694.7 1760.03 2695.92 1760.32 2697.15 1760.62 2698.4 1761.14 2699.68 1761.87L2701.54 1753.64C2701.73 1752.86 2701.89 1751.99 2702.04 1751.04 2702.18 1750.09 2702.25 1749.26 2702.25 1748.54 2702.25 1747.83 2702.12 1747.29 2701.86 1746.92 2701.6 1746.55 2701.22 1746.29 2700.73 1746.12 2700.25 1745.95 2699.37 1745.83 2698.11 1745.76L2698.54 1743.91ZM2612.38 1743.59 2614.45 1743.59 2608.18 1768.54 2608.64 1768.68C2610.95 1765.59 2613.11 1763.36 2615.13 1761.98 2617.15 1760.6 2619.17 1759.91 2621.19 1759.91 2623.78 1759.91 2625.79 1760.9 2627.23 1762.87 2628.67 1764.84 2629.39 1767.62 2629.39 1771.21 2629.39 1775.13 2628.6 1778.99 2627.02 1782.78 2625.44 1786.57 2623.24 1789.58 2620.44 1791.8 2617.64 1794.02 2614.5 1795.13 2611.03 1795.13 2607.87 1795.13 2605.06 1794.36 2602.62 1792.81L2599.34 1795.13 2597.06 1794.56 2606.29 1753.82C2606.84 1751.39 2607.11 1749.64 2607.11 1748.54 2607.11 1747.55 2606.81 1746.84 2606.2 1746.44 2605.59 1746.04 2604.51 1745.81 2602.94 1745.76L2603.37 1743.91Z" fill="#005828" fill-rule="evenodd"/><text fill="#000000" fill-opacity="0" font-family="Arial,Arial_MSFontService,sans-serif" font-size="51.542" x="2499.52" y="1788.69">𝑒𝑚𝑏𝑒𝑑</text><rect x="2206" y="1460" width="609" height="141" fill="#D9D9D9"/><path d="M2378.08 1521.52C2375.3 1521.52 2372.8 1522.65 2370.58 1524.89 2368.37 1527.13 2366.64 1530.14 2365.39 1533.91 2364.15 1537.67 2363.53 1541.44 2363.53 1545.19 2363.53 1548 2363.92 1550.1 2364.69 1551.49 2365.46 1552.89 2366.75 1553.58 2368.56 1553.58 2370.34 1553.58 2372.09 1552.81 2373.8 1551.27 2375.52 1549.73 2377.29 1547.54 2379.11 1544.69 2380.94 1541.83 2382.23 1538.55 2382.98 1534.82L2383.35 1533.07C2383.59 1531.97 2383.75 1531.01 2383.83 1530.2 2383.92 1529.39 2383.96 1528.51 2383.96 1527.56 2383.96 1525.48 2383.51 1523.96 2382.62 1522.98 2381.73 1522.01 2380.21 1521.52 2378.08 1521.52ZM2377.27 1518.32C2379.02 1518.32 2380.67 1518.52 2382.19 1518.91 2383.72 1519.3 2385.29 1520 2386.91 1521L2390.64 1518.32 2393.24 1518.97 2387.28 1544.67C2386.68 1547.23 2386.39 1549.23 2386.39 1550.66 2386.39 1551.74 2386.56 1552.53 2386.91 1553.01 2387.27 1553.5 2387.82 1553.74 2388.58 1553.74 2389.39 1553.74 2390.25 1553.41 2391.17 1552.75 2392.09 1552.09 2393.39 1550.83 2395.06 1548.96L2397.37 1551.23C2394.94 1553.82 2392.86 1555.67 2391.15 1556.76 2389.43 1557.86 2387.58 1558.4 2385.58 1558.4 2383.9 1558.4 2382.56 1557.85 2381.56 1556.74 2380.56 1555.63 2380.07 1554.16 2380.07 1552.32 2380.07 1550.84 2380.38 1549.26 2381 1547.58L2380.47 1547.42C2377.88 1551.2 2375.42 1553.97 2373.09 1555.73 2370.77 1557.49 2368.31 1558.36 2365.72 1558.36 2362.75 1558.36 2360.44 1557.24 2358.81 1555 2357.17 1552.76 2356.36 1549.61 2356.36 1545.56 2356.36 1540.91 2357.27 1536.44 2359.09 1532.16 2360.92 1527.88 2363.42 1524.5 2366.61 1522.03 2369.8 1519.56 2373.35 1518.32 2377.27 1518.32Z" fill="#005828" fill-rule="evenodd"/><text fill="#000000" fill-opacity="0" font-family="Arial,Arial_MSFontService,sans-serif" font-size="40.0815" x="2356.36" y="1553.39">𝑎</text><path d="M2430 1528.21C2431.05 1528.21 2432 1528.46 2432.85 1528.96 2433.71 1529.46 2434.36 1530.16 2434.82 1531.05 2435.28 1531.94 2435.51 1532.94 2435.51 1534.05 2435.51 1535.18 2435.27 1536.19 2434.8 1537.09 2434.33 1537.98 2433.66 1538.67 2432.81 1539.15 2431.96 1539.64 2431.02 1539.88 2430 1539.88 2428.97 1539.88 2428.03 1539.64 2427.18 1539.15 2426.33 1538.67 2425.67 1537.98 2425.19 1537.09 2424.72 1536.19 2424.49 1535.18 2424.49 1534.05 2424.49 1532.94 2424.72 1531.94 2425.17 1531.05 2425.63 1530.16 2426.29 1529.46 2427.14 1528.96 2427.99 1528.46 2428.94 1528.21 2430 1528.21Z" fill="#005828" fill-rule="evenodd"/><text fill="#000000" fill-opacity="0" font-family="Arial,Arial_MSFontService,sans-serif" font-size="11.6719" x="2424.49" y="1538.42">∙</text><path d="M2478.79 1516.9C2480.95 1516.9 2482.6 1517.23 2483.74 1517.88 2484.87 1518.53 2485.8 1519.65 2486.53 1521.26 2487.26 1522.87 2487.95 1525.44 2488.6 1528.98L2489 1528.98C2491 1526.17 2492.56 1524.06 2493.66 1522.64 2494.77 1521.22 2495.8 1520.09 2496.74 1519.23 2497.69 1518.38 2498.61 1517.78 2499.5 1517.43 2500.39 1517.08 2501.45 1516.9 2502.66 1516.9 2504.01 1516.9 2505.38 1517.15 2506.75 1517.63L2504.85 1526.39 2501.2 1526.39C2501.07 1525.25 2500.57 1524.69 2499.7 1524.69 2499.32 1524.69 2498.93 1524.78 2498.51 1524.97 2498.09 1525.16 2497.53 1525.58 2496.85 1526.25 2496.16 1526.91 2495.3 1527.87 2494.27 1529.12 2493.25 1530.38 2491.71 1532.29 2489.65 1534.86 2490.6 1540.56 2491.37 1544.64 2491.98 1547.12 2492.59 1549.59 2493.22 1551.19 2493.87 1551.92 2494.25 1552.32 2494.7 1552.53 2495.24 1552.53 2495.92 1552.53 2496.55 1552.26 2497.13 1551.74 2497.71 1551.21 2498.46 1550.03 2499.38 1548.19L2503.07 1549.89C2501.5 1552.76 2499.72 1554.89 2497.74 1556.3 2495.75 1557.7 2493.42 1558.4 2490.75 1558.4 2489.1 1558.4 2487.78 1558.19 2486.79 1557.78 2485.81 1557.36 2484.97 1556.66 2484.28 1555.69 2483.59 1554.72 2482.99 1553.34 2482.46 1551.58 2481.93 1549.81 2481.44 1547.49 2480.98 1544.62L2480.57 1544.62C2478.28 1547.92 2476.44 1550.43 2475.06 1552.16 2473.68 1553.89 2472.5 1555.19 2471.52 1556.05 2470.53 1556.92 2469.58 1557.53 2468.68 1557.88 2467.77 1558.23 2466.69 1558.4 2465.42 1558.4 2464.82 1558.4 2464.1 1558.33 2463.25 1558.18 2462.4 1558.03 2461.76 1557.88 2461.32 1557.71L2463.23 1548.92 2466.88 1548.92C2466.9 1549.49 2467.04 1549.91 2467.3 1550.2 2467.56 1550.48 2467.89 1550.62 2468.29 1550.62 2468.78 1550.62 2469.23 1550.52 2469.65 1550.32 2470.07 1550.12 2470.65 1549.66 2471.39 1548.96 2472.14 1548.26 2473.08 1547.23 2474.21 1545.86 2475.35 1544.5 2477.26 1542.1 2479.97 1538.67 2479.4 1535.48 2478.86 1532.73 2478.37 1530.42 2477.87 1528.11 2477.41 1526.43 2477.01 1525.39 2476.6 1524.35 2476.22 1523.66 2475.85 1523.31 2475.49 1522.96 2475.08 1522.78 2474.62 1522.78 2474.08 1522.78 2473.6 1522.92 2473.2 1523.21 2472.79 1523.49 2472.37 1523.95 2471.92 1524.58 2471.48 1525.22 2471 1526.06 2470.48 1527.12L2466.79 1525.41C2468.36 1522.55 2470.12 1520.42 2472.08 1519.01 2474.04 1517.61 2476.28 1516.9 2478.79 1516.9Z" fill="#005828" fill-rule="evenodd"/><text fill="#000000" fill-opacity="0" font-family="Arial,Arial_MSFontService,sans-serif" font-size="41.5" x="2461.32" y="1553.22">𝒙</text><path d="M2554.12 1507.99 2559.87 1507.99 2559.87 1531.33 2581.96 1531.33 2581.96 1536.72 2559.87 1536.72 2559.87 1560.07 2554.12 1560.07 2554.12 1536.72 2532.03 1536.72 2532.03 1531.33 2554.12 1531.33Z" fill="#005828" fill-rule="evenodd"/><text fill="#000000" fill-opacity="0" font-family="Arial,Arial_MSFontService,sans-serif" font-size="52.0776" x="2532.03" y="1553.56">+</text><path d="M2634.45 1523.1C2633.15 1523.1 2631.88 1523.52 2630.62 1524.34 2629.36 1525.16 2627.96 1526.53 2626.42 1528.43 2624.88 1530.34 2623.63 1532.29 2622.66 1534.29 2621.68 1536.29 2620.86 1538.84 2620.18 1541.95L2619.82 1543.65C2619.41 1545.54 2619.21 1547.38 2619.21 1549.16 2619.21 1551.3 2619.68 1552.84 2620.61 1553.78 2621.54 1554.73 2623.09 1555.2 2625.25 1555.2 2626.36 1555.2 2627.41 1555.02 2628.41 1554.66 2629.41 1554.29 2630.43 1553.69 2631.47 1552.85 2632.51 1552.01 2633.5 1550.91 2634.43 1549.55 2635.36 1548.18 2636.22 1546.5 2637 1544.5 2637.79 1542.5 2638.39 1540.36 2638.83 1538.08 2639.26 1535.8 2639.47 1533.61 2639.47 1531.53 2639.47 1528.72 2639.08 1526.62 2638.28 1525.21 2637.48 1523.81 2636.21 1523.1 2634.45 1523.1ZM2627.36 1499.8 2629.71 1499.8 2622.57 1528.17 2623.1 1528.33C2625.72 1524.82 2628.18 1522.28 2630.48 1520.71 2632.77 1519.15 2635.07 1518.36 2637.37 1518.36 2640.31 1518.36 2642.6 1519.48 2644.24 1521.73 2645.87 1523.97 2646.69 1527.13 2646.69 1531.21 2646.69 1535.67 2645.79 1540.05 2643.99 1544.36 2642.2 1548.67 2639.7 1552.09 2636.52 1554.61 2633.33 1557.14 2629.76 1558.4 2625.82 1558.4 2622.22 1558.4 2619.04 1557.53 2616.25 1555.77L2612.52 1558.4 2609.93 1557.76 2620.43 1511.43C2621.05 1508.68 2621.36 1506.68 2621.36 1505.43 2621.36 1504.3 2621.01 1503.5 2620.33 1503.04 2619.64 1502.58 2618.4 1502.33 2616.62 1502.27L2617.1 1500.17Z" fill="#005828" fill-rule="evenodd"/><text fill="#000000" fill-opacity="0" font-family="Arial,Arial_MSFontService,sans-serif" font-size="58.6025" x="2609.93" y="1551.08">𝑏</text><path d="M3.4375-1.25278e-05 3.43778 76.1086-3.43722 76.1086-3.4375 1.25278e-05ZM13.7503 71.5252 0.000360892 99.0253-13.7497 71.5253Z" fill="#005828" transform="matrix(1 0 0 -1 2511.5 1700.53)"/><path d="M3.4375-1.7837e-05 3.43774 46.6334-3.43726 46.6334-3.4375 1.7837e-05ZM13.7502 42.05 0.000360892 69.5501-13.7498 42.0502Z" fill="#005828" transform="matrix(1 0 0 -1 2511.5 1911.05)"/><text fill="#005828" font-family="Aptos,Aptos_MSFontService,sans-serif" font-weight="400" font-size="50" transform="matrix(1 0 0 1 2529.06 1672)">1D Conv</text><text fill="#005828" font-family="Aptos,Aptos_MSFontService,sans-serif" font-weight="400" font-size="50" transform="matrix(1 0 0 1 2529.06 1426)">1D Conv</text><text fill="#005828" font-family="Aptos,Aptos_MSFontService,sans-serif" font-weight="400" font-size="50" transform="matrix(1 0 0 1 2531.36 1194)">1D Conv</text><path d="M2597.89 926.318C2599.3 926.318 2600.47 926.811 2601.42 927.797 2602.36 928.783 2602.84 930.033 2602.84 931.546 2602.84 933.059 2602.36 934.308 2601.42 935.295 2600.47 936.281 2599.3 936.774 2597.89 936.774 2596.49 936.774 2595.31 936.281 2594.37 935.295 2593.42 934.308 2592.95 933.059 2592.95 931.546 2592.95 930.033 2593.42 928.783 2594.37 927.797 2595.31 926.811 2596.49 926.318 2597.89 926.318ZM2573.33 926.318C2574.74 926.318 2575.91 926.811 2576.86 927.797 2577.8 928.783 2578.28 930.033 2578.28 931.546 2578.28 933.059 2577.8 934.308 2576.86 935.295 2575.91 936.281 2574.74 936.774 2573.33 936.774 2571.93 936.774 2570.75 936.281 2569.81 935.295 2568.86 934.308 2568.39 933.059 2568.39 931.546 2568.39 930.033 2568.86 928.783 2569.81 927.797 2570.75 926.811 2571.93 926.318 2573.33 926.318ZM2548.77 926.318C2550.18 926.318 2551.35 926.811 2552.3 927.797 2553.24 928.783 2553.72 930.033 2553.72 931.546 2553.72 933.059 2553.24 934.308 2552.3 935.295 2551.35 936.281 2550.18 936.774 2548.77 936.774 2547.37 936.774 2546.19 936.281 2545.25 935.295 2544.3 934.308 2543.83 933.059 2543.83 931.546 2543.83 930.033 2544.3 928.783 2545.25 927.797 2546.19 926.811 2547.37 926.318 2548.77 926.318Z" fill="#005828" fill-rule="evenodd"/><text fill="#000000" fill-opacity="0" font-family="Arial,Arial_MSFontService,sans-serif" font-size="10.4561" x="2543.83" y="935.467">⋯</text><path d="M2103.83 1112.65 2204.73 1507.92 2198.07 1509.62 2097.17 1114.35ZM2213.59 1500.93 2207.07 1530.98 2186.94 1507.73Z" fill="#005828"/><path d="M2099.45 1453.67 2189.41 1515.41 2185.52 1521.08 2095.55 1459.33ZM2191.46 1504.31 2206.36 1531.21 2175.9 1526.98Z" fill="#005828"/><rect x="2245.5" y="1576.5" width="17.0002" height="153" stroke="#005828" stroke-width="6.875" stroke-miterlimit="8" fill="#EEF9EB"/><rect x="2273.5" y="1605.5" width="16.9998" height="101" stroke="#005828" stroke-width="6.875" stroke-miterlimit="8" fill="#EEF9EB"/><rect x="2303.5" y="1606.5" width="16.0002" height="100" stroke="#005828" stroke-width="6.875" stroke-miterlimit="8" fill="#EEF9EB"/><rect x="2330.5" y="1576.5" width="15.9998" height="153" stroke="#005828" stroke-width="6.875" stroke-miterlimit="8" fill="#EEF9EB"/><rect x="2245.5" y="1334.5" width="17.0002" height="153" stroke="#005828" stroke-width="6.875" stroke-miterlimit="8" fill="#EEF9EB"/><rect x="2273.5" y="1363.5" width="16.9998" height="101" stroke="#005828" stroke-width="6.875" stroke-miterlimit="8" fill="#EEF9EB"/><rect x="2303.5" y="1364.5" width="16.0002" height="100" stroke="#005828" stroke-width="6.875" stroke-miterlimit="8" fill="#EEF9EB"/><rect x="2330.5" y="1334.5" width="15.9998" height="153" stroke="#005828" stroke-width="6.875" stroke-miterlimit="8" fill="#EEF9EB"/><rect x="2247.5" y="1098.5" width="18.0002" height="153" stroke="#005828" stroke-width="6.875" stroke-miterlimit="8" fill="#EEF9EB"/><rect x="2275.5" y="1127.5" width="16.9998" height="101" stroke="#005828" stroke-width="6.875" stroke-miterlimit="8" fill="#EEF9EB"/><rect x="2305.5" y="1127.5" width="16.9998" height="101" stroke="#005828" stroke-width="6.875" stroke-miterlimit="8" fill="#EEF9EB"/><rect x="2332.5" y="1098.5" width="17.0002" height="153" stroke="#005828" stroke-width="6.875" stroke-miterlimit="8" fill="#EEF9EB"/><path d="M2892.69 2021.37 2975.19 2021.37 2971.76 2024.81 2971.76 766.5 2975.19 769.938 2841.42 769.938 2841.42 763.063 2978.63 763.063 2978.63 2028.24 2892.69 2028.24ZM2846 780.25 2818.5 766.5 2846 752.75Z" fill="#005828"/><rect x="2946" y="1332" width="97" height="133" fill="#FFFFFF"/><path d="M3018.88 1385.72C3020.33 1385.72 3021.44 1385.88 3022.2 1386.2L3020.46 1393.98 3017.33 1393.98C3017.28 1393.44 3017.14 1393 3016.91 1392.65 3016.68 1392.3 3016.25 1392.12 3015.63 1392.12 3015.07 1392.12 3014.38 1392.36 3013.59 1392.85 3012.79 1393.34 3011.72 1394.18 3010.38 1395.38 3009.05 1396.58 3007.05 1398.5 3004.41 1401.12L3008.86 1415.91C3009.46 1417.85 3010.03 1419.21 3010.59 1419.98 3011.14 1420.75 3011.92 1421.14 3012.92 1421.14 3013.62 1421.14 3014.36 1420.87 3015.13 1420.35 3015.9 1419.82 3017 1418.79 3018.43 1417.25L3020.78 1419.43C3018.78 1421.62 3016.9 1423.23 3015.13 1424.26 3013.36 1425.28 3011.59 1425.8 3009.84 1425.8 3007.97 1425.8 3006.47 1425.22 3005.34 1424.05 3004.2 1422.89 3003.24 1420.99 3002.46 1418.34L2998.81 1405.49C2996.9 1406.93 2994.96 1408.01 2993.02 1408.74L2989.49 1425.15 2982.44 1425.15 2988.8 1396.7C2989.26 1394.65 2989.49 1393.04 2989.49 1391.88 2989.49 1390.61 2989.2 1389.74 2988.6 1389.28 2988.01 1388.82 2986.87 1388.58 2985.2 1388.55L2985.64 1386.41 2995.49 1386.04 2997.92 1386.04 2993.71 1405.05C2995.03 1404.51 2996.83 1403.23 2999.12 1401.22 3001.4 1399.2 3003.88 1396.78 3006.55 1393.94 3008.91 1391.46 3010.68 1389.71 3011.88 1388.69 3013.09 1387.68 3014.23 1386.93 3015.33 1386.45 3016.42 1385.96 3017.61 1385.72 3018.88 1385.72Z" fill-rule="evenodd"/><text fill="#000000" fill-opacity="0" font-family="Arial,Arial_MSFontService,sans-serif" font-size="40.0815" x="2982.44" y="1420.79">𝜅</text><text font-family="Aptos,Aptos_MSFontService,sans-serif" font-weight="400" font-size="50" transform="matrix(-1.83697e-16 -1 1 -1.83697e-16 1942.33 1542)">Linear action embedding</text><text font-family="Aptos,Aptos_MSFontService,sans-serif" font-weight="400" font-size="48" transform="matrix(1 0 0 1 2184.75 1960)">Linear </text><text font-family="Aptos,Aptos_MSFontService,sans-serif" font-weight="400" font-size="48" transform="matrix(1 0 0 1 2323.4 1960)">observatio</text><text font-family="Aptos,Aptos_MSFontService,sans-serif" font-weight="400" font-size="48" transform="matrix(1 0 0 1 2542.25 1960)">n</text><text font-family="Aptos,Aptos_MSFontService,sans-serif" font-weight="400" font-size="48" transform="matrix(1 0 0 1 2578.34 1960)">embedding</text></g></svg>