<svg width="1392" height="1112" xmlns="http://www.w3.org/2000/svg" xmlns:xlink="http://www.w3.org/1999/xlink" xml:space="preserve" overflow="hidden"><g transform="translate(-1766 -971)"><rect x="2882" y="1238" width="94.9998" height="581" fill="#FFFFFF"/><text font-family="Arial,Arial_MSFontService,sans-serif" font-weight="400" font-size="48" transform="matrix(6.12323e-17 1 -1 6.12323e-17 2915.2 1299)">Transformer Decoder</text><rect x="2134.5" y="1132.5" width="758" height="744" stroke="#005828" stroke-width="6.875" stroke-miterlimit="8" fill="#EEF9EB"/><rect x="2134.5" y="1972.5" width="758" height="107" stroke="#005828" stroke-width="6.875" stroke-miterlimit="8" fill="none"/><path d="M2455.95 2001.81C2453.65 2001.81 2451.4 2002.82 2449.2 2004.85 2447 2006.88 2444.98 2009.79 2443.16 2013.6 2441.34 2017.41 2439.93 2021.72 2438.94 2026.51 2437.96 2031.31 2437.47 2035.26 2437.47 2038.37 2437.47 2042.1 2438.01 2044.79 2439.09 2046.45 2440.17 2048.11 2441.92 2048.94 2444.35 2048.94 2445.92 2048.94 2447.46 2048.49 2448.97 2047.57 2450.87 2046.43 2452.64 2044.65 2454.28 2042.22 2456.2 2039.41 2457.85 2036.02 2459.23 2032.04 2460.44 2028.56 2461.46 2024.33 2462.27 2019.36 2462.7 2016.77 2462.92 2014.4 2462.92 2012.27 2462.92 2008.65 2462.38 2006 2461.3 2004.32 2460.21 2002.65 2458.43 2001.81 2455.95 2001.81ZM2456.35 1997.07C2462.51 1997.07 2467.18 1998.68 2470.35 2001.89 2473.53 2005.11 2475.11 2009.78 2475.11 2015.91 2475.11 2018.51 2474.84 2021.39 2474.28 2024.57 2473.73 2027.74 2472.83 2030.93 2471.57 2034.13 2470.31 2037.33 2468.77 2040.18 2466.93 2042.66 2465.09 2045.15 2462.97 2047.22 2460.57 2048.88 2458.16 2050.55 2455.57 2051.76 2452.8 2052.53 2450.04 2053.3 2447.07 2053.69 2443.91 2053.69 2437.75 2053.69 2433.1 2052.07 2429.97 2048.84 2426.83 2045.61 2425.27 2040.87 2425.27 2034.6 2425.27 2032.46 2425.48 2030.02 2425.91 2027.26 2426.35 2024.51 2427.08 2021.6 2428.1 2018.53 2429.13 2015.46 2430.55 2012.56 2432.36 2009.84 2434.17 2007.11 2436.3 2004.78 2438.74 2002.84 2441.19 2000.91 2443.91 1999.47 2446.91 1998.51 2449.91 1997.55 2453.05 1997.07 2456.35 1997.07Z" fill="#005828" fill-rule="evenodd"/><text fill="#000000" fill-opacity="0" font-family="Arial,Arial_MSFontService,sans-serif" font-size="56.6167" x="2425.27" y="2046.61">ğ‘¶</text><path d="M2497.82 2033.87 2499.61 2033.87C2499.57 2034.94 2499.54 2035.9 2499.52 2036.75 2499.5 2037.6 2499.49 2038.43 2499.48 2039.23 2499.47 2040.03 2499.47 2040.82 2499.47 2041.6L2499.47 2063.87C2499.47 2064.47 2499.48 2064.99 2499.52 2065.43 2499.56 2065.87 2499.63 2066.24 2499.71 2066.55 2499.8 2066.85 2499.92 2067.11 2500.07 2067.32 2500.21 2067.54 2500.38 2067.72 2500.58 2067.88 2500.81 2068.11 2501.13 2068.29 2501.52 2068.42 2501.91 2068.55 2502.4 2068.66 2503.01 2068.74 2503.62 2068.83 2504.34 2068.9 2505.19 2068.95 2506.04 2069 2507.06 2069.03 2508.25 2069.05L2508.25 2071.6 2485.02 2071.6 2485.02 2069.05C2486.17 2069.01 2487.15 2068.97 2487.95 2068.92 2488.75 2068.87 2489.44 2068.8 2490 2068.71 2490.57 2068.63 2491.02 2068.53 2491.36 2068.42 2491.71 2068.31 2492 2068.18 2492.26 2068.03 2492.53 2067.85 2492.77 2067.66 2492.96 2067.45 2493.16 2067.25 2493.31 2066.99 2493.43 2066.68 2493.55 2066.37 2493.64 2065.98 2493.71 2065.54 2493.78 2065.09 2493.81 2064.53 2493.81 2063.87L2493.81 2042.86C2493.81 2042.1 2493.66 2041.56 2493.37 2041.25 2493.08 2040.94 2492.66 2040.78 2492.11 2040.78 2491.51 2040.78 2490.61 2041.09 2489.42 2041.72 2488.23 2042.34 2486.68 2043.27 2484.79 2044.5 2484.53 2044.05 2484.3 2043.6 2484.08 2043.15 2483.87 2042.7 2483.65 2042.24 2483.41 2041.78 2485.83 2040.45 2488.23 2039.12 2490.6 2037.81 2492.98 2036.49 2495.38 2035.17 2497.82 2033.87Z" fill="#005828" fill-rule="evenodd"/><text fill="#000000" fill-opacity="0" font-family="Arial,Arial_MSFontService,sans-serif" font-size="37.7344" x="2483.41" y="2066.88">1</text><path d="M2517.98 2064.8 2523.84 2064.8 2523.84 2071.6 2517.98 2071.6ZM2517.98 2045.15 2523.84 2045.15 2523.84 2052 2517.98 2052Z" fill="#005828" fill-rule="evenodd"/><text fill="#000000" fill-opacity="0" font-family="Arial,Arial_MSFontService,sans-serif" font-size="26.4551" x="2517.98" y="2068.29">:</text><path d="M2539.7 2041.69C2541.15 2041.69 2542.27 2042.16 2543.06 2043.11 2543.85 2044.06 2544.24 2045.3 2544.24 2046.84 2544.24 2047.27 2544.21 2047.69 2544.16 2048.1 2544.1 2048.51 2543.99 2048.91 2543.83 2049.31L2544.19 2049.45C2546.04 2046.85 2547.9 2044.91 2549.75 2043.62 2551.61 2042.33 2553.51 2041.69 2555.46 2041.69 2557.53 2041.69 2559.08 2042.22 2560.11 2043.28 2561.13 2044.35 2561.65 2045.92 2561.65 2047.99 2561.65 2048.16 2561.65 2048.33 2561.65 2048.5 2561.65 2048.67 2561.63 2048.84 2561.59 2049.01L2561.7 2049.01C2563.52 2046.53 2565.33 2044.69 2567.12 2043.49 2568.92 2042.29 2570.8 2041.69 2572.75 2041.69 2574.82 2041.69 2576.37 2042.24 2577.39 2043.36 2578.42 2044.47 2578.93 2046.03 2578.93 2048.05 2578.93 2048.65 2578.83 2049.47 2578.64 2050.49 2578.44 2051.52 2578.2 2052.65 2577.92 2053.88 2577.64 2055.11 2577.33 2056.38 2577 2057.7 2576.67 2059.02 2576.35 2060.26 2576.06 2061.43 2575.88 2062.2 2575.74 2062.82 2575.64 2063.29 2575.53 2063.77 2575.45 2064.17 2575.39 2064.5 2575.33 2064.82 2575.29 2065.1 2575.27 2065.33 2575.25 2065.56 2575.24 2065.82 2575.24 2066.09 2575.24 2066.83 2575.38 2067.37 2575.65 2067.7 2575.92 2068.04 2576.36 2068.2 2576.97 2068.2 2577.32 2068.2 2577.67 2068.13 2578.02 2068 2578.37 2067.86 2578.75 2067.65 2579.15 2067.35 2579.55 2067.06 2579.99 2066.68 2580.47 2066.22 2580.95 2065.77 2581.48 2065.21 2582.07 2064.57L2584.09 2066.5C2583.15 2067.48 2582.28 2068.32 2581.47 2069.02 2580.66 2069.73 2579.87 2070.31 2579.12 2070.77 2578.37 2071.22 2577.62 2071.57 2576.88 2071.79 2576.14 2072.02 2575.36 2072.13 2574.54 2072.13 2573.79 2072.13 2573.12 2071.99 2572.52 2071.72 2571.91 2071.44 2571.4 2071.07 2570.98 2070.59 2570.56 2070.11 2570.23 2069.54 2570 2068.89 2569.76 2068.24 2569.64 2067.52 2569.64 2066.74 2569.64 2065.14 2569.99 2063.07 2570.67 2060.56 2571.04 2059.29 2571.38 2058.07 2571.68 2056.91 2571.98 2055.75 2572.24 2054.67 2572.46 2053.69 2572.67 2052.7 2572.84 2051.82 2572.97 2051.05 2573.1 2050.28 2573.16 2049.64 2573.16 2049.13 2573.16 2047.92 2572.93 2047.03 2572.47 2046.46 2572.01 2045.9 2571.29 2045.61 2570.32 2045.61 2569.71 2045.61 2569.07 2045.77 2568.38 2046.08 2567.7 2046.4 2567.01 2046.83 2566.32 2047.39 2565.63 2047.94 2564.95 2048.6 2564.28 2049.36 2563.62 2050.13 2563 2050.95 2562.44 2051.84 2561.87 2052.73 2561.37 2053.66 2560.93 2054.64 2560.49 2055.61 2560.15 2056.6 2559.92 2057.6L2557.02 2071.6 2551.3 2071.6C2551.58 2070.35 2551.89 2069.01 2552.23 2067.57 2552.57 2066.14 2552.92 2064.69 2553.27 2063.22 2553.62 2061.76 2553.96 2060.31 2554.28 2058.89 2554.6 2057.46 2554.89 2056.13 2555.14 2054.89 2555.4 2053.65 2555.6 2052.53 2555.76 2051.55 2555.91 2050.56 2555.99 2049.77 2555.99 2049.19 2555.99 2047.96 2555.75 2047.05 2555.27 2046.48 2554.8 2045.9 2554.03 2045.61 2552.97 2045.61 2552.04 2045.61 2551.03 2045.97 2549.96 2046.67 2548.88 2047.37 2547.86 2048.29 2546.9 2049.44 2545.93 2050.58 2545.06 2051.87 2544.3 2053.3 2543.54 2054.74 2543 2056.19 2542.69 2057.65L2539.7 2071.6 2533.96 2071.6 2538.36 2052.5C2538.61 2051.44 2538.79 2050.53 2538.91 2049.74 2539.03 2048.96 2539.09 2048.32 2539.09 2047.81 2539.09 2046.39 2538.51 2045.67 2537.36 2045.67 2537.01 2045.67 2536.65 2045.75 2536.29 2045.89 2535.93 2046.04 2535.55 2046.26 2535.15 2046.55 2534.75 2046.84 2534.31 2047.22 2533.84 2047.66 2533.37 2048.11 2532.85 2048.64 2532.26 2049.25L2530.24 2047.34C2531.2 2046.37 2532.08 2045.52 2532.89 2044.81 2533.7 2044.1 2534.48 2043.51 2535.24 2043.05 2535.99 2042.59 2536.72 2042.25 2537.45 2042.02 2538.17 2041.8 2538.92 2041.69 2539.7 2041.69Z" fill="#005828" fill-rule="evenodd"/><text fill="#000000" fill-opacity="0" font-family="Arial,Arial_MSFontService,sans-serif" font-size="30.4395" x="2530.24" y="2068.32">ğ‘š</text><path d="M2511.77 1991.2C2512.26 1991.2 2512.76 1991.25 2513.28 1991.33 2513.79 1991.42 2514.24 1991.55 2514.61 1991.73L2513.2 1997.91 2510.54 1997.91C2510.5 1997.5 2510.4 1997.16 2510.24 1996.89 2510.09 1996.61 2509.79 1996.48 2509.34 1996.48 2509.1 1996.5 2508.88 1996.52 2508.68 1996.56 2508.47 1996.6 2508.24 1996.7 2507.97 1996.84 2507.71 1996.99 2507.39 1997.2 2507.01 1997.49 2506.63 1997.77 2506.16 1998.16 2505.6 1998.64 2505.04 1999.13 2504.37 1999.74 2503.56 2000.48 2502.76 2001.21 2501.82 2002.1 2500.72 2003.16L2504 2013.35C2504.28 2014.23 2504.52 2014.95 2504.72 2015.52 2504.93 2016.09 2505.14 2016.53 2505.37 2016.85 2505.59 2017.17 2505.84 2017.4 2506.11 2017.53 2506.39 2017.65 2506.72 2017.72 2507.11 2017.72 2507.68 2017.72 2508.33 2017.46 2509.07 2016.94 2509.81 2016.42 2510.73 2015.56 2511.83 2014.35L2513.76 2016.25C2512 2018.17 2510.41 2019.54 2508.98 2020.38 2507.56 2021.22 2506.16 2021.64 2504.8 2021.64 2504.03 2021.64 2503.36 2021.54 2502.77 2021.35 2502.19 2021.15 2501.67 2020.84 2501.21 2020.4 2500.75 2019.96 2500.34 2019.38 2499.98 2018.67 2499.61 2017.96 2499.28 2017.09 2498.97 2016.08L2496.12 2006.47C2495.38 2006.94 2494.64 2007.35 2493.9 2007.73 2493.15 2008.1 2492.44 2008.4 2491.76 2008.63L2489.09 2021.11 2483.35 2021.11 2488.07 1999.87C2488.2 1999.29 2488.31 1998.77 2488.39 1998.31 2488.47 1997.85 2488.53 1997.42 2488.56 1997.03 2488.62 1996.7 2488.65 1996.39 2488.64 1996.11 2488.63 1995.83 2488.6 1995.58 2488.56 1995.36 2488.45 1994.82 2488.12 1994.43 2487.58 1994.21 2487.05 1993.98 2486.26 1993.85 2485.22 1993.81L2485.58 1991.82 2493.43 1991.5 2495.45 1991.5 2492.43 2005.44C2493.72 2004.82 2495.18 2003.84 2496.8 2002.51 2498.42 2001.18 2500.15 1999.59 2501.98 1997.74 2503.14 1996.54 2504.15 1995.53 2505.03 1994.7 2505.91 1993.87 2506.72 1993.2 2507.46 1992.68 2508.2 1992.16 2508.92 1991.79 2509.6 1991.55 2510.28 1991.32 2511.01 1991.2 2511.77 1991.2Z" fill="#005828" fill-rule="evenodd"/><text fill="#000000" fill-opacity="0" font-family="Arial,Arial_MSFontService,sans-serif" font-size="30.4395" x="2483.35" y="2017.84">ğœ…</text><path d="M2134.5 1914.5 2963.56 1914.5" stroke="#005828" stroke-width="6.875" stroke-miterlimit="8" fill="none" fill-rule="evenodd"/><path d="M3.4375-1.26823e-05 3.43778 74.9021-3.43722 74.9021-3.4375 1.26823e-05ZM13.7503 70.3187 0.000360892 97.8188-13.7497 70.3188Z" fill="#005828" transform="matrix(1 0 0 -1 2929.5 1911.32)"/><rect x="1923.5" y="1486.5" width="115" height="272" stroke="#005828" stroke-width="6.875" stroke-miterlimit="8" fill="none"/><path d="M1962.82 1674.01 1986.44 1686.53 1986.44 1673.32 1976.72 1673.48C1973.26 1673.54 1970.4 1673.56 1968.13 1673.56 1966.4 1673.56 1964.63 1673.55 1962.82 1673.52ZM1952.73 1674.58 1952.73 1662.9 1996.05 1661.16C1997.59 1661.11 1998.97 1661 2000.2 1660.84 2001.43 1660.67 2002.44 1660.42 2003.22 1660.07 2004.01 1659.72 2004.58 1659.28 2004.95 1658.75 2005.31 1658.22 2005.55 1657.55 2005.65 1656.74L2008.33 1657.35 2008.33 1678.3 2005.65 1677.7C2005.57 1676.51 2005.27 1675.57 2004.74 1674.88 2004.22 1674.19 2003.5 1673.71 2002.59 1673.44 2001.69 1673.17 2000.43 1673.04 1998.81 1673.04 1997.64 1673.04 1996.43 1673.06 1995.16 1673.12L1991.19 1673.2 1991.19 1689.04 1992.2 1689.61C1994.93 1691.12 1996.99 1692.13 1998.4 1692.63 1999.8 1693.13 2001.1 1693.38 2002.29 1693.38 2004.24 1693.38 2005.36 1692.23 2005.65 1689.94L2008.33 1690.54 2008.33 1707.65 2005.65 1707.04C2005.44 1706.09 2005.07 1705.26 2004.56 1704.55 2004.05 1703.83 2003.35 1703.15 2002.47 1702.5 2001.59 1701.85 2000.09 1700.93 1997.95 1699.74Z" fill="#005828" fill-rule="evenodd"/><text fill="#000000" fill-opacity="0" font-family="Arial,Arial_MSFontService,sans-serif" font-size="50.9023" x="1952.73" y="1701.28">ğ‘¨</text><path d="M1987.44 1634.82 1987.44 1633.03C1988.51 1633.07 1989.47 1633.1 1990.32 1633.12 1991.17 1633.14 1992 1633.15 1992.8 1633.16 1993.6 1633.17 1994.39 1633.18 1995.17 1633.18L2017.44 1633.18C2018.04 1633.18 2018.57 1633.16 2019.01 1633.12 2019.45 1633.08 2019.82 1633.02 2020.12 1632.93 2020.42 1632.84 2020.68 1632.72 2020.9 1632.58 2021.11 1632.43 2021.3 1632.26 2021.45 1632.06 2021.69 1631.83 2021.87 1631.52 2021.99 1631.13 2022.12 1630.74 2022.23 1630.24 2022.32 1629.63 2022.4 1629.03 2022.47 1628.3 2022.52 1627.45 2022.57 1626.6 2022.6 1625.58 2022.62 1624.39L2025.17 1624.39 2025.17 1647.62 2022.62 1647.62C2022.58 1646.47 2022.54 1645.49 2022.49 1644.69 2022.44 1643.89 2022.38 1643.21 2022.29 1642.64 2022.2 1642.07 2022.1 1641.62 2021.99 1641.28 2021.89 1640.94 2021.75 1640.64 2021.6 1640.38 2021.42 1640.11 2021.23 1639.88 2021.03 1639.68 2020.82 1639.49 2020.56 1639.33 2020.25 1639.21 2019.94 1639.1 2019.56 1639 2019.11 1638.93 2018.66 1638.87 2018.1 1638.83 2017.44 1638.83L1996.43 1638.83C1995.67 1638.83 1995.13 1638.98 1994.82 1639.27 1994.51 1639.56 1994.35 1639.98 1994.35 1640.53 1994.35 1641.14 1994.67 1642.04 1995.29 1643.23 1995.92 1644.42 1996.84 1645.96 1998.07 1647.86 1997.62 1648.11 1997.17 1648.34 1996.73 1648.56 1996.28 1648.77 1995.82 1649 1995.35 1649.23 1994.02 1646.81 1992.7 1644.41 1991.38 1642.04 1990.06 1639.67 1988.75 1637.26 1987.44 1634.82Z" fill="#005828" fill-rule="evenodd"/><text fill="#000000" fill-opacity="0" font-family="Arial,Arial_MSFontService,sans-serif" font-size="24.8438" x="1987.44" y="1646.13">1</text><path d="M2018.38 1614.67 2018.38 1608.81 2025.17 1608.81 2025.17 1614.67ZM1998.72 1614.67 1998.72 1608.81 2005.57 1608.81 2005.57 1614.67Z" fill="#005828" fill-rule="evenodd"/><text fill="#000000" fill-opacity="0" font-family="Arial,Arial_MSFontService,sans-serif" font-size="5.85938" x="1998.72" y="1613.93">:</text><path d="M1987.17 1594.49 1987.17 1584.39C1989.62 1583.47 1992.07 1582.53 1994.54 1581.56 1997.01 1580.59 1999.48 1579.64 2001.94 1578.7 2004.4 1577.76 2006.83 1576.86 2009.22 1575.99 2011.61 1575.12 2013.95 1574.33 2016.24 1573.6L2016.24 1573.22C2014.99 1573.01 2013.51 1572.74 2011.8 1572.4 2010.09 1572.07 2008.32 1571.68 2006.48 1571.23 2005.09 1570.9 2003.67 1570.56 2002.2 1570.22 2000.74 1569.88 1999.33 1569.56 1997.99 1569.27 1996.64 1568.98 1995.39 1568.74 1994.25 1568.55 1993.11 1568.36 1992.17 1568.27 1991.42 1568.27 1990.56 1568.27 1989.95 1568.49 1989.59 1568.93 1989.23 1569.37 1989.04 1570.19 1989.02 1571.38L1987.17 1570.97 1987.17 1560.1 1988.93 1560.48C1989.13 1561.14 1989.3 1561.67 1989.45 1562.06 1989.59 1562.45 1989.88 1562.78 1990.29 1563.06 1990.71 1563.33 1991.33 1563.59 1992.13 1563.83 1992.93 1564.08 1994.08 1564.37 1995.58 1564.7L2025.17 1571.32 2025.17 1575.74C2022.52 1576.78 2019.84 1577.84 2017.15 1578.92 2014.45 1580.01 2011.75 1581.07 2009.06 1582.11 2006.36 1583.16 2003.69 1584.16 2001.03 1585.12 1998.38 1586.07 1995.76 1586.94 1993.18 1587.73L1993.18 1588.11C1993.79 1588.2 1994.49 1588.32 1995.29 1588.46 1996.09 1588.59 1996.96 1588.75 1997.88 1588.91 1998.81 1589.08 1999.76 1589.25 2000.74 1589.44 2001.72 1589.62 2002.69 1589.82 2003.67 1590.01 2004.41 1590.19 2005.28 1590.4 2006.26 1590.64 2007.25 1590.88 2008.3 1591.13 2009.43 1591.39 2010.55 1591.64 2011.69 1591.9 2012.84 1592.16 2013.99 1592.43 2015.09 1592.67 2016.13 1592.88 2017.18 1593.1 2018.13 1593.27 2018.99 1593.39 2019.85 1593.52 2020.52 1593.58 2021.01 1593.58 2021.83 1593.58 2022.41 1593.35 2022.76 1592.88 2023.1 1592.41 2023.31 1591.61 2023.39 1590.48L2025.17 1590.8 2025.17 1601.73 2023.39 1601.35C2023.29 1600.76 2023.17 1600.27 2023.03 1599.88 2022.9 1599.49 2022.62 1599.15 2022.2 1598.86 2021.78 1598.57 2021.15 1598.29 2020.31 1598.02 2019.47 1597.76 2018.29 1597.46 2016.76 1597.13L1995.41 1592.32C1994.63 1592.15 1993.9 1592.02 1993.22 1591.93 1992.55 1591.84 1991.95 1591.8 1991.42 1591.8 1990.56 1591.8 1989.95 1592.02 1989.59 1592.47 1989.23 1592.92 1989.04 1593.74 1989.02 1594.93Z" fill="#005828" fill-rule="evenodd"/><text fill="#000000" fill-opacity="0" font-family="Arial,Arial_MSFontService,sans-serif" font-size="41.6309" x="1987.17" y="1596.53">ğ‘</text><rect x="2216.5" y="985.5" width="609" height="109" stroke="#005828" stroke-width="6.875" stroke-miterlimit="8" fill="none"/><path d="M2456.26 1016.88C2453.97 1016.88 2451.72 1017.89 2449.52 1019.92 2447.31 1021.94 2445.3 1024.86 2443.48 1028.67 2441.65 1032.48 2440.25 1036.78 2439.26 1041.58 2438.28 1046.37 2437.78 1050.32 2437.78 1053.43 2437.78 1057.16 2438.32 1059.86 2439.4 1061.52 2440.48 1063.18 2442.24 1064.01 2444.67 1064.01 2446.24 1064.01 2447.78 1063.55 2449.29 1062.63 2451.18 1061.5 2452.95 1059.71 2454.6 1057.28 2456.52 1054.47 2458.17 1051.08 2459.55 1047.11 2460.76 1043.62 2461.77 1039.4 2462.59 1034.42 2463.02 1031.83 2463.23 1029.47 2463.23 1027.33 2463.23 1023.71 2462.69 1021.06 2461.61 1019.39 2460.53 1017.71 2458.75 1016.88 2456.26 1016.88ZM2456.67 1012.13C2462.83 1012.13 2467.5 1013.74 2470.67 1016.96 2473.84 1020.17 2475.43 1024.85 2475.43 1030.98 2475.43 1033.57 2475.16 1036.46 2474.6 1039.63 2474.05 1042.81 2473.14 1045.99 2471.89 1049.2 2470.63 1052.4 2469.08 1055.24 2467.25 1057.73 2465.41 1060.21 2463.29 1062.29 2460.88 1063.95 2458.48 1065.61 2455.89 1066.83 2453.12 1067.6 2450.35 1068.37 2447.39 1068.75 2444.23 1068.75 2438.07 1068.75 2433.42 1067.14 2430.28 1063.91 2427.15 1060.68 2425.58 1055.93 2425.58 1049.66 2425.58 1047.53 2425.8 1045.08 2426.23 1042.33 2426.66 1039.57 2427.39 1036.66 2428.42 1033.59 2429.45 1030.53 2430.87 1027.63 2432.68 1024.9 2434.49 1022.17 2436.61 1019.84 2439.06 1017.91 2441.5 1015.98 2444.23 1014.53 2447.23 1013.57 2450.22 1012.61 2453.37 1012.13 2456.67 1012.13Z" fill="#005828" fill-rule="evenodd"/><text fill="#000000" fill-opacity="0" font-family="Arial,Arial_MSFontService,sans-serif" font-size="56.6167" x="2425.58" y="1061.67">ğ‘¶</text><path d="M2490.93 1056.89C2492.38 1056.89 2493.5 1057.36 2494.29 1058.31 2495.08 1059.26 2495.47 1060.5 2495.47 1062.05 2495.47 1062.48 2495.44 1062.9 2495.39 1063.31 2495.33 1063.72 2495.22 1064.12 2495.06 1064.51L2495.42 1064.65C2497.27 1062.06 2499.13 1060.11 2500.98 1058.82 2502.84 1057.53 2504.74 1056.89 2506.69 1056.89 2508.76 1056.89 2510.31 1057.42 2511.34 1058.49 2512.36 1059.55 2512.88 1061.12 2512.88 1063.19 2512.88 1063.36 2512.88 1063.54 2512.88 1063.7 2512.88 1063.87 2512.86 1064.04 2512.82 1064.21L2512.93 1064.21C2514.75 1061.73 2516.56 1059.89 2518.35 1058.69 2520.15 1057.49 2522.03 1056.89 2523.98 1056.89 2526.05 1056.89 2527.6 1057.45 2528.62 1058.56 2529.65 1059.67 2530.16 1061.24 2530.16 1063.25 2530.16 1063.85 2530.06 1064.67 2529.87 1065.69 2529.67 1066.72 2529.43 1067.85 2529.15 1069.08 2528.87 1070.31 2528.56 1071.58 2528.23 1072.9 2527.9 1074.22 2527.58 1075.46 2527.29 1076.64 2527.11 1077.4 2526.97 1078.02 2526.87 1078.5 2526.76 1078.98 2526.68 1079.38 2526.62 1079.7 2526.56 1080.02 2526.52 1080.3 2526.5 1080.53 2526.48 1080.77 2526.47 1081.02 2526.47 1081.29 2526.47 1082.04 2526.61 1082.57 2526.88 1082.91 2527.15 1083.24 2527.59 1083.4 2528.2 1083.4 2528.55 1083.4 2528.9 1083.34 2529.25 1083.2 2529.6 1083.06 2529.98 1082.85 2530.38 1082.55 2530.78 1082.26 2531.22 1081.89 2531.7 1081.43 2532.18 1080.97 2532.71 1080.42 2533.3 1079.77L2535.32 1081.7C2534.38 1082.68 2533.51 1083.52 2532.7 1084.22 2531.89 1084.93 2531.1 1085.51 2530.35 1085.97 2529.6 1086.43 2528.85 1086.77 2528.11 1086.99 2527.37 1087.22 2526.59 1087.33 2525.77 1087.33 2525.02 1087.33 2524.35 1087.19 2523.75 1086.92 2523.14 1086.65 2522.63 1086.27 2522.21 1085.79 2521.79 1085.31 2521.46 1084.75 2521.23 1084.09 2520.99 1083.44 2520.87 1082.72 2520.87 1081.94 2520.87 1080.34 2521.22 1078.28 2521.9 1075.76 2522.27 1074.49 2522.61 1073.27 2522.91 1072.11 2523.21 1070.95 2523.47 1069.87 2523.69 1068.89 2523.9 1067.9 2524.07 1067.02 2524.2 1066.25 2524.33 1065.48 2524.39 1064.84 2524.39 1064.33 2524.39 1063.12 2524.16 1062.23 2523.7 1061.67 2523.24 1061.1 2522.52 1060.82 2521.55 1060.82 2520.94 1060.82 2520.3 1060.97 2519.61 1061.28 2518.93 1061.6 2518.24 1062.03 2517.55 1062.59 2516.86 1063.15 2516.18 1063.8 2515.51 1064.57 2514.85 1065.33 2514.23 1066.15 2513.67 1067.04 2513.1 1067.93 2512.6 1068.86 2512.16 1069.84 2511.72 1070.82 2511.38 1071.8 2511.15 1072.8L2508.25 1086.8 2502.53 1086.8C2502.81 1085.55 2503.12 1084.21 2503.46 1082.77 2503.8 1081.34 2504.15 1079.89 2504.5 1078.42 2504.85 1076.96 2505.19 1075.51 2505.51 1074.09 2505.83 1072.66 2506.12 1071.33 2506.37 1070.09 2506.63 1068.85 2506.83 1067.74 2506.99 1066.75 2507.14 1065.76 2507.22 1064.98 2507.22 1064.39 2507.22 1063.16 2506.98 1062.26 2506.5 1061.68 2506.03 1061.1 2505.26 1060.82 2504.2 1060.82 2503.27 1060.82 2502.26 1061.17 2501.19 1061.87 2500.11 1062.57 2499.09 1063.5 2498.13 1064.64 2497.16 1065.78 2496.29 1067.07 2495.53 1068.51 2494.77 1069.94 2494.23 1071.39 2493.92 1072.86L2490.93 1086.8 2485.19 1086.8 2489.59 1067.7C2489.84 1066.65 2490.02 1065.73 2490.14 1064.95 2490.26 1064.17 2490.32 1063.52 2490.32 1063.01 2490.32 1061.59 2489.74 1060.87 2488.59 1060.87 2488.24 1060.87 2487.88 1060.95 2487.52 1061.09 2487.16 1061.24 2486.78 1061.46 2486.38 1061.75 2485.98 1062.05 2485.54 1062.42 2485.07 1062.87 2484.6 1063.32 2484.08 1063.84 2483.49 1064.45L2481.47 1062.54C2482.43 1061.57 2483.31 1060.72 2484.12 1060.01 2484.93 1059.3 2485.71 1058.71 2486.47 1058.25 2487.22 1057.79 2487.95 1057.45 2488.68 1057.23 2489.4 1057 2490.15 1056.89 2490.93 1056.89Z" fill="#005828" fill-rule="evenodd"/><text fill="#000000" fill-opacity="0" font-family="Arial,Arial_MSFontService,sans-serif" font-size="30.4395" x="2481.47" y="1083.52">ğ‘š</text><path d="M2542.43 1080.01 2548.29 1080.01 2548.29 1086.8 2542.43 1086.8ZM2542.43 1060.35 2548.29 1060.35 2548.29 1067.2 2542.43 1067.2Z" fill="#005828" fill-rule="evenodd"/><text fill="#000000" fill-opacity="0" font-family="Arial,Arial_MSFontService,sans-serif" font-size="26.4551" x="2542.43" y="1083.5">:</text><path d="M2562.6 1048.8 2572.71 1048.8C2573.62 1051.25 2574.57 1053.7 2575.53 1056.17 2576.5 1058.64 2577.45 1061.11 2578.39 1063.57 2579.33 1066.03 2580.23 1068.46 2581.1 1070.85 2581.97 1073.24 2582.76 1075.58 2583.49 1077.87L2583.87 1077.87C2584.08 1076.62 2584.36 1075.14 2584.69 1073.43 2585.02 1071.72 2585.41 1069.95 2585.86 1068.11 2586.19 1066.72 2586.53 1065.3 2586.87 1063.83 2587.21 1062.37 2587.53 1060.96 2587.82 1059.61 2588.12 1058.27 2588.36 1057.02 2588.54 1055.88 2588.73 1054.74 2588.82 1053.79 2588.82 1053.05 2588.82 1052.19 2588.6 1051.58 2588.16 1051.22 2587.72 1050.86 2586.91 1050.67 2585.71 1050.65L2586.12 1048.8 2596.99 1048.8 2596.61 1050.56C2595.95 1050.76 2595.42 1050.93 2595.03 1051.07 2594.64 1051.22 2594.31 1051.5 2594.03 1051.92 2593.76 1052.34 2593.5 1052.95 2593.26 1053.76 2593.01 1054.56 2592.73 1055.71 2592.39 1057.21L2585.77 1086.8 2581.35 1086.8C2580.31 1084.15 2579.25 1081.47 2578.17 1078.78 2577.09 1076.08 2576.02 1073.38 2574.98 1070.69 2573.93 1067.99 2572.93 1065.32 2571.97 1062.66 2571.02 1060.01 2570.15 1057.39 2569.37 1054.81L2568.99 1054.81C2568.89 1055.42 2568.77 1056.12 2568.63 1056.92 2568.5 1057.72 2568.35 1058.58 2568.18 1059.51 2568.01 1060.44 2567.84 1061.39 2567.65 1062.37 2567.47 1063.35 2567.28 1064.32 2567.08 1065.3 2566.91 1066.04 2566.7 1066.91 2566.45 1067.89 2566.21 1068.88 2565.96 1069.93 2565.7 1071.06 2565.45 1072.18 2565.19 1073.32 2564.93 1074.47 2564.66 1075.62 2564.43 1076.72 2564.21 1077.76 2564 1078.81 2563.82 1079.76 2563.7 1080.62 2563.57 1081.48 2563.51 1082.15 2563.51 1082.64 2563.51 1083.46 2563.74 1084.04 2564.21 1084.39 2564.68 1084.73 2565.48 1084.94 2566.61 1085.02L2566.29 1086.8 2555.36 1086.8 2555.74 1085.02C2556.33 1084.92 2556.82 1084.8 2557.21 1084.66 2557.6 1084.53 2557.94 1084.25 2558.23 1083.83 2558.53 1083.41 2558.8 1082.78 2559.07 1081.94 2559.33 1081.1 2559.63 1079.92 2559.96 1078.39L2564.77 1057.04C2564.94 1056.26 2565.07 1055.53 2565.16 1054.85 2565.25 1054.18 2565.29 1053.58 2565.29 1053.05 2565.29 1052.19 2565.07 1051.58 2564.62 1051.22 2564.17 1050.86 2563.35 1050.67 2562.16 1050.65Z" fill="#005828" fill-rule="evenodd"/><text fill="#000000" fill-opacity="0" font-family="Arial,Arial_MSFontService,sans-serif" font-size="37.998" x="2555.36" y="1082.05">ğ‘</text><path d="M2512.09 1006.15C2512.57 1006.15 2513.08 1006.2 2513.59 1006.28 2514.11 1006.37 2514.56 1006.5 2514.93 1006.68L2513.52 1012.86 2510.85 1012.86C2510.82 1012.45 2510.72 1012.11 2510.56 1011.84 2510.41 1011.56 2510.1 1011.43 2509.65 1011.43 2509.42 1011.45 2509.2 1011.48 2508.99 1011.51 2508.79 1011.55 2508.55 1011.65 2508.29 1011.79 2508.03 1011.94 2507.71 1012.15 2507.32 1012.44 2506.94 1012.72 2506.47 1013.11 2505.92 1013.59 2505.36 1014.08 2504.68 1014.69 2503.88 1015.43 2503.08 1016.16 2502.13 1017.05 2501.04 1018.11L2504.32 1028.3C2504.59 1029.18 2504.83 1029.9 2505.04 1030.47 2505.24 1031.04 2505.46 1031.48 2505.68 1031.8 2505.91 1032.12 2506.16 1032.35 2506.43 1032.48 2506.7 1032.6 2507.04 1032.67 2507.43 1032.67 2507.99 1032.67 2508.65 1032.41 2509.39 1031.89 2510.13 1031.37 2511.05 1030.51 2512.14 1029.3L2514.08 1031.2C2512.32 1033.12 2510.73 1034.49 2509.3 1035.33 2507.88 1036.17 2506.48 1036.59 2505.11 1036.59 2504.35 1036.59 2503.68 1036.49 2503.09 1036.3 2502.51 1036.1 2501.98 1035.79 2501.52 1035.35 2501.06 1034.91 2500.65 1034.33 2500.29 1033.62 2499.93 1032.91 2499.59 1032.04 2499.28 1031.03L2496.44 1021.42C2495.7 1021.89 2494.96 1022.31 2494.21 1022.68 2493.47 1023.05 2492.76 1023.35 2492.08 1023.58L2489.41 1036.06 2483.67 1036.06 2488.38 1014.82C2488.52 1014.24 2488.63 1013.72 2488.71 1013.26 2488.78 1012.8 2488.84 1012.37 2488.88 1011.98 2488.94 1011.65 2488.97 1011.34 2488.96 1011.06 2488.95 1010.78 2488.92 1010.53 2488.88 1010.31 2488.76 1009.77 2488.44 1009.38 2487.9 1009.16 2487.36 1008.93 2486.58 1008.8 2485.54 1008.76L2485.89 1006.77 2493.75 1006.45 2495.77 1006.45 2492.75 1020.39C2494.04 1019.77 2495.49 1018.79 2497.11 1017.46 2498.74 1016.13 2500.46 1014.54 2502.3 1012.69 2503.45 1011.49 2504.47 1010.48 2505.35 1009.65 2506.23 1008.82 2507.04 1008.15 2507.78 1007.63 2508.52 1007.11 2509.23 1006.74 2509.92 1006.5 2510.6 1006.27 2511.32 1006.15 2512.09 1006.15Z" fill="#005828" fill-rule="evenodd"/><text fill="#000000" fill-opacity="0" font-family="Arial,Arial_MSFontService,sans-serif" font-size="30.4395" x="2483.67" y="1032.79">ğœ…</text><path d="M2522.92 1016.67 2556.67 1016.67 2556.67 1021.15 2522.92 1021.15Z" fill="#005828" fill-rule="evenodd"/><text fill="#000000" fill-opacity="0" font-family="Arial,Arial_MSFontService,sans-serif" font-size="4.48242" x="2522.92" y="1020.59">âˆ’</text><path d="M2581.28 998.331 2583.07 998.331C2583.03 999.405 2583 1000.37 2582.98 1001.22 2582.96 1002.07 2582.95 1002.89 2582.94 1003.69 2582.93 1004.49 2582.92 1005.28 2582.92 1006.06L2582.92 1028.33C2582.92 1028.94 2582.94 1029.46 2582.98 1029.9 2583.02 1030.34 2583.09 1030.71 2583.17 1031.01 2583.26 1031.31 2583.38 1031.57 2583.53 1031.79 2583.67 1032 2583.84 1032.19 2584.04 1032.34 2584.27 1032.58 2584.58 1032.76 2584.98 1032.89 2585.37 1033.01 2585.86 1033.12 2586.47 1033.21 2587.07 1033.3 2587.8 1033.36 2588.65 1033.41 2589.5 1033.46 2590.52 1033.5 2591.71 1033.52L2591.71 1036.06 2568.48 1036.06 2568.48 1033.52C2569.63 1033.48 2570.61 1033.43 2571.41 1033.38 2572.21 1033.34 2572.9 1033.27 2573.46 1033.18 2574.03 1033.09 2574.48 1032.99 2574.82 1032.89 2575.17 1032.78 2575.46 1032.65 2575.72 1032.49 2575.99 1032.31 2576.23 1032.12 2576.42 1031.92 2576.62 1031.71 2576.77 1031.46 2576.89 1031.14 2577.01 1030.83 2577.1 1030.45 2577.17 1030 2577.24 1029.55 2577.27 1028.99 2577.27 1028.33L2577.27 1007.32C2577.27 1006.56 2577.12 1006.03 2576.83 1005.71 2576.54 1005.4 2576.12 1005.24 2575.57 1005.24 2574.97 1005.24 2574.07 1005.56 2572.88 1006.18 2571.68 1006.81 2570.14 1007.73 2568.25 1008.97 2567.99 1008.52 2567.76 1008.07 2567.54 1007.62 2567.33 1007.17 2567.1 1006.71 2566.87 1006.24 2569.29 1004.91 2571.69 1003.59 2574.06 1002.27 2576.44 1000.95 2578.84 999.639 2581.28 998.331Z" fill="#005828" fill-rule="evenodd"/><text fill="#000000" fill-opacity="0" font-family="Arial,Arial_MSFontService,sans-serif" font-size="37.7344" x="2566.87" y="1031.35">1</text><path d="M2511.5 1917.15 2510.28 1790.45 2517.16 1790.38 2518.37 1917.08ZM2500.01 1795.13 2513.5 1767.5 2527.51 1794.87Z" fill="#005828"/><path d="M3.4375-1.00774e-05 3.43779 100.187-3.43721 100.187-3.4375 1.00774e-05ZM13.7503 95.604 0.000360892 123.104-13.7497 95.604Z" fill="#005828" transform="matrix(1 0 0 -1 2513.5 1588.6)"/><path d="M3.43749-0.00762195 3.75082 141.303-3.12416 141.318-3.43749 0.00762195ZM14.0531 136.697 0.36414 164.227-13.4468 136.758Z" fill="#005828" transform="matrix(1 0 0 -1 2513.5 1258.73)"/><rect x="2208" y="1555" width="610" height="210" fill="#D9D9D9"/><text fill="#005828" font-family="Aptos,Aptos_MSFontService,sans-serif" font-weight="400" font-size="55" transform="matrix(1 0 0 1 2417.5 1645)">(causal)</text><text fill="#005828" font-family="Aptos,Aptos_MSFontService,sans-serif" font-weight="400" font-size="55" transform="matrix(1 0 0 1 2334.45 1711)">cross </text><text fill="#005828" font-family="Aptos,Aptos_MSFontService,sans-serif" font-weight="400" font-size="55" transform="matrix(1 0 0 1 2476.35 1711)">attention</text><path d="M2225.5 1589C2225.5 1580.99 2231.99 1574.5 2240 1574.5 2248.01 1574.5 2254.5 1580.99 2254.5 1589 2254.5 1597.01 2248.01 1603.5 2240 1603.5 2231.99 1603.5 2225.5 1597.01 2225.5 1589Z" stroke="#005828" stroke-width="6.875" stroke-miterlimit="8" fill="#EEF9EB" fill-rule="evenodd"/><path d="M2277.5 1589C2277.5 1580.99 2283.99 1574.5 2292 1574.5 2300.01 1574.5 2306.5 1580.99 2306.5 1589 2306.5 1597.01 2300.01 1603.5 2292 1603.5 2283.99 1603.5 2277.5 1597.01 2277.5 1589Z" stroke="#005828" stroke-width="6.875" stroke-miterlimit="8" fill="#83CBEB" fill-rule="evenodd"/><path d="M2225.5 1639C2225.5 1630.99 2231.99 1624.5 2240 1624.5 2248.01 1624.5 2254.5 1630.99 2254.5 1639 2254.5 1647.01 2248.01 1653.5 2240 1653.5 2231.99 1653.5 2225.5 1647.01 2225.5 1639Z" stroke="#005828" stroke-width="6.875" stroke-miterlimit="8" fill="#EEF9EB" fill-rule="evenodd"/><path d="M2277.5 1639C2277.5 1630.99 2283.99 1624.5 2292 1624.5 2300.01 1624.5 2306.5 1630.99 2306.5 1639 2306.5 1647.01 2300.01 1653.5 2292 1653.5 2283.99 1653.5 2277.5 1647.01 2277.5 1639Z" stroke="#005828" stroke-width="6.875" stroke-miterlimit="8" fill="#83CBEB" fill-rule="evenodd"/><path d="M2225.5 1738.5C2225.5 1730.77 2231.99 1724.5 2240 1724.5 2248.01 1724.5 2254.5 1730.77 2254.5 1738.5 2254.5 1746.23 2248.01 1752.5 2240 1752.5 2231.99 1752.5 2225.5 1746.23 2225.5 1738.5Z" stroke="#005828" stroke-width="6.875" stroke-miterlimit="8" fill="#EEF9EB" fill-rule="evenodd"/><path d="M2225.5 1694C2225.5 1685.99 2231.99 1679.5 2240 1679.5 2248.01 1679.5 2254.5 1685.99 2254.5 1694 2254.5 1702.01 2248.01 1708.5 2240 1708.5 2231.99 1708.5 2225.5 1702.01 2225.5 1694Z" stroke="#005828" stroke-width="6.875" stroke-miterlimit="8" fill="#EEF9EB" fill-rule="evenodd"/><path d="M2280.5 1694C2280.5 1685.99 2286.99 1679.5 2295 1679.5 2303.01 1679.5 2309.5 1685.99 2309.5 1694 2309.5 1702.01 2303.01 1708.5 2295 1708.5 2286.99 1708.5 2280.5 1702.01 2280.5 1694Z" stroke="#005828" stroke-width="6.875" stroke-miterlimit="8" fill="#83CBEB" fill-rule="evenodd"/><path d="M2280.5 1740.5C2280.5 1732.77 2286.99 1726.5 2295 1726.5 2303.01 1726.5 2309.5 1732.77 2309.5 1740.5 2309.5 1748.23 2303.01 1754.5 2295 1754.5 2286.99 1754.5 2280.5 1748.23 2280.5 1740.5Z" stroke="#005828" stroke-width="6.875" stroke-miterlimit="8" fill="#83CBEB" fill-rule="evenodd"/><path d="M2254 1693 2279.54 1733.97" stroke="#005828" stroke-width="2.29167" stroke-miterlimit="8" fill="none" fill-rule="evenodd"/><path d="M0 0 22.8835 0.000360892" stroke="#005828" stroke-width="2.29167" stroke-miterlimit="8" fill="none" fill-rule="evenodd" transform="matrix(-1 0 0 1 2279.88 1738)"/><path d="M2254 1639 2280.73 1739.24" stroke="#005828" stroke-width="2.29167" stroke-miterlimit="8" fill="none" fill-rule="evenodd"/><path d="M2254 1588 2276.58 1734.22" stroke="#005828" stroke-width="2.29167" stroke-miterlimit="8" fill="none" fill-rule="evenodd"/><path d="M0 0 22.8835 0.000360892" stroke="#005828" stroke-width="2.29167" stroke-miterlimit="8" fill="none" fill-rule="evenodd" transform="matrix(-1 0 0 1 2279.88 1693)"/><path d="M2279.41 1693.85 2254 1639" stroke="#005828" stroke-width="2.29167" stroke-miterlimit="8" fill="none" fill-rule="evenodd"/><path d="M2279.32 1693.26 2254 1588" stroke="#005828" stroke-width="2.29167" stroke-miterlimit="8" fill="none" fill-rule="evenodd"/><path d="M0 0 20.726 0.442454" stroke="#005828" stroke-width="2.29167" stroke-miterlimit="8" fill="none" fill-rule="evenodd" transform="matrix(-1 0 0 1 2274.73 1638)"/><path d="M2276.66 1637.97 2254 1588" stroke="#005828" stroke-width="2.29167" stroke-miterlimit="8" fill="none" fill-rule="evenodd"/><path d="M0 0 22.8835 0.000360892" stroke="#005828" stroke-width="2.29167" stroke-miterlimit="8" fill="none" fill-rule="evenodd" transform="matrix(-1 0 0 1 2274.88 1589)"/><text font-family="Aptos,Aptos_MSFontService,sans-serif" font-weight="400" font-size="48" transform="matrix(-1.83697e-16 -1 1 -1.83697e-16 2087.59 1767)">Linear action/time embedding</text><path d="M2112.43 1819.95 2109.5 1152.5" stroke="#005828" stroke-width="6.875" stroke-miterlimit="8" fill="none" fill-rule="evenodd"/><path d="M2115.5 1657.06 2185.95 1657.06 2185.95 1663.94 2115.5 1663.94ZM2181.37 1646.75 2208.87 1660.5 2181.37 1674.25Z" fill="#005828"/><text font-family="Aptos,Aptos_MSFontService,sans-serif" font-weight="400" font-size="48" transform="matrix(1 0 0 1 2192.31 1957)">Linear </text><text font-family="Aptos,Aptos_MSFontService,sans-serif" font-weight="400" font-size="48" transform="matrix(1 0 0 1 2330.96 1957)">observatio</text><text font-family="Aptos,Aptos_MSFontService,sans-serif" font-weight="400" font-size="48" transform="matrix(1 0 0 1 2549.81 1957)">n</text><text font-family="Aptos,Aptos_MSFontService,sans-serif" font-weight="400" font-size="48" transform="matrix(1 0 0 1 2585.91 1957)">embedding</text><rect x="2203" y="1258" width="609" height="210" fill="#D9D9D9"/><text fill="#005828" font-family="Aptos,Aptos_MSFontService,sans-serif" font-weight="400" font-size="55" transform="matrix(1 0 0 1 2411.93 1348)">(causal</text><text fill="#005828" font-family="Aptos,Aptos_MSFontService,sans-serif" font-weight="400" font-size="55" transform="matrix(1 0 0 1 2586.93 1348)">)</text><text fill="#005828" font-family="Aptos,Aptos_MSFontService,sans-serif" font-weight="400" font-size="55" transform="matrix(1 0 0 1 2328.88 1414)">cross </text><text fill="#005828" font-family="Aptos,Aptos_MSFontService,sans-serif" font-weight="400" font-size="55" transform="matrix(1 0 0 1 2470.78 1414)">attention</text><path d="M3.4375-1.27558e-06 3.43785 949.634-3.43715 949.634-3.4375 1.27558e-06ZM13.7504 945.049 0.000360892 972.549-13.7496 945.049Z" fill="#005828" transform="matrix(1 0 0 -1 3093.5 1972.05)"/><rect x="3061" y="1440" width="97" height="134" fill="#FFFFFF"/><path d="M3122.84 1497.6C3121.81 1497.6 3120.83 1497.78 3119.9 1498.15 3118.97 1498.51 3118 1499.13 3116.98 1500.01 3115.97 1500.89 3115 1502.07 3114.09 1503.56 3113.17 1505.04 3112.34 1506.79 3111.61 1508.81 3110.88 1510.82 3110.18 1513.39 3109.51 1516.53L3108.09 1523.05C3108.03 1523.35 3107.97 1523.78 3107.91 1524.33 3107.84 1524.88 3107.8 1525.39 3107.8 1525.85 3107.8 1527.58 3108.51 1528.91 3109.93 1529.84 3111.35 1530.77 3113.23 1531.24 3115.58 1531.24 3118.37 1531.24 3120.83 1530.11 3122.98 1527.85 3125.13 1525.6 3126.8 1522.49 3127.99 1518.53 3129.18 1514.58 3129.77 1510.64 3129.77 1506.72 3129.77 1504.96 3129.59 1503.43 3129.22 1502.12 3128.86 1500.81 3128.16 1499.73 3127.14 1498.88 3126.11 1498.03 3124.68 1497.6 3122.84 1497.6ZM3123.89 1494.4C3126.51 1494.4 3128.82 1494.93 3130.82 1496 3132.82 1497.07 3134.34 1498.61 3135.36 1500.64 3136.39 1502.67 3136.9 1505.15 3136.9 1508.1 3136.9 1512.69 3136 1517.05 3134.21 1521.17 3132.41 1525.29 3129.91 1528.53 3126.71 1530.89 3123.51 1533.26 3119.92 1534.44 3115.95 1534.44 3114.11 1534.44 3112.37 1534.28 3110.72 1533.95 3109.07 1533.63 3107.43 1533.08 3105.78 1532.29L3101.56 1551.3 3094.92 1551.3 3103.14 1514.62C3104.12 1510.3 3105.51 1506.68 3107.32 1503.76 3109.13 1500.84 3111.42 1498.55 3114.21 1496.89 3116.99 1495.23 3120.22 1494.4 3123.89 1494.4Z" fill-rule="evenodd"/><text fill="#000000" fill-opacity="0" font-family="Arial,Arial_MSFontService,sans-serif" font-size="56.9004" x="3094.92" y="1544.19">ğœŒ</text><path d="M2892.57 2022.88 3004.4 2022.88 3000.97 2026.32 3000.97 1040.5 3004.4 1043.94 2848.42 1043.94 2848.42 1037.06 3007.84 1037.06 3007.84 2029.75 2892.57 2029.75ZM2853 1054.25 2825.5 1040.5 2853 1026.75Z" fill="#005828"/><rect x="2968" y="1443" width="97" height="133" fill="#FFFFFF"/><path d="M3040.9 1496.77C3042.35 1496.77 3043.46 1496.93 3044.22 1497.26L3042.48 1505.04 3039.36 1505.04C3039.3 1504.5 3039.16 1504.05 3038.93 1503.7 3038.7 1503.35 3038.27 1503.17 3037.65 1503.17 3037.09 1503.17 3036.4 1503.42 3035.61 1503.9 3034.81 1504.39 3033.74 1505.23 3032.4 1506.44 3031.07 1507.64 3029.07 1509.55 3026.43 1512.17L3030.89 1526.96C3031.48 1528.91 3032.05 1530.27 3032.61 1531.04 3033.16 1531.81 3033.94 1532.19 3034.94 1532.19 3035.64 1532.19 3036.38 1531.93 3037.15 1531.4 3037.92 1530.87 3039.02 1529.84 3040.45 1528.3L3042.8 1530.49C3040.8 1532.68 3038.92 1534.28 3037.15 1535.31 3035.38 1536.34 3033.61 1536.85 3031.86 1536.85 3029.99 1536.85 3028.49 1536.27 3027.36 1535.11 3026.22 1533.95 3025.27 1532.04 3024.48 1529.39L3020.83 1516.55C3018.92 1517.98 3016.98 1519.06 3015.04 1519.79L3011.51 1536.2 3004.46 1536.2 3010.82 1507.75C3011.28 1505.7 3011.51 1504.09 3011.51 1502.93 3011.51 1501.66 3011.22 1500.8 3010.62 1500.34 3010.03 1499.88 3008.89 1499.63 3007.22 1499.61L3007.66 1497.46 3017.51 1497.09 3019.94 1497.09 3015.73 1516.1C3017.05 1515.56 3018.86 1514.28 3021.14 1512.27 3023.42 1510.26 3025.9 1507.83 3028.57 1505 3030.93 1502.51 3032.7 1500.76 3033.9 1499.75 3035.11 1498.74 3036.25 1497.99 3037.35 1497.5 3038.44 1497.01 3039.63 1496.77 3040.9 1496.77Z" fill-rule="evenodd"/><text fill="#000000" fill-opacity="0" font-family="Arial,Arial_MSFontService,sans-serif" font-size="40.0815" x="3004.46" y="1531.84">ğœ…</text><path d="M2223.5 1291.5C2223.5 1283.77 2229.99 1277.5 2238 1277.5 2246.01 1277.5 2252.5 1283.77 2252.5 1291.5 2252.5 1299.23 2246.01 1305.5 2238 1305.5 2229.99 1305.5 2223.5 1299.23 2223.5 1291.5Z" stroke="#005828" stroke-width="6.875" stroke-miterlimit="8" fill="#EEF9EB" fill-rule="evenodd"/><path d="M2275.5 1291.5C2275.5 1283.77 2281.99 1277.5 2290 1277.5 2298.01 1277.5 2304.5 1283.77 2304.5 1291.5 2304.5 1299.23 2298.01 1305.5 2290 1305.5 2281.99 1305.5 2275.5 1299.23 2275.5 1291.5Z" stroke="#005828" stroke-width="6.875" stroke-miterlimit="8" fill="#83CBEB" fill-rule="evenodd"/><path d="M2223.5 1342C2223.5 1333.99 2229.99 1327.5 2238 1327.5 2246.01 1327.5 2252.5 1333.99 2252.5 1342 2252.5 1350.01 2246.01 1356.5 2238 1356.5 2229.99 1356.5 2223.5 1350.01 2223.5 1342Z" stroke="#005828" stroke-width="6.875" stroke-miterlimit="8" fill="#EEF9EB" fill-rule="evenodd"/><path d="M2275.5 1342C2275.5 1333.99 2281.99 1327.5 2290 1327.5 2298.01 1327.5 2304.5 1333.99 2304.5 1342 2304.5 1350.01 2298.01 1356.5 2290 1356.5 2281.99 1356.5 2275.5 1350.01 2275.5 1342Z" stroke="#005828" stroke-width="6.875" stroke-miterlimit="8" fill="#83CBEB" fill-rule="evenodd"/><path d="M2223.5 1441C2223.5 1432.99 2229.99 1426.5 2238 1426.5 2246.01 1426.5 2252.5 1432.99 2252.5 1441 2252.5 1449.01 2246.01 1455.5 2238 1455.5 2229.99 1455.5 2223.5 1449.01 2223.5 1441Z" stroke="#005828" stroke-width="6.875" stroke-miterlimit="8" fill="#EEF9EB" fill-rule="evenodd"/><path d="M2223.5 1397C2223.5 1388.99 2229.99 1382.5 2238 1382.5 2246.01 1382.5 2252.5 1388.99 2252.5 1397 2252.5 1405.01 2246.01 1411.5 2238 1411.5 2229.99 1411.5 2223.5 1405.01 2223.5 1397Z" stroke="#005828" stroke-width="6.875" stroke-miterlimit="8" fill="#EEF9EB" fill-rule="evenodd"/><path d="M2277.5 1397C2277.5 1388.99 2283.99 1382.5 2292 1382.5 2300.01 1382.5 2306.5 1388.99 2306.5 1397 2306.5 1405.01 2300.01 1411.5 2292 1411.5 2283.99 1411.5 2277.5 1405.01 2277.5 1397Z" stroke="#005828" stroke-width="6.875" stroke-miterlimit="8" fill="#83CBEB" fill-rule="evenodd"/><path d="M2277.5 1443C2277.5 1434.99 2283.99 1428.5 2292 1428.5 2300.01 1428.5 2306.5 1434.99 2306.5 1443 2306.5 1451.01 2300.01 1457.5 2292 1457.5 2283.99 1457.5 2277.5 1451.01 2277.5 1443Z" stroke="#005828" stroke-width="6.875" stroke-miterlimit="8" fill="#83CBEB" fill-rule="evenodd"/><path d="M2252 1396 2277.54 1436.97" stroke="#005828" stroke-width="2.29167" stroke-miterlimit="8" fill="none" fill-rule="evenodd"/><path d="M0 0 22.8835 0.000360892" stroke="#005828" stroke-width="2.29167" stroke-miterlimit="8" fill="none" fill-rule="evenodd" transform="matrix(-1 0 0 1 2276.88 1440)"/><path d="M2252 1341 2278.73 1441.24" stroke="#005828" stroke-width="2.29167" stroke-miterlimit="8" fill="none" fill-rule="evenodd"/><path d="M2252 1291 2274.58 1437.22" stroke="#005828" stroke-width="2.29167" stroke-miterlimit="8" fill="none" fill-rule="evenodd"/><path d="M0 0 22.8835 0.000360892" stroke="#005828" stroke-width="2.29167" stroke-miterlimit="8" fill="none" fill-rule="evenodd" transform="matrix(-1 0 0 1 2276.88 1396)"/><path d="M2277.41 1395.85 2252 1341" stroke="#005828" stroke-width="2.29167" stroke-miterlimit="8" fill="none" fill-rule="evenodd"/><path d="M2277.32 1396.26 2252 1291" stroke="#005828" stroke-width="2.29167" stroke-miterlimit="8" fill="none" fill-rule="evenodd"/><path d="M0 0 20.726 0.442454" stroke="#005828" stroke-width="2.29167" stroke-miterlimit="8" fill="none" fill-rule="evenodd" transform="matrix(-1 0 0 1 2272.73 1341)"/><path d="M2274.66 1340.97 2252 1291" stroke="#005828" stroke-width="2.29167" stroke-miterlimit="8" fill="none" fill-rule="evenodd"/><path d="M0 0 22.8835 0.000360892" stroke="#005828" stroke-width="2.29167" stroke-miterlimit="8" fill="none" fill-rule="evenodd" transform="matrix(-1 0 0 1 2272.88 1292)"/><path d="M2113.5 1360.06 2183.95 1360.06 2183.95 1366.94 2113.5 1366.94ZM2179.37 1349.75 2206.87 1363.5 2179.37 1377.25Z" fill="#005828"/><text fill="#005828" font-family="Aptos,Aptos_MSFontService,sans-serif" font-weight="400" font-size="55" transform="matrix(1 0 0 1 1891.36 1853)">Global</text><text fill="#005828" font-family="Aptos,Aptos_MSFontService,sans-serif" font-weight="400" font-size="55" transform="matrix(1 0 0 1 1914.42 1919)">F</text><text fill="#005828" font-family="Aptos,Aptos_MSFontService,sans-serif" font-weight="400" font-size="55" transform="matrix(1 0 0 1 1942.24 1919)">iLM</text><text fill="#005828" font-family="Aptos,Aptos_MSFontService,sans-serif" font-weight="400" font-size="55" transform="matrix(1 0 0 1 1818.03 1985)">Conditioning</text><rect x="1923.5" y="1191.5" width="115" height="272" stroke="#005828" stroke-width="6.875" stroke-miterlimit="8" fill="none"/><path d="M1959.57 1336.84 1959.57 1331.24 1969.58 1333.47 1969.58 1321.15 1973.68 1322.04 1973.68 1334.36 1989.4 1337.97C1992.46 1338.67 1994.65 1339.12 1995.99 1339.31 1997.33 1339.5 1998.4 1339.59 1999.21 1339.59 2002.56 1339.59 2004.24 1338.2 2004.24 1335.42 2004.24 1334.23 2003.78 1332.97 2002.88 1331.63 2001.97 1330.29 2000.43 1328.7 1998.24 1326.87L2000.67 1324.52C2003.51 1326.87 2005.6 1329.13 2006.95 1331.3 2008.3 1333.48 2008.98 1335.76 2008.98 1338.13 2008.98 1343.78 2006.13 1346.6 2000.43 1346.6 1998.62 1346.6 1996.71 1346.37 1994.71 1345.91L1973.68 1341.13 1973.68 1347.94 1970.88 1347.33C1970.85 1345.74 1970.73 1344.53 1970.52 1343.71 1970.3 1342.88 1970 1342.19 1969.63 1341.64 1969.25 1341.09 1968.71 1340.58 1968 1340.12 1967.3 1339.66 1966.4 1339.21 1965.31 1338.78 1964.22 1338.35 1962.3 1337.7 1959.57 1336.84Z" fill="#005828" fill-rule="evenodd"/><text fill="#000000" fill-opacity="0" font-family="Arial,Arial_MSFontService,sans-serif" font-size="26.7886" x="1959.57" y="1344.59">ğ‘¡</text></g></svg>