<svg width="2920" height="1260" xmlns="http://www.w3.org/2000/svg" xmlns:xlink="http://www.w3.org/1999/xlink" xml:space="preserve" overflow="hidden"><g transform="translate(-723 -557)"><rect x="726.5" y="647.5" width="743" height="235" stroke="#042433" stroke-width="6.875" stroke-miterlimit="8" fill="#EEF9EB"/><rect x="1620.5" y="645.5" width="2019" height="237" stroke="#042433" stroke-width="6.875" stroke-miterlimit="8" fill="#EEF9EB"/><path d="M807.5 1109.5C807.5 1090.72 822.722 1075.5 841.499 1075.5L3523.5 1075.5C3542.28 1075.5 3557.5 1090.72 3557.5 1109.5L3557.5 1245.5C3557.5 1264.28 3542.28 1279.5 3523.5 1279.5L841.499 1279.5C822.722 1279.5 807.5 1264.28 807.5 1245.5Z" stroke="#042433" stroke-width="6.875" stroke-miterlimit="8" fill="#D9F2D0" fill-rule="evenodd"/><rect x="1172.5" y="1470.5" width="2019" height="237" stroke="#042433" stroke-width="6.875" stroke-miterlimit="8" fill="#EEF9EB"/><text font-family="Aptos,Aptos_MSFontService,sans-serif" font-weight="400" font-size="64" transform="matrix(1 0 0 1 764.042 635)">Feedforward Dynamics</text><text font-family="Aptos,Aptos_MSFontService,sans-serif" font-weight="400" font-size="64" transform="matrix(1 0 0 1 2334.98 635)">Feedback Dynamics</text><text font-family="Aptos,Aptos_MSFontService,sans-serif" font-weight="400" font-size="64" transform="matrix(1 0 0 1 1746.59 1760)">Cartesian and Joint Kinematics</text><text font-family="Aptos,Aptos_MSFontService,sans-serif" font-weight="700" font-size="64" transform="matrix(1 0 0 1 1821.65 1197)">Metalearned Mapping</text><rect x="807" y="674" width="586" height="186" fill="#D9D9D9"/><text font-family="Aptos,Aptos_MSFontService,sans-serif" font-weight="400" font-size="64" transform="matrix(1 0 0 1 1035.83 749)">Joint</text><text font-family="Aptos,Aptos_MSFontService,sans-serif" font-weight="400" font-size="64" transform="matrix(1 0 0 1 990.71 826)">Torques</text><rect x="1689" y="671" width="587" height="186" fill="#D9D9D9"/><text font-family="Aptos,Aptos_MSFontService,sans-serif" font-weight="400" font-size="64" transform="matrix(1 0 0 1 1918.12 746)">Joint </text><text font-family="Aptos,Aptos_MSFontService,sans-serif" font-weight="400" font-size="64" transform="matrix(1 0 0 1 1873 823)">Torques</text><rect x="2339" y="674" width="586" height="186" fill="#D9D9D9"/><text font-family="Aptos,Aptos_MSFontService,sans-serif" font-weight="400" font-size="64" transform="matrix(1 0 0 1 2517.5 749)">Tracking</text><text font-family="Aptos,Aptos_MSFontService,sans-serif" font-weight="400" font-size="64" transform="matrix(1 0 0 1 2495.98 826)">Trajectory</text><rect x="2988" y="671" width="587" height="186" fill="#D9D9D9"/><text font-family="Aptos,Aptos_MSFontService,sans-serif" font-weight="400" font-size="64" transform="matrix(1 0 0 1 3141.45 746)">Controller </text><text font-family="Aptos,Aptos_MSFontService,sans-serif" font-weight="400" font-size="64" transform="matrix(1 0 0 1 3200.9 823)">Gains</text><rect x="1241" y="1495" width="587" height="186" fill="#D9D9D9"/><text font-family="Aptos,Aptos_MSFontService,sans-serif" font-weight="400" font-size="64" transform="matrix(1 0 0 1 1398.94 1570)">Cartesian </text><text font-family="Aptos,Aptos_MSFontService,sans-serif" font-weight="400" font-size="64" transform="matrix(1 0 0 1 1422.33 1647)">Position</text><rect x="1891" y="1499" width="586" height="185" fill="#D9D9D9"/><text font-family="Aptos,Aptos_MSFontService,sans-serif" font-weight="400" font-size="64" transform="matrix(1 0 0 1 2048.61 1574)">Cartesian </text><text font-family="Aptos,Aptos_MSFontService,sans-serif" font-weight="400" font-size="64" transform="matrix(1 0 0 1 2026.82 1651)">Orientation</text><rect x="2540" y="1495" width="587" height="186" fill="#D9D9D9"/><text font-family="Aptos,Aptos_MSFontService,sans-serif" font-weight="400" font-size="64" transform="matrix(1 0 0 1 2769.48 1570)">Joint </text><text font-family="Aptos,Aptos_MSFontService,sans-serif" font-weight="400" font-size="64" transform="matrix(1 0 0 1 2721.7 1647)">Position</text><path d="M807.5 966.5 3557.5 966.5" stroke="#156082" stroke-width="6.875" stroke-miterlimit="8" fill="none" fill-rule="evenodd"/><path d="M2185.94 966.5 2185.94 1052.74 2179.06 1052.74 2179.06 966.5ZM2196.25 1048.15 2182.5 1075.65 2168.75 1048.15Z" fill="#005828"/><path d="M2185.94 1279.5 2185.94 1447.36 2179.06 1447.36 2179.06 1279.5ZM2196.25 1442.78 2182.5 1470.28 2168.75 1442.78Z" fill="#005828"/></g></svg>