<svg width="2008" height="1390" xmlns="http://www.w3.org/2000/svg" xmlns:xlink="http://www.w3.org/1999/xlink" xml:space="preserve" overflow="hidden"><g transform="translate(-1089 -708)"><path d="M1178.5 1914.5 1997.96 1914.5" stroke="#005828" stroke-width="6.875" stroke-miterlimit="8" fill="none" fill-rule="evenodd"/><rect x="2882" y="1238" width="94.9998" height="581" fill="#FFFFFF"/><text font-family="Arial,Arial_MSFontService,sans-serif" font-weight="400" font-size="48" transform="matrix(6.12323e-17 1 -1 6.12323e-17 2915.2 1299)">Transformer Decoder</text><rect x="1165" y="1234" width="94.9999" height="582" fill="#FFFFFF"/><text font-family="Arial,Arial_MSFontService,sans-serif" font-weight="400" font-size="48" transform="matrix(-1.83697e-16 -1 1 -1.83697e-16 1226.78 1753)">Transformer Encoder</text><rect x="1240.5" y="1207.5" width="758" height="669" stroke="#005828" stroke-width="6.875" stroke-miterlimit="8" fill="#EEF9EB"/><rect x="2134.5" y="875.5" width="758" height="1001" stroke="#005828" stroke-width="6.875" stroke-miterlimit="8" fill="#EEF9EB"/><rect x="1314" y="1606" width="610" height="210" fill="#D9D9D9"/><text fill="#005828" font-family="Aptos,Aptos_MSFontService,sans-serif" font-weight="400" font-size="55" transform="matrix(1 0 0 1 1462.12 1729)">s</text><text fill="#005828" font-family="Aptos,Aptos_MSFontService,sans-serif" font-weight="400" font-size="55" transform="matrix(1 0 0 1 1489.05 1729)">elf attentio</text><text fill="#005828" font-family="Aptos,Aptos_MSFontService,sans-serif" font-weight="400" font-size="55" transform="matrix(1 0 0 1 1745.54 1729)">n</text><path d="M1314 1273 1924 1273 1737.75 1483 1504.76 1483 1314 1273Z" fill="#D9D9D9" fill-rule="evenodd"/><text fill="#005828" font-family="Aptos,Aptos_MSFontService,sans-serif" font-weight="400" font-size="55" transform="matrix(1 0 0 1 1424.11 1363)">f</text><text fill="#005828" font-family="Aptos,Aptos_MSFontService,sans-serif" font-weight="400" font-size="55" transform="matrix(1 0 0 1 1440.03 1363)">eedforward and</text><text fill="#005828" font-family="Aptos,Aptos_MSFontService,sans-serif" font-weight="400" font-size="55" transform="matrix(1 0 0 1 1501.4 1429)">normaliz</text><text fill="#005828" font-family="Aptos,Aptos_MSFontService,sans-serif" font-weight="400" font-size="55" transform="matrix(1 0 0 1 1707.4 1429)">e</text><rect x="2208" y="1273" width="610" height="210" fill="#D9D9D9"/><text fill="#005828" font-family="Aptos,Aptos_MSFontService,sans-serif" font-weight="400" font-size="55" transform="matrix(1 0 0 1 2334.45 1396)">cross </text><text fill="#005828" font-family="Aptos,Aptos_MSFontService,sans-serif" font-weight="400" font-size="55" transform="matrix(1 0 0 1 2476.35 1396)">attention</text><rect x="2208" y="1606" width="610" height="210" fill="#D9D9D9"/><text fill="#005828" font-family="Aptos,Aptos_MSFontService,sans-serif" font-weight="400" font-size="55" transform="matrix(1 0 0 1 2433.55 1696)">c</text><text fill="#005828" font-family="Aptos,Aptos_MSFontService,sans-serif" font-weight="400" font-size="55" transform="matrix(1 0 0 1 2461.87 1696)">ausal </text><text fill="#005828" font-family="Aptos,Aptos_MSFontService,sans-serif" font-weight="400" font-size="55" transform="matrix(1 0 0 1 2356.13 1762)">self attention</text><rect x="1240.5" y="1979.5" width="359" height="115" stroke="#005828" stroke-width="6.875" stroke-miterlimit="8" fill="none"/><path d="M1362.43 2018.47 1349.91 2042.09 1363.12 2042.09 1362.96 2032.37C1362.91 2028.91 1362.88 2026.05 1362.88 2023.78 1362.88 2022.05 1362.89 2020.28 1362.92 2018.47ZM1361.87 2008.38 1373.54 2008.38 1375.28 2051.7C1375.34 2053.24 1375.44 2054.62 1375.61 2055.85 1375.77 2057.08 1376.02 2058.09 1376.38 2058.87 1376.73 2059.66 1377.17 2060.23 1377.69 2060.59 1378.22 2060.96 1378.89 2061.2 1379.7 2061.3L1379.09 2063.98 1358.14 2063.98 1358.75 2061.3C1359.93 2061.22 1360.87 2060.92 1361.56 2060.39 1362.25 2059.87 1362.73 2059.15 1363 2058.24 1363.27 2057.34 1363.41 2056.08 1363.41 2054.45 1363.41 2053.29 1363.38 2052.08 1363.33 2050.81L1363.24 2046.84 1347.4 2046.84 1346.83 2047.85C1345.32 2050.58 1344.31 2052.64 1343.81 2054.05 1343.31 2055.45 1343.06 2056.75 1343.06 2057.94 1343.06 2059.89 1344.21 2061.01 1346.51 2061.3L1345.9 2063.98 1328.8 2063.98 1329.4 2061.3C1330.35 2061.09 1331.18 2060.72 1331.9 2060.21 1332.61 2059.7 1333.29 2059 1333.94 2058.12 1334.59 2057.24 1335.51 2055.74 1336.7 2053.6Z" fill="#005828" fill-rule="evenodd"/><text fill="#000000" fill-opacity="0" font-family="Arial,Arial_MSFontService,sans-serif" font-size="55.6035" x="1328.8" y="2057.03">ğ‘¨</text><path d="M1401.62 2043.09 1403.41 2043.09C1403.37 2044.16 1403.34 2045.12 1403.32 2045.97 1403.3 2046.82 1403.29 2047.65 1403.28 2048.45 1403.27 2049.25 1403.26 2050.04 1403.26 2050.82L1403.26 2073.09C1403.26 2073.69 1403.28 2074.22 1403.32 2074.66 1403.36 2075.09 1403.43 2075.47 1403.51 2075.77 1403.6 2076.07 1403.72 2076.33 1403.86 2076.55 1404.01 2076.76 1404.18 2076.95 1404.38 2077.1 1404.61 2077.34 1404.92 2077.52 1405.31 2077.64 1405.71 2077.77 1406.2 2077.88 1406.81 2077.97 1407.41 2078.05 1408.14 2078.12 1408.99 2078.17 1409.84 2078.22 1410.86 2078.25 1412.05 2078.27L1412.05 2080.82 1388.82 2080.82 1388.82 2078.27C1389.97 2078.23 1390.95 2078.19 1391.75 2078.14 1392.55 2078.09 1393.23 2078.02 1393.8 2077.94 1394.37 2077.85 1394.82 2077.75 1395.16 2077.64 1395.51 2077.54 1395.8 2077.4 1396.06 2077.25 1396.33 2077.07 1396.56 2076.88 1396.76 2076.68 1396.96 2076.47 1397.11 2076.21 1397.23 2075.9 1397.35 2075.59 1397.44 2075.21 1397.51 2074.76 1397.58 2074.31 1397.61 2073.75 1397.61 2073.09L1397.61 2052.08C1397.61 2051.32 1397.46 2050.78 1397.17 2050.47 1396.88 2050.16 1396.46 2050 1395.91 2050 1395.31 2050 1394.41 2050.31 1393.22 2050.94 1392.02 2051.56 1390.48 2052.49 1388.59 2053.72 1388.33 2053.27 1388.1 2052.82 1387.88 2052.38 1387.67 2051.93 1387.44 2051.47 1387.21 2051 1389.63 2049.67 1392.03 2048.35 1394.4 2047.03 1396.77 2045.71 1399.18 2044.4 1401.62 2043.09Z" fill="#005828" fill-rule="evenodd"/><text fill="#000000" fill-opacity="0" font-family="Arial,Arial_MSFontService,sans-serif" font-size="37.7344" x="1387.21" y="2076.11">1</text><path d="M1421.78 2074.03 1427.64 2074.03 1427.64 2080.82 1421.78 2080.82ZM1421.78 2054.37 1427.64 2054.37 1427.64 2061.22 1421.78 2061.22Z" fill="#005828" fill-rule="evenodd"/><text fill="#000000" fill-opacity="0" font-family="Arial,Arial_MSFontService,sans-serif" font-size="26.4551" x="1421.78" y="2077.52">:</text><path d="M1443.5 2050.91C1444.95 2050.91 1446.07 2051.38 1446.86 2052.33 1447.65 2053.28 1448.04 2054.52 1448.04 2056.07 1448.04 2056.5 1448.01 2056.92 1447.95 2057.33 1447.9 2057.74 1447.79 2058.14 1447.63 2058.53L1447.98 2058.67C1449.84 2056.08 1451.7 2054.13 1453.55 2052.84 1455.41 2051.55 1457.31 2050.91 1459.26 2050.91 1461.33 2050.91 1462.88 2051.44 1463.91 2052.51 1464.93 2053.57 1465.45 2055.14 1465.45 2057.21 1465.45 2057.39 1465.45 2057.56 1465.45 2057.72 1465.45 2057.89 1465.43 2058.06 1465.39 2058.23L1465.5 2058.23C1467.32 2055.75 1469.13 2053.91 1470.92 2052.71 1472.72 2051.51 1474.6 2050.91 1476.55 2050.91 1478.62 2050.91 1480.17 2051.47 1481.19 2052.58 1482.22 2053.69 1482.73 2055.26 1482.73 2057.27 1482.73 2057.87 1482.63 2058.69 1482.44 2059.71 1482.24 2060.74 1482 2061.87 1481.72 2063.1 1481.44 2064.33 1481.13 2065.6 1480.8 2066.92 1480.46 2068.24 1480.15 2069.48 1479.86 2070.66 1479.68 2071.42 1479.54 2072.04 1479.43 2072.52 1479.33 2073 1479.24 2073.4 1479.19 2073.72 1479.13 2074.04 1479.09 2074.32 1479.07 2074.55 1479.05 2074.79 1479.04 2075.04 1479.04 2075.31 1479.04 2076.06 1479.18 2076.59 1479.45 2076.93 1479.72 2077.26 1480.16 2077.42 1480.77 2077.42 1481.12 2077.42 1481.47 2077.36 1481.82 2077.22 1482.17 2077.08 1482.55 2076.87 1482.95 2076.57 1483.35 2076.28 1483.79 2075.91 1484.27 2075.45 1484.75 2074.99 1485.28 2074.44 1485.86 2073.79L1487.89 2075.72C1486.95 2076.7 1486.07 2077.54 1485.26 2078.24 1484.45 2078.95 1483.67 2079.53 1482.92 2079.99 1482.17 2080.45 1481.42 2080.79 1480.68 2081.01 1479.94 2081.24 1479.16 2081.35 1478.34 2081.35 1477.59 2081.35 1476.92 2081.21 1476.31 2080.94 1475.71 2080.67 1475.2 2080.29 1474.78 2079.81 1474.36 2079.33 1474.03 2078.77 1473.79 2078.11 1473.56 2077.46 1473.44 2076.74 1473.44 2075.96 1473.44 2074.36 1473.78 2072.3 1474.47 2069.78 1474.84 2068.51 1475.18 2067.29 1475.48 2066.13 1475.78 2064.97 1476.04 2063.89 1476.26 2062.91 1476.47 2061.92 1476.64 2061.04 1476.77 2060.27 1476.9 2059.5 1476.96 2058.86 1476.96 2058.35 1476.96 2057.14 1476.73 2056.25 1476.27 2055.69 1475.81 2055.12 1475.09 2054.84 1474.12 2054.84 1473.51 2054.84 1472.87 2054.99 1472.18 2055.3 1471.5 2055.62 1470.81 2056.05 1470.12 2056.61 1469.42 2057.17 1468.75 2057.82 1468.08 2058.59 1467.42 2059.35 1466.8 2060.17 1466.24 2061.06 1465.67 2061.95 1465.17 2062.88 1464.73 2063.86 1464.29 2064.84 1463.95 2065.82 1463.72 2066.82L1460.82 2080.82 1455.1 2080.82C1455.38 2079.57 1455.68 2078.23 1456.03 2076.79 1456.37 2075.36 1456.71 2073.91 1457.07 2072.44 1457.42 2070.98 1457.75 2069.53 1458.08 2068.11 1458.4 2066.68 1458.69 2065.35 1458.94 2064.11 1459.2 2062.87 1459.4 2061.76 1459.56 2060.77 1459.71 2059.78 1459.79 2059 1459.79 2058.41 1459.79 2057.18 1459.55 2056.28 1459.07 2055.7 1458.59 2055.12 1457.83 2054.84 1456.77 2054.84 1455.84 2054.84 1454.83 2055.19 1453.76 2055.89 1452.68 2056.59 1451.66 2057.52 1450.69 2058.66 1449.73 2059.8 1448.86 2061.09 1448.1 2062.53 1447.34 2063.96 1446.8 2065.41 1446.49 2066.88L1443.5 2080.82 1437.76 2080.82 1442.15 2061.72C1442.41 2060.67 1442.59 2059.75 1442.71 2058.97 1442.83 2058.19 1442.89 2057.54 1442.89 2057.03 1442.89 2055.61 1442.31 2054.89 1441.16 2054.89 1440.81 2054.89 1440.45 2054.97 1440.09 2055.11 1439.73 2055.26 1439.35 2055.48 1438.95 2055.77 1438.55 2056.07 1438.11 2056.44 1437.64 2056.89 1437.17 2057.34 1436.65 2057.86 1436.06 2058.47L1434.04 2056.56C1435 2055.59 1435.88 2054.74 1436.69 2054.03 1437.5 2053.32 1438.28 2052.73 1439.03 2052.27 1439.79 2051.81 1440.52 2051.47 1441.25 2051.25 1441.97 2051.02 1442.72 2050.91 1443.5 2050.91Z" fill="#005828" fill-rule="evenodd"/><text fill="#000000" fill-opacity="0" font-family="Arial,Arial_MSFontService,sans-serif" font-size="30.4395" x="1434.04" y="2077.54">ğ‘š</text><rect x="1639.5" y="1978.5" width="359" height="114" stroke="#005828" stroke-width="6.875" stroke-miterlimit="8" fill="none"/><path d="M1761.27 2011.46C1758.97 2011.46 1756.72 2012.47 1754.52 2014.5 1752.32 2016.53 1750.3 2019.44 1748.48 2023.25 1746.66 2027.06 1745.25 2031.37 1744.27 2036.16 1743.28 2040.96 1742.79 2044.91 1742.79 2048.02 1742.79 2051.74 1743.33 2054.44 1744.41 2056.1 1745.49 2057.76 1747.24 2058.59 1749.68 2058.59 1751.24 2058.59 1752.78 2058.13 1754.3 2057.22 1756.19 2056.08 1757.96 2054.3 1759.61 2051.87 1761.52 2049.06 1763.17 2045.67 1764.55 2041.69 1765.77 2038.21 1766.78 2033.98 1767.59 2029.01 1768.02 2026.41 1768.24 2024.05 1768.24 2021.92 1768.24 2018.3 1767.7 2015.65 1766.62 2013.97 1765.54 2012.3 1763.75 2011.46 1761.27 2011.46ZM1761.67 2006.72C1767.83 2006.72 1772.5 2008.33 1775.67 2011.54 1778.85 2014.76 1780.44 2019.43 1780.44 2025.56 1780.44 2028.16 1780.16 2031.04 1779.61 2034.22 1779.05 2037.39 1778.15 2040.58 1776.89 2043.78 1775.63 2046.98 1774.09 2049.83 1772.25 2052.31 1770.41 2054.8 1768.29 2056.87 1765.89 2058.53 1763.48 2060.19 1760.9 2061.41 1758.13 2062.18 1755.36 2062.95 1752.39 2063.34 1749.23 2063.34 1743.07 2063.34 1738.42 2061.72 1735.29 2058.49 1732.15 2055.26 1730.59 2050.52 1730.59 2044.25 1730.59 2042.11 1730.8 2039.67 1731.24 2036.91 1731.67 2034.16 1732.4 2031.24 1733.42 2028.18 1734.45 2025.11 1735.87 2022.21 1737.68 2019.48 1739.49 2016.76 1741.62 2014.43 1744.06 2012.49 1746.51 2010.56 1749.23 2009.12 1752.23 2008.16 1755.23 2007.2 1758.38 2006.72 1761.67 2006.72Z" fill="#005828" fill-rule="evenodd"/><text fill="#000000" fill-opacity="0" font-family="Arial,Arial_MSFontService,sans-serif" font-size="56.6167" x="1730.59" y="2056.26">ğ‘¶</text><path d="M1803.15 2041.8 1804.93 2041.8C1804.89 2042.87 1804.86 2043.83 1804.85 2044.68 1804.83 2045.53 1804.81 2046.36 1804.8 2047.16 1804.79 2047.96 1804.79 2048.75 1804.79 2049.53L1804.79 2071.8C1804.79 2072.4 1804.81 2072.92 1804.85 2073.36 1804.88 2073.8 1804.95 2074.17 1805.04 2074.48 1805.12 2074.78 1805.24 2075.04 1805.39 2075.25 1805.53 2075.47 1805.7 2075.65 1805.9 2075.81 1806.13 2076.04 1806.45 2076.22 1806.84 2076.35 1807.23 2076.48 1807.73 2076.59 1808.33 2076.67 1808.94 2076.76 1809.66 2076.83 1810.51 2076.88 1811.36 2076.93 1812.38 2076.96 1813.58 2076.98L1813.58 2079.53 1790.34 2079.53 1790.34 2076.98C1791.5 2076.94 1792.47 2076.9 1793.27 2076.85 1794.07 2076.8 1794.76 2076.73 1795.32 2076.64 1795.89 2076.56 1796.34 2076.46 1796.69 2076.35 1797.03 2076.24 1797.33 2076.11 1797.58 2075.96 1797.85 2075.78 1798.09 2075.59 1798.28 2075.39 1798.48 2075.18 1798.63 2074.92 1798.75 2074.61 1798.87 2074.3 1798.96 2073.92 1799.03 2073.47 1799.1 2073.02 1799.13 2072.46 1799.13 2071.8L1799.13 2050.79C1799.13 2050.03 1798.99 2049.49 1798.69 2049.18 1798.4 2048.87 1797.98 2048.71 1797.43 2048.71 1796.83 2048.71 1795.93 2049.02 1794.74 2049.65 1793.55 2050.27 1792 2051.2 1790.11 2052.43 1789.86 2051.98 1789.62 2051.53 1789.41 2051.08 1789.19 2050.63 1788.97 2050.18 1788.73 2049.71 1791.15 2048.38 1793.55 2047.05 1795.92 2045.74 1798.3 2044.42 1800.7 2043.1 1803.15 2041.8Z" fill="#005828" fill-rule="evenodd"/><text fill="#000000" fill-opacity="0" font-family="Arial,Arial_MSFontService,sans-serif" font-size="37.7344" x="1788.73" y="2074.81">1</text><path d="M1823.3 2072.73 1829.16 2072.73 1829.16 2079.53 1823.3 2079.53ZM1823.3 2053.08 1829.16 2053.08 1829.16 2059.93 1823.3 2059.93Z" fill="#005828" fill-rule="evenodd"/><text fill="#000000" fill-opacity="0" font-family="Arial,Arial_MSFontService,sans-serif" font-size="26.4551" x="1823.3" y="2076.22">:</text><path d="M1845.02 2049.62C1846.47 2049.62 1847.59 2050.09 1848.38 2051.04 1849.17 2051.99 1849.57 2053.23 1849.57 2054.77 1849.57 2055.2 1849.54 2055.62 1849.48 2056.03 1849.42 2056.44 1849.31 2056.84 1849.16 2057.24L1849.51 2057.38C1851.36 2054.78 1853.22 2052.84 1855.07 2051.55 1856.93 2050.26 1858.83 2049.62 1860.79 2049.62 1862.86 2049.62 1864.4 2050.15 1865.43 2051.22 1866.46 2052.28 1866.97 2053.85 1866.97 2055.92 1866.97 2056.09 1866.97 2056.26 1866.97 2056.43 1866.97 2056.6 1866.95 2056.77 1866.91 2056.94L1867.03 2056.94C1868.84 2054.46 1870.65 2052.62 1872.45 2051.42 1874.24 2050.22 1876.12 2049.62 1878.07 2049.62 1880.14 2049.62 1881.69 2050.18 1882.71 2051.29 1883.74 2052.4 1884.25 2053.96 1884.25 2055.98 1884.25 2056.58 1884.16 2057.4 1883.96 2058.42 1883.76 2059.45 1883.53 2060.58 1883.24 2061.81 1882.96 2063.04 1882.65 2064.31 1882.32 2065.63 1881.99 2066.95 1881.67 2068.19 1881.38 2069.36 1881.21 2070.13 1881.06 2070.75 1880.96 2071.22 1880.85 2071.7 1880.77 2072.1 1880.71 2072.43 1880.65 2072.75 1880.61 2073.03 1880.59 2073.26 1880.57 2073.5 1880.56 2073.75 1880.56 2074.02 1880.56 2074.76 1880.7 2075.3 1880.97 2075.63 1881.25 2075.97 1881.68 2076.13 1882.29 2076.13 1882.64 2076.13 1882.99 2076.06 1883.34 2075.93 1883.7 2075.79 1884.07 2075.58 1884.47 2075.28 1884.87 2074.99 1885.31 2074.61 1885.79 2074.15 1886.27 2073.7 1886.8 2073.14 1887.39 2072.5L1889.41 2074.43C1888.47 2075.41 1887.6 2076.25 1886.79 2076.95 1885.98 2077.66 1885.2 2078.24 1884.44 2078.7 1883.69 2079.15 1882.94 2079.5 1882.2 2079.72 1881.46 2079.95 1880.68 2080.06 1879.86 2080.06 1879.12 2080.06 1878.44 2079.92 1877.84 2079.65 1877.23 2079.37 1876.72 2079 1876.3 2078.52 1875.88 2078.04 1875.55 2077.47 1875.32 2076.82 1875.08 2076.17 1874.97 2075.45 1874.97 2074.67 1874.97 2073.07 1875.31 2071.01 1875.99 2068.49 1876.36 2067.22 1876.7 2066 1877 2064.84 1877.3 2063.68 1877.56 2062.6 1877.78 2061.62 1877.99 2060.63 1878.16 2059.75 1878.29 2058.98 1878.42 2058.21 1878.48 2057.57 1878.48 2057.06 1878.48 2055.85 1878.25 2054.96 1877.79 2054.39 1877.33 2053.83 1876.62 2053.54 1875.64 2053.54 1875.03 2053.54 1874.39 2053.7 1873.71 2054.01 1873.02 2054.33 1872.33 2054.76 1871.64 2055.32 1870.95 2055.87 1870.27 2056.53 1869.6 2057.29 1868.94 2058.06 1868.33 2058.88 1867.76 2059.77 1867.19 2060.66 1866.69 2061.59 1866.25 2062.57 1865.81 2063.54 1865.47 2064.53 1865.24 2065.53L1862.34 2079.53 1856.63 2079.53C1856.9 2078.28 1857.21 2076.94 1857.55 2075.5 1857.89 2074.07 1858.24 2072.62 1858.59 2071.15 1858.94 2069.69 1859.28 2068.24 1859.6 2066.82 1859.92 2065.39 1860.21 2064.06 1860.46 2062.82 1860.72 2061.58 1860.92 2060.46 1861.08 2059.48 1861.24 2058.49 1861.31 2057.7 1861.31 2057.12 1861.31 2055.89 1861.07 2054.98 1860.6 2054.41 1860.12 2053.83 1859.35 2053.54 1858.3 2053.54 1857.36 2053.54 1856.35 2053.9 1855.28 2054.6 1854.2 2055.3 1853.18 2056.22 1852.22 2057.37 1851.25 2058.51 1850.39 2059.8 1849.62 2061.23 1848.86 2062.67 1848.33 2064.12 1848.01 2065.59L1845.02 2079.53 1839.28 2079.53 1843.68 2060.43C1843.93 2059.37 1844.12 2058.46 1844.23 2057.68 1844.35 2056.89 1844.41 2056.25 1844.41 2055.74 1844.41 2054.32 1843.83 2053.6 1842.68 2053.6 1842.33 2053.6 1841.97 2053.68 1841.61 2053.82 1841.25 2053.97 1840.87 2054.19 1840.47 2054.48 1840.07 2054.77 1839.63 2055.15 1839.17 2055.59 1838.7 2056.04 1838.17 2056.57 1837.58 2057.18L1835.56 2055.27C1836.52 2054.3 1837.4 2053.45 1838.21 2052.74 1839.02 2052.03 1839.8 2051.44 1840.56 2050.98 1841.31 2050.52 1842.05 2050.18 1842.77 2049.96 1843.49 2049.73 1844.24 2049.62 1845.02 2049.62Z" fill="#005828" fill-rule="evenodd"/><text fill="#000000" fill-opacity="0" font-family="Arial,Arial_MSFontService,sans-serif" font-size="30.4395" x="1835.56" y="2076.25">ğ‘š</text><rect x="2134.5" y="1978.5" width="758" height="114" stroke="#005828" stroke-width="6.875" stroke-miterlimit="8" fill="none"/><path d="M2448.96 2017.17 2436.44 2040.8 2449.65 2040.8 2449.49 2031.08C2449.44 2027.62 2449.41 2024.75 2449.41 2022.48 2449.41 2020.75 2449.42 2018.98 2449.45 2017.17ZM2448.4 2007.08 2460.07 2007.08 2461.81 2050.41C2461.87 2051.95 2461.97 2053.33 2462.14 2054.56 2462.3 2055.79 2462.55 2056.8 2462.91 2057.58 2463.26 2058.36 2463.7 2058.94 2464.22 2059.3 2464.75 2059.67 2465.42 2059.9 2466.23 2060.01L2465.62 2062.69 2444.67 2062.69 2445.28 2060.01C2446.47 2059.93 2447.4 2059.63 2448.09 2059.1 2448.78 2058.57 2449.26 2057.86 2449.53 2056.95 2449.8 2056.05 2449.94 2054.78 2449.94 2053.16 2449.94 2052 2449.91 2050.79 2449.86 2049.52L2449.77 2045.54 2433.93 2045.54 2433.36 2046.56C2431.85 2049.29 2430.84 2051.35 2430.34 2052.76 2429.84 2054.16 2429.59 2055.46 2429.59 2056.65 2429.59 2058.59 2430.74 2059.71 2433.04 2060.01L2432.43 2062.69 2415.33 2062.69 2415.93 2060.01C2416.88 2059.8 2417.71 2059.43 2418.43 2058.92 2419.14 2058.4 2419.83 2057.71 2420.47 2056.83 2421.12 2055.95 2422.04 2054.45 2423.23 2052.31Z" fill="#005828" fill-rule="evenodd"/><text fill="#000000" fill-opacity="0" font-family="Arial,Arial_MSFontService,sans-serif" font-size="55.6035" x="2415.33" y="2055.74">ğ‘¨</text><path d="M2480.94 2049.62C2482.39 2049.62 2483.51 2050.09 2484.3 2051.04 2485.09 2051.99 2485.49 2053.23 2485.49 2054.77 2485.49 2055.2 2485.46 2055.62 2485.4 2056.03 2485.34 2056.44 2485.23 2056.84 2485.08 2057.24L2485.43 2057.38C2487.28 2054.78 2489.14 2052.84 2490.99 2051.55 2492.85 2050.26 2494.75 2049.62 2496.71 2049.62 2498.78 2049.62 2500.32 2050.15 2501.35 2051.22 2502.38 2052.28 2502.89 2053.85 2502.89 2055.92 2502.89 2056.09 2502.89 2056.26 2502.89 2056.43 2502.89 2056.6 2502.87 2056.77 2502.83 2056.94L2502.95 2056.94C2504.76 2054.46 2506.57 2052.62 2508.37 2051.42 2510.16 2050.22 2512.04 2049.62 2513.99 2049.62 2516.06 2049.62 2517.61 2050.18 2518.64 2051.29 2519.66 2052.4 2520.17 2053.96 2520.17 2055.98 2520.17 2056.58 2520.08 2057.4 2519.88 2058.42 2519.68 2059.45 2519.45 2060.58 2519.16 2061.81 2518.88 2063.04 2518.57 2064.31 2518.24 2065.63 2517.91 2066.95 2517.59 2068.19 2517.3 2069.36 2517.13 2070.13 2516.98 2070.75 2516.88 2071.22 2516.77 2071.7 2516.69 2072.1 2516.63 2072.43 2516.57 2072.75 2516.53 2073.03 2516.51 2073.26 2516.49 2073.5 2516.48 2073.75 2516.48 2074.02 2516.48 2074.76 2516.62 2075.3 2516.89 2075.63 2517.17 2075.97 2517.6 2076.13 2518.21 2076.13 2518.56 2076.13 2518.91 2076.06 2519.26 2075.93 2519.62 2075.79 2519.99 2075.58 2520.39 2075.28 2520.79 2074.99 2521.23 2074.61 2521.71 2074.15 2522.19 2073.7 2522.72 2073.14 2523.31 2072.5L2525.33 2074.43C2524.39 2075.41 2523.52 2076.25 2522.71 2076.95 2521.9 2077.66 2521.12 2078.24 2520.36 2078.7 2519.61 2079.15 2518.86 2079.5 2518.12 2079.72 2517.38 2079.95 2516.6 2080.06 2515.78 2080.06 2515.04 2080.06 2514.36 2079.92 2513.76 2079.65 2513.15 2079.37 2512.64 2079 2512.22 2078.52 2511.8 2078.04 2511.47 2077.47 2511.24 2076.82 2511 2076.17 2510.89 2075.45 2510.89 2074.67 2510.89 2073.07 2511.23 2071.01 2511.91 2068.49 2512.28 2067.22 2512.62 2066 2512.92 2064.84 2513.22 2063.68 2513.48 2062.6 2513.7 2061.62 2513.91 2060.63 2514.08 2059.75 2514.21 2058.98 2514.34 2058.21 2514.4 2057.57 2514.4 2057.06 2514.4 2055.85 2514.17 2054.96 2513.71 2054.39 2513.25 2053.83 2512.54 2053.54 2511.56 2053.54 2510.95 2053.54 2510.31 2053.7 2509.63 2054.01 2508.94 2054.33 2508.25 2054.76 2507.56 2055.32 2506.87 2055.87 2506.19 2056.53 2505.52 2057.29 2504.86 2058.06 2504.25 2058.88 2503.68 2059.77 2503.11 2060.66 2502.61 2061.59 2502.17 2062.57 2501.73 2063.54 2501.39 2064.53 2501.16 2065.53L2498.26 2079.53 2492.55 2079.53C2492.82 2078.28 2493.13 2076.94 2493.47 2075.5 2493.81 2074.07 2494.16 2072.62 2494.51 2071.15 2494.86 2069.69 2495.2 2068.24 2495.52 2066.82 2495.84 2065.39 2496.13 2064.06 2496.38 2062.82 2496.64 2061.58 2496.84 2060.46 2497 2059.48 2497.16 2058.49 2497.23 2057.7 2497.23 2057.12 2497.23 2055.89 2496.99 2054.98 2496.52 2054.41 2496.04 2053.83 2495.27 2053.54 2494.22 2053.54 2493.28 2053.54 2492.27 2053.9 2491.2 2054.6 2490.12 2055.3 2489.1 2056.22 2488.14 2057.37 2487.17 2058.51 2486.31 2059.8 2485.54 2061.23 2484.78 2062.67 2484.25 2064.12 2483.93 2065.59L2480.94 2079.53 2475.2 2079.53 2479.6 2060.43C2479.85 2059.37 2480.04 2058.46 2480.15 2057.68 2480.27 2056.89 2480.33 2056.25 2480.33 2055.74 2480.33 2054.32 2479.75 2053.6 2478.6 2053.6 2478.25 2053.6 2477.89 2053.68 2477.53 2053.82 2477.17 2053.97 2476.79 2054.19 2476.39 2054.48 2475.99 2054.77 2475.55 2055.15 2475.09 2055.59 2474.62 2056.04 2474.09 2056.57 2473.5 2057.18L2471.48 2055.27C2472.44 2054.3 2473.32 2053.45 2474.13 2052.74 2474.94 2052.03 2475.72 2051.44 2476.48 2050.98 2477.23 2050.52 2477.97 2050.18 2478.69 2049.96 2479.41 2049.73 2480.16 2049.62 2480.94 2049.62Z" fill="#005828" fill-rule="evenodd"/><text fill="#000000" fill-opacity="0" font-family="Arial,Arial_MSFontService,sans-serif" font-size="30.4395" x="2471.48" y="2076.25">ğ‘š</text><path d="M2532.44 2072.73 2538.3 2072.73 2538.3 2079.53 2532.44 2079.53ZM2532.44 2053.08 2538.3 2053.08 2538.3 2059.93 2532.44 2059.93Z" fill="#005828" fill-rule="evenodd"/><text fill="#000000" fill-opacity="0" font-family="Arial,Arial_MSFontService,sans-serif" font-size="26.4551" x="2532.44" y="2076.22">:</text><path d="M2552.61 2041.53 2562.72 2041.53C2563.64 2043.97 2564.58 2046.43 2565.55 2048.9 2566.51 2051.37 2567.46 2053.84 2568.4 2056.3 2569.34 2058.76 2570.24 2061.19 2571.11 2063.58 2571.98 2065.97 2572.78 2068.31 2573.5 2070.59L2573.88 2070.59C2574.09 2069.34 2574.37 2067.87 2574.7 2066.16 2575.03 2064.45 2575.42 2062.68 2575.87 2060.84 2576.2 2059.45 2576.54 2058.03 2576.88 2056.56 2577.22 2055.1 2577.54 2053.69 2577.84 2052.34 2578.13 2051 2578.37 2049.75 2578.55 2048.61 2578.74 2047.47 2578.83 2046.52 2578.83 2045.78 2578.83 2044.92 2578.61 2044.31 2578.17 2043.95 2577.73 2043.59 2576.92 2043.4 2575.73 2043.38L2576.14 2041.53 2587.01 2041.53 2586.62 2043.29C2585.96 2043.49 2585.43 2043.66 2585.04 2043.8 2584.65 2043.95 2584.32 2044.23 2584.05 2044.65 2583.77 2045.07 2583.51 2045.68 2583.27 2046.48 2583.03 2047.28 2582.74 2048.44 2582.41 2049.94L2575.78 2079.53 2571.36 2079.53C2570.33 2076.87 2569.27 2074.2 2568.18 2071.5 2567.1 2068.81 2566.03 2066.11 2564.99 2063.42 2563.94 2060.72 2562.94 2058.05 2561.99 2055.39 2561.03 2052.73 2560.16 2050.12 2559.38 2047.54L2559 2047.54C2558.9 2048.14 2558.78 2048.85 2558.65 2049.65 2558.51 2050.45 2558.36 2051.31 2558.19 2052.24 2558.03 2053.17 2557.85 2054.12 2557.66 2055.1 2557.48 2056.07 2557.29 2057.05 2557.09 2058.03 2556.92 2058.77 2556.71 2059.63 2556.46 2060.62 2556.22 2061.61 2555.97 2062.66 2555.72 2063.78 2555.46 2064.91 2555.2 2066.04 2554.94 2067.2 2554.68 2068.35 2554.44 2069.45 2554.22 2070.49 2554.01 2071.54 2553.84 2072.49 2553.71 2073.35 2553.58 2074.21 2553.52 2074.88 2553.52 2075.37 2553.52 2076.19 2553.75 2076.77 2554.22 2077.11 2554.69 2077.46 2555.49 2077.67 2556.62 2077.74L2556.3 2079.53 2545.37 2079.53 2545.76 2077.74C2546.34 2077.65 2546.83 2077.53 2547.22 2077.39 2547.61 2077.26 2547.95 2076.98 2548.25 2076.56 2548.54 2076.14 2548.82 2075.51 2549.08 2074.67 2549.34 2073.83 2549.64 2072.65 2549.97 2071.12L2554.78 2049.76C2554.95 2048.98 2555.09 2048.26 2555.17 2047.58 2555.26 2046.91 2555.31 2046.31 2555.31 2045.78 2555.31 2044.92 2555.08 2044.31 2554.63 2043.95 2554.18 2043.59 2553.36 2043.4 2552.17 2043.38Z" fill="#005828" fill-rule="evenodd"/><text fill="#000000" fill-opacity="0" font-family="Arial,Arial_MSFontService,sans-serif" font-size="37.998" x="2545.37" y="2074.78">ğ‘</text><path d="M2134.5 1914.5 2963.56 1914.5" stroke="#005828" stroke-width="6.875" stroke-miterlimit="8" fill="none" fill-rule="evenodd"/><path d="M3.4375-1.26823e-05 3.43778 74.9021-3.43722 74.9021-3.4375 1.26823e-05ZM13.7503 70.3187 0.000360892 97.8188-13.7497 70.3188Z" fill="#005828" transform="matrix(1 0 0 -1 1214.5 1914.32)"/><path d="M3.4375-1.26823e-05 3.43778 74.9021-3.43722 74.9021-3.4375 1.26823e-05ZM13.7503 70.3187 0.000360892 97.8188-13.7497 70.3188Z" fill="#005828" transform="matrix(1 0 0 -1 2929.5 1911.32)"/><path d="M3.4375-1.51385e-06 3.43785 796.562-3.43715 796.562-3.4375 1.51385e-06ZM13.7503 791.979 0.000360892 819.479-13.7497 791.979Z" fill="#005828" transform="matrix(1 0 0 -1 1138.5 1966.98)"/><path d="M3.4375-1.04708e-06 3.43785 1161.88-3.43715 1161.88-3.4375 1.04708e-06ZM13.7504 1157.29 0.000360892 1184.79-13.7496 1157.29Z" fill="#005828" transform="matrix(1 0 0 -1 3005.5 1988.29)"/><rect x="1089" y="1472" width="96.9999" height="134" fill="#FFFFFF"/><path d="M1150.82 1529.72C1149.8 1529.72 1148.82 1529.91 1147.88 1530.27 1146.95 1530.64 1145.98 1531.26 1144.97 1532.14 1143.95 1533.01 1142.99 1534.2 1142.07 1535.68 1141.15 1537.17 1140.33 1538.92 1139.6 1540.93 1138.87 1542.94 1138.16 1545.52 1137.49 1548.65L1136.07 1555.18C1136.02 1555.47 1135.96 1555.9 1135.89 1556.45 1135.82 1557.01 1135.79 1557.51 1135.79 1557.97 1135.79 1559.7 1136.5 1561.03 1137.91 1561.96 1139.33 1562.9 1141.22 1563.36 1143.57 1563.36 1146.35 1563.36 1148.82 1562.23 1150.96 1559.98 1153.11 1557.72 1154.78 1554.62 1155.97 1550.66 1157.16 1546.7 1157.75 1542.76 1157.75 1538.84 1157.75 1537.09 1157.57 1535.55 1157.21 1534.24 1156.84 1532.93 1156.15 1531.85 1155.12 1531 1154.09 1530.15 1152.66 1529.72 1150.82 1529.72ZM1151.88 1526.52C1154.5 1526.52 1156.81 1527.06 1158.81 1528.12 1160.81 1529.19 1162.32 1530.74 1163.35 1532.76 1164.37 1534.79 1164.89 1537.28 1164.89 1540.22 1164.89 1544.81 1163.99 1549.17 1162.19 1553.29 1160.39 1557.41 1157.89 1560.65 1154.69 1563.02 1151.49 1565.38 1147.9 1566.56 1143.93 1566.56 1142.1 1566.56 1140.35 1566.4 1138.71 1566.08 1137.06 1565.75 1135.41 1565.2 1133.76 1564.42L1129.55 1583.42 1122.9 1583.42 1131.13 1546.75C1132.1 1542.42 1133.49 1538.8 1135.3 1535.88 1137.11 1532.97 1139.41 1530.68 1142.19 1529.02 1144.97 1527.35 1148.2 1526.52 1151.88 1526.52Z" fill-rule="evenodd"/><text fill="#000000" fill-opacity="0" font-family="Arial,Arial_MSFontService,sans-serif" font-size="56.9004" x="1122.9" y="1576.31">ğœŒ</text><rect x="2956" y="1476" width="98" height="134" fill="#FFFFFF"/><path d="M3018.02 1533.54C3016.99 1533.54 3016.01 1533.72 3015.08 1534.09 3014.15 1534.45 3013.18 1535.07 3012.16 1535.95 3011.15 1536.83 3010.18 1538.01 3009.26 1539.5 3008.35 1540.98 3007.52 1542.73 3006.79 1544.74 3006.06 1546.76 3005.36 1549.33 3004.69 1552.47L3003.27 1558.99C3003.21 1559.29 3003.15 1559.71 3003.08 1560.27 3003.02 1560.82 3002.98 1561.33 3002.98 1561.79 3002.98 1563.52 3003.69 1564.85 3005.11 1565.78 3006.53 1566.71 3008.41 1567.18 3010.76 1567.18 3013.55 1567.18 3016.01 1566.05 3018.16 1563.79 3020.31 1561.54 3021.98 1558.43 3023.17 1554.47 3024.35 1550.51 3024.95 1546.58 3024.95 1542.66 3024.95 1540.9 3024.77 1539.37 3024.4 1538.06 3024.04 1536.75 3023.34 1535.67 3022.31 1534.82 3021.29 1533.96 3019.86 1533.54 3018.02 1533.54ZM3019.07 1530.34C3021.69 1530.34 3024 1530.87 3026 1531.94 3028 1533.01 3029.51 1534.55 3030.54 1536.58 3031.57 1538.6 3032.08 1541.09 3032.08 1544.04 3032.08 1548.63 3031.18 1552.99 3029.39 1557.11 3027.59 1561.23 3025.09 1564.47 3021.89 1566.83 3018.69 1569.2 3015.1 1570.38 3011.13 1570.38 3009.29 1570.38 3007.55 1570.22 3005.9 1569.89 3004.25 1569.57 3002.6 1569.01 3000.96 1568.23L2996.74 1587.24 2990.1 1587.24 2998.32 1550.56C2999.29 1546.24 3000.69 1542.62 3002.5 1539.7 3004.31 1536.78 3006.6 1534.49 3009.39 1532.83 3012.17 1531.17 3015.4 1530.34 3019.07 1530.34Z" fill-rule="evenodd"/><text fill="#000000" fill-opacity="0" font-family="Arial,Arial_MSFontService,sans-serif" font-size="56.9004" x="2990.1" y="1580.13">ğœŒ</text><path d="M0 3.4375-82.5007 3.4375-79.0632 0-79.0632 445.604-82.5007 442.166 173.975 442.166 173.975 566.561 167.1 566.561 167.1 445.604 170.537 449.041-85.9382 449.041-85.9382-3.4375 0-3.4375ZM184.287 561.978 170.537 589.478 156.787 561.978Z" fill="#005828" transform="matrix(1.83697e-16 1 1 -1.83697e-16 1619.5 1207.5)"/><rect x="2208.5" y="711.5" width="610" height="109" stroke="#005828" stroke-width="6.875" stroke-miterlimit="8" fill="none"/><path d="M2449.14 742.023C2446.84 742.023 2444.59 743.036 2442.39 745.062 2440.19 747.089 2438.18 750.007 2436.35 753.816 2434.53 757.626 2433.12 761.928 2432.14 766.724 2431.15 771.52 2430.66 775.471 2430.66 778.578 2430.66 782.307 2431.2 785.002 2432.28 786.664 2433.36 788.325 2435.12 789.156 2437.55 789.156 2439.12 789.156 2440.66 788.697 2442.17 787.778 2444.06 786.643 2445.83 784.86 2447.48 782.428 2449.4 779.619 2451.04 776.228 2452.42 772.256 2453.64 768.771 2454.65 764.542 2455.46 759.571 2455.89 756.977 2456.11 754.613 2456.11 752.479 2456.11 748.858 2455.57 746.21 2454.49 744.535 2453.41 742.86 2451.62 742.023 2449.14 742.023ZM2449.54 737.281C2455.7 737.281 2460.37 738.889 2463.55 742.104 2466.72 745.319 2468.31 749.993 2468.31 756.126 2468.31 758.72 2468.03 761.604 2467.48 764.779 2466.92 767.953 2466.02 771.142 2464.76 774.343 2463.51 777.545 2461.96 780.389 2460.12 782.874 2458.29 785.36 2456.16 787.434 2453.76 789.095 2451.35 790.757 2448.77 791.973 2446 792.743 2443.23 793.513 2440.26 793.898 2437.1 793.898 2430.94 793.898 2426.3 792.283 2423.16 789.055 2420.03 785.826 2418.46 781.078 2418.46 774.809 2418.46 772.675 2418.68 770.23 2419.11 767.474 2419.54 764.718 2420.27 761.807 2421.3 758.74 2422.32 755.674 2423.74 752.776 2425.55 750.047 2427.36 747.318 2429.49 744.988 2431.94 743.056 2434.38 741.124 2437.1 739.679 2440.1 738.72 2443.1 737.76 2446.25 737.281 2449.54 737.281Z" fill="#005828" fill-rule="evenodd"/><text fill="#000000" fill-opacity="0" font-family="Arial,Arial_MSFontService,sans-serif" font-size="56.6167" x="2418.46" y="786.821">ğ‘¶</text><path d="M2483.81 780.181C2485.25 780.181 2486.37 780.654 2487.16 781.602 2487.95 782.549 2488.35 783.794 2488.35 785.337 2488.35 785.767 2488.32 786.187 2488.26 786.597 2488.2 787.007 2488.1 787.407 2487.94 787.798L2488.29 787.945C2490.15 785.347 2492 783.404 2493.86 782.114 2495.71 780.825 2497.62 780.181 2499.57 780.181 2501.64 780.181 2503.19 780.713 2504.21 781.778 2505.24 782.842 2505.75 784.409 2505.75 786.48 2505.75 786.655 2505.75 786.826 2505.75 786.992 2505.75 787.158 2505.73 787.329 2505.69 787.505L2505.81 787.505C2507.63 785.025 2509.43 783.184 2511.23 781.983 2513.03 780.781 2514.9 780.181 2516.86 780.181 2518.93 780.181 2520.47 780.737 2521.5 781.851 2522.53 782.964 2523.04 784.527 2523.04 786.538 2523.04 787.144 2522.94 787.959 2522.74 788.985 2522.55 790.01 2522.31 791.138 2522.03 792.368 2521.74 793.599 2521.44 794.873 2521.1 796.192 2520.77 797.51 2520.46 798.755 2520.17 799.927 2519.99 800.689 2519.85 801.309 2519.74 801.787 2519.63 802.266 2519.55 802.666 2519.49 802.988 2519.43 803.311 2519.4 803.589 2519.38 803.823 2519.36 804.058 2519.35 804.312 2519.35 804.585 2519.35 805.327 2519.48 805.864 2519.76 806.196 2520.03 806.529 2520.47 806.695 2521.07 806.695 2521.43 806.695 2521.78 806.626 2522.13 806.489 2522.48 806.353 2522.86 806.138 2523.26 805.845 2523.66 805.552 2524.1 805.176 2524.58 804.717 2525.05 804.258 2525.59 803.706 2526.17 803.062L2528.19 804.995C2527.26 805.972 2526.38 806.812 2525.57 807.515 2524.76 808.218 2523.98 808.799 2523.23 809.258 2522.48 809.717 2521.73 810.059 2520.99 810.283 2520.24 810.508 2519.46 810.62 2518.64 810.62 2517.9 810.62 2517.23 810.484 2516.62 810.21 2516.02 809.937 2515.5 809.561 2515.08 809.082 2514.66 808.604 2514.34 808.037 2514.1 807.383 2513.87 806.729 2513.75 806.011 2513.75 805.23 2513.75 803.628 2514.09 801.568 2514.78 799.048 2515.15 797.779 2515.48 796.563 2515.79 795.401 2516.09 794.238 2516.35 793.164 2516.56 792.178 2516.78 791.192 2516.95 790.313 2517.08 789.541 2517.2 788.77 2517.27 788.13 2517.27 787.622 2517.27 786.411 2517.04 785.523 2516.58 784.956 2516.12 784.39 2515.4 784.107 2514.42 784.107 2513.82 784.107 2513.17 784.263 2512.49 784.575 2511.81 784.888 2511.12 785.322 2510.43 785.879 2509.73 786.436 2509.05 787.095 2508.39 787.857 2507.73 788.618 2507.11 789.444 2506.54 790.332 2505.98 791.221 2505.47 792.154 2505.03 793.13 2504.6 794.107 2504.26 795.093 2504.02 796.089L2501.12 810.093 2495.41 810.093C2495.68 808.843 2495.99 807.5 2496.33 806.065 2496.68 804.629 2497.02 803.179 2497.37 801.714 2497.73 800.249 2498.06 798.804 2498.38 797.378 2498.71 795.952 2498.99 794.619 2499.25 793.379 2499.5 792.139 2499.71 791.026 2499.86 790.039 2500.02 789.053 2500.1 788.267 2500.1 787.681 2500.1 786.45 2499.86 785.547 2499.38 784.971 2498.9 784.395 2498.14 784.107 2497.08 784.107 2496.14 784.107 2495.14 784.458 2494.06 785.161 2492.99 785.864 2491.97 786.787 2491 787.93 2490.03 789.072 2489.17 790.362 2488.41 791.797 2487.65 793.233 2487.11 794.683 2486.8 796.148L2483.81 810.093 2478.07 810.093 2482.46 790.991C2482.72 789.937 2482.9 789.019 2483.02 788.237 2483.14 787.456 2483.19 786.812 2483.19 786.304 2483.19 784.878 2482.62 784.165 2481.47 784.165 2481.11 784.165 2480.76 784.238 2480.4 784.385 2480.03 784.531 2479.65 784.751 2479.25 785.044 2478.85 785.337 2478.42 785.708 2477.95 786.157 2477.48 786.607 2476.95 787.134 2476.37 787.739L2474.35 785.835C2475.3 784.859 2476.19 784.014 2477 783.301 2477.81 782.588 2478.59 782.002 2479.34 781.543 2480.09 781.084 2480.83 780.742 2481.55 780.518 2482.28 780.293 2483.03 780.181 2483.81 780.181Z" fill="#005828" fill-rule="evenodd"/><text fill="#000000" fill-opacity="0" font-family="Arial,Arial_MSFontService,sans-serif" font-size="30.4395" x="2474.35" y="806.815">ğ‘š</text><path d="M2535.3 803.296 2541.16 803.296 2541.16 810.093 2535.3 810.093ZM2535.3 783.638 2541.16 783.638 2541.16 790.493 2535.3 790.493Z" fill="#005828" fill-rule="evenodd"/><text fill="#000000" fill-opacity="0" font-family="Arial,Arial_MSFontService,sans-serif" font-size="26.4551" x="2535.3" y="806.786">:</text><path d="M2555.48 772.095 2565.58 772.095C2566.5 774.536 2567.44 776.992 2568.41 779.463 2569.38 781.934 2570.33 784.4 2571.27 786.861 2572.2 789.321 2573.11 791.748 2573.98 794.141 2574.85 796.533 2575.64 798.872 2576.36 801.157L2576.74 801.157C2576.96 799.907 2577.23 798.428 2577.57 796.719 2577.9 795.01 2578.29 793.237 2578.74 791.402 2579.07 790.015 2579.41 788.589 2579.75 787.124 2580.09 785.659 2580.41 784.253 2580.7 782.905 2580.99 781.558 2581.23 780.313 2581.42 779.17 2581.6 778.028 2581.7 777.085 2581.7 776.343 2581.7 775.484 2581.48 774.873 2581.04 774.512 2580.6 774.151 2579.78 773.96 2578.59 773.941L2579 772.095 2589.87 772.095 2589.49 773.853C2588.82 774.048 2588.3 774.219 2587.91 774.365 2587.52 774.512 2587.18 774.795 2586.91 775.215 2586.64 775.635 2586.38 776.245 2586.13 777.046 2585.89 777.847 2585.6 778.999 2585.27 780.503L2578.65 810.093 2574.23 810.093C2573.19 807.437 2572.13 804.761 2571.05 802.066 2569.96 799.37 2568.9 796.675 2567.85 793.98 2566.81 791.284 2565.81 788.609 2564.85 785.952 2563.89 783.296 2563.02 780.679 2562.24 778.101L2561.86 778.101C2561.76 778.706 2561.65 779.409 2561.51 780.21 2561.37 781.011 2561.22 781.875 2561.06 782.803 2560.89 783.731 2560.71 784.683 2560.53 785.659 2560.34 786.636 2560.15 787.612 2559.96 788.589 2559.78 789.331 2559.57 790.195 2559.33 791.182 2559.08 792.168 2558.83 793.223 2558.58 794.346 2558.33 795.469 2558.07 796.607 2557.8 797.759 2557.54 798.911 2557.3 800.01 2557.09 801.055 2556.87 802.1 2556.7 803.052 2556.57 803.911 2556.45 804.771 2556.38 805.445 2556.38 805.933 2556.38 806.753 2556.62 807.334 2557.09 807.676 2557.56 808.018 2558.36 808.228 2559.49 808.306L2559.17 810.093 2548.24 810.093 2548.62 808.306C2549.21 808.208 2549.69 808.091 2550.08 807.954 2550.48 807.818 2550.82 807.539 2551.11 807.119 2551.4 806.699 2551.68 806.07 2551.95 805.23 2552.21 804.39 2552.51 803.208 2552.84 801.685L2557.64 780.327C2557.82 779.546 2557.95 778.819 2558.04 778.145 2558.13 777.471 2558.17 776.87 2558.17 776.343 2558.17 775.484 2557.95 774.873 2557.5 774.512 2557.05 774.151 2556.23 773.96 2555.04 773.941Z" fill="#005828" fill-rule="evenodd"/><text fill="#000000" fill-opacity="0" font-family="Arial,Arial_MSFontService,sans-serif" font-size="37.998" x="2548.24" y="805.343">ğ‘</text><text font-family="Aptos,Aptos_MSFontService,sans-serif" font-weight="400" font-size="48" transform="matrix(1 0 0 1 1650.96 1113)">Normalized latents</text><path d="M3.4375-1.00774e-05 3.43779 100.187-3.43721 100.187-3.4375 1.00774e-05ZM13.7503 95.604 0.000360892 123.104-13.7497 95.604Z" fill="#005828" transform="matrix(1 0 0 -1 1619.5 1606.6)"/><path d="M3.4375-1.26823e-05 3.43778 74.9025-3.43722 74.9025-3.4375 1.26823e-05ZM13.7503 70.3191 0.000360892 97.8192-13.7497 70.3192Z" fill="#005828" transform="matrix(1 0 0 -1 1618.5 1914.32)"/><path d="M2511.5 1917.76 2510.39 1839.46 2517.26 1839.37 2518.37 1917.66ZM2500.14 1844.19 2513.5 1816.5 2527.64 1843.8Z" fill="#005828"/><path d="M3.4375-1.00774e-05 3.43779 100.187-3.43721 100.187-3.4375 1.00774e-05ZM13.7503 95.604 0.000360892 123.104-13.7497 95.604Z" fill="#005828" transform="matrix(1 0 0 -1 2513.5 1606.6)"/><path d="M3.4375-1.00774e-05 3.43779 100.187-3.43721 100.187-3.4375 1.00774e-05ZM13.7503 95.604 0.000360892 123.104-13.7497 95.604Z" fill="#005828" transform="matrix(1 0 0 -1 2513.5 1272.6)"/><path d="M3.4375-1.00774e-05 3.43779 100.187-3.43721 100.187-3.4375 1.00774e-05ZM13.7503 95.604 0.000360892 123.104-13.7497 95.604Z" fill="#005828" transform="matrix(1 0 0 -1 2513.5 943.604)"/><path d="M2208 943 2818 943 2631.75 1153 2398.76 1153 2208 943Z" fill="#D9D9D9" fill-rule="evenodd"/><text fill="#005828" font-family="Aptos,Aptos_MSFontService,sans-serif" font-weight="400" font-size="55" transform="matrix(1 0 0 1 2318.11 1033)">f</text><text fill="#005828" font-family="Aptos,Aptos_MSFontService,sans-serif" font-weight="400" font-size="55" transform="matrix(1 0 0 1 2334.04 1033)">eedforward and</text><text fill="#005828" font-family="Aptos,Aptos_MSFontService,sans-serif" font-weight="400" font-size="55" transform="matrix(1 0 0 1 2395.41 1099)">normaliz</text><text fill="#005828" font-family="Aptos,Aptos_MSFontService,sans-serif" font-weight="400" font-size="55" transform="matrix(1 0 0 1 2601.41 1099)">e</text><text font-family="Aptos,Aptos_MSFontService,sans-serif" font-weight="400" font-size="48" transform="matrix(1 0 0 1 1227.54 1963)">Linear action/observation embedding</text><text font-family="Aptos,Aptos_MSFontService,sans-serif" font-weight="400" font-size="48" transform="matrix(1 0 0 1 2269.9 1963)">Linear action embedding</text><path d="M1342.5 1640.5C1342.5 1632.77 1348.77 1626.5 1356.5 1626.5 1364.23 1626.5 1370.5 1632.77 1370.5 1640.5 1370.5 1648.23 1364.23 1654.5 1356.5 1654.5 1348.77 1654.5 1342.5 1648.23 1342.5 1640.5Z" stroke="#005828" stroke-width="6.875" stroke-miterlimit="8" fill="#EEF9EB" fill-rule="evenodd"/><path d="M1393.5 1640.5C1393.5 1632.77 1399.99 1626.5 1408 1626.5 1416.01 1626.5 1422.5 1632.77 1422.5 1640.5 1422.5 1648.23 1416.01 1654.5 1408 1654.5 1399.99 1654.5 1393.5 1648.23 1393.5 1640.5Z" stroke="#005828" stroke-width="6.875" stroke-miterlimit="8" fill="#EEF9EB" fill-rule="evenodd"/><path d="M1342.5 1691C1342.5 1682.99 1348.77 1676.5 1356.5 1676.5 1364.23 1676.5 1370.5 1682.99 1370.5 1691 1370.5 1699.01 1364.23 1705.5 1356.5 1705.5 1348.77 1705.5 1342.5 1699.01 1342.5 1691Z" stroke="#005828" stroke-width="6.875" stroke-miterlimit="8" fill="#EEF9EB" fill-rule="evenodd"/><path d="M1393.5 1691C1393.5 1682.99 1399.99 1676.5 1408 1676.5 1416.01 1676.5 1422.5 1682.99 1422.5 1691 1422.5 1699.01 1416.01 1705.5 1408 1705.5 1399.99 1705.5 1393.5 1699.01 1393.5 1691Z" stroke="#005828" stroke-width="6.875" stroke-miterlimit="8" fill="#EEF9EB" fill-rule="evenodd"/><path d="M1341.5 1790C1341.5 1781.99 1347.99 1775.5 1356 1775.5 1364.01 1775.5 1370.5 1781.99 1370.5 1790 1370.5 1798.01 1364.01 1804.5 1356 1804.5 1347.99 1804.5 1341.5 1798.01 1341.5 1790Z" stroke="#005828" stroke-width="6.875" stroke-miterlimit="8" fill="#EEF9EB" fill-rule="evenodd"/><path d="M1341.5 1746C1341.5 1737.99 1347.99 1731.5 1356 1731.5 1364.01 1731.5 1370.5 1737.99 1370.5 1746 1370.5 1754.01 1364.01 1760.5 1356 1760.5 1347.99 1760.5 1341.5 1754.01 1341.5 1746Z" stroke="#005828" stroke-width="6.875" stroke-miterlimit="8" fill="#EEF9EB" fill-rule="evenodd"/><path d="M1396.5 1746C1396.5 1737.99 1402.99 1731.5 1411 1731.5 1419.01 1731.5 1425.5 1737.99 1425.5 1746 1425.5 1754.01 1419.01 1760.5 1411 1760.5 1402.99 1760.5 1396.5 1754.01 1396.5 1746Z" stroke="#005828" stroke-width="6.875" stroke-miterlimit="8" fill="#EEF9EB" fill-rule="evenodd"/><path d="M1396.5 1792C1396.5 1783.99 1402.99 1777.5 1411 1777.5 1419.01 1777.5 1425.5 1783.99 1425.5 1792 1425.5 1800.01 1419.01 1806.5 1411 1806.5 1402.99 1806.5 1396.5 1800.01 1396.5 1792Z" stroke="#005828" stroke-width="6.875" stroke-miterlimit="8" fill="#EEF9EB" fill-rule="evenodd"/><path d="M1370 1745 1395.54 1785.97" stroke="#005828" stroke-width="2.29167" stroke-miterlimit="8" fill="none" fill-rule="evenodd"/><path d="M0 0 22.8835 0.000360892" stroke="#005828" stroke-width="2.29167" stroke-miterlimit="8" fill="none" fill-rule="evenodd" transform="matrix(-1 0 0 1 1395.88 1789)"/><path d="M1370 1690 1396.73 1790.24" stroke="#005828" stroke-width="2.29167" stroke-miterlimit="8" fill="none" fill-rule="evenodd"/><path d="M1370 1640 1392.58 1786.22" stroke="#005828" stroke-width="2.29167" stroke-miterlimit="8" fill="none" fill-rule="evenodd"/><path d="M0 0 22.8835 0.000360892" stroke="#005828" stroke-width="2.29167" stroke-miterlimit="8" fill="none" fill-rule="evenodd" transform="matrix(-1 0 0 1 1395.88 1745)"/><path d="M1395.41 1744.85 1370 1690" stroke="#005828" stroke-width="2.29167" stroke-miterlimit="8" fill="none" fill-rule="evenodd"/><path d="M1395.32 1745.26 1370 1640" stroke="#005828" stroke-width="2.29167" stroke-miterlimit="8" fill="none" fill-rule="evenodd"/><path d="M0 0 20.726 0.442454" stroke="#005828" stroke-width="2.29167" stroke-miterlimit="8" fill="none" fill-rule="evenodd" transform="matrix(-1 0 0 1 1390.73 1690)"/><path d="M1392.66 1689.97 1370 1640" stroke="#005828" stroke-width="2.29167" stroke-miterlimit="8" fill="none" fill-rule="evenodd"/><path d="M0 0 22.8835 0.000360892" stroke="#005828" stroke-width="2.29167" stroke-miterlimit="8" fill="none" fill-rule="evenodd" transform="matrix(-1 0 0 1 1390.88 1641)"/><path d="M2228.5 1641C2228.5 1632.99 2234.99 1626.5 2243 1626.5 2251.01 1626.5 2257.5 1632.99 2257.5 1641 2257.5 1649.01 2251.01 1655.5 2243 1655.5 2234.99 1655.5 2228.5 1649.01 2228.5 1641Z" stroke="#005828" stroke-width="6.875" stroke-miterlimit="8" fill="#EEF9EB" fill-rule="evenodd"/><path d="M2280.5 1641C2280.5 1632.99 2286.99 1626.5 2295 1626.5 2303.01 1626.5 2309.5 1632.99 2309.5 1641 2309.5 1649.01 2303.01 1655.5 2295 1655.5 2286.99 1655.5 2280.5 1649.01 2280.5 1641Z" stroke="#C00000" stroke-width="6.875" stroke-miterlimit="8" fill="#EEF9EB" fill-rule="evenodd"/><path d="M2228.5 1691C2228.5 1682.99 2234.99 1676.5 2243 1676.5 2251.01 1676.5 2257.5 1682.99 2257.5 1691 2257.5 1699.01 2251.01 1705.5 2243 1705.5 2234.99 1705.5 2228.5 1699.01 2228.5 1691Z" stroke="#005828" stroke-width="6.875" stroke-miterlimit="8" fill="#EEF9EB" fill-rule="evenodd"/><path d="M2280.5 1691C2280.5 1682.99 2286.99 1676.5 2295 1676.5 2303.01 1676.5 2309.5 1682.99 2309.5 1691 2309.5 1699.01 2303.01 1705.5 2295 1705.5 2286.99 1705.5 2280.5 1699.01 2280.5 1691Z" stroke="#C00000" stroke-width="6.875" stroke-miterlimit="8" fill="#EEF9EB" fill-rule="evenodd"/><path d="M2228.5 1790.5C2228.5 1782.77 2234.99 1776.5 2243 1776.5 2251.01 1776.5 2257.5 1782.77 2257.5 1790.5 2257.5 1798.23 2251.01 1804.5 2243 1804.5 2234.99 1804.5 2228.5 1798.23 2228.5 1790.5Z" stroke="#005828" stroke-width="6.875" stroke-miterlimit="8" fill="#EEF9EB" fill-rule="evenodd"/><path d="M2228.5 1746C2228.5 1737.99 2234.99 1731.5 2243 1731.5 2251.01 1731.5 2257.5 1737.99 2257.5 1746 2257.5 1754.01 2251.01 1760.5 2243 1760.5 2234.99 1760.5 2228.5 1754.01 2228.5 1746Z" stroke="#005828" stroke-width="6.875" stroke-miterlimit="8" fill="#EEF9EB" fill-rule="evenodd"/><path d="M2283.5 1746C2283.5 1737.99 2289.99 1731.5 2298 1731.5 2306.01 1731.5 2312.5 1737.99 2312.5 1746 2312.5 1754.01 2306.01 1760.5 2298 1760.5 2289.99 1760.5 2283.5 1754.01 2283.5 1746Z" stroke="#005828" stroke-width="6.875" stroke-miterlimit="8" fill="#EEF9EB" fill-rule="evenodd"/><path d="M2283.5 1792.5C2283.5 1784.77 2289.99 1778.5 2298 1778.5 2306.01 1778.5 2312.5 1784.77 2312.5 1792.5 2312.5 1800.23 2306.01 1806.5 2298 1806.5 2289.99 1806.5 2283.5 1800.23 2283.5 1792.5Z" stroke="#005828" stroke-width="6.875" stroke-miterlimit="8" fill="#EEF9EB" fill-rule="evenodd"/><path d="M2257 1746 2282.54 1786.97" stroke="#005828" stroke-width="2.29167" stroke-miterlimit="8" fill="none" fill-rule="evenodd"/><path d="M0 0 22.8835 0.000360892" stroke="#005828" stroke-width="2.29167" stroke-miterlimit="8" fill="none" fill-rule="evenodd" transform="matrix(-1 0 0 1 2282.88 1790)"/><path d="M2257 1691 2283.73 1791.24" stroke="#005828" stroke-width="2.29167" stroke-miterlimit="8" fill="none" fill-rule="evenodd"/><path d="M2257 1640 2279.58 1786.22" stroke="#005828" stroke-width="2.29167" stroke-miterlimit="8" fill="none" fill-rule="evenodd"/><path d="M0 0 22.8835 0.000360892" stroke="#005828" stroke-width="2.29167" stroke-miterlimit="8" fill="none" fill-rule="evenodd" transform="matrix(-1 0 0 1 2282.88 1746)"/><path d="M2282.41 1745.85 2257 1691" stroke="#005828" stroke-width="2.29167" stroke-miterlimit="8" fill="none" fill-rule="evenodd"/><path d="M2282.32 1745.26 2257 1640" stroke="#005828" stroke-width="2.29167" stroke-miterlimit="8" fill="none" fill-rule="evenodd"/><path d="M2228.5 1304C2228.5 1295.99 2234.99 1289.5 2243 1289.5 2251.01 1289.5 2257.5 1295.99 2257.5 1304 2257.5 1312.01 2251.01 1318.5 2243 1318.5 2234.99 1318.5 2228.5 1312.01 2228.5 1304Z" stroke="#005828" stroke-width="6.875" stroke-miterlimit="8" fill="#EEF9EB" fill-rule="evenodd"/><path d="M2280.5 1304C2280.5 1295.99 2286.99 1289.5 2295 1289.5 2303.01 1289.5 2309.5 1295.99 2309.5 1304 2309.5 1312.01 2303.01 1318.5 2295 1318.5 2286.99 1318.5 2280.5 1312.01 2280.5 1304Z" stroke="#005828" stroke-width="6.875" stroke-miterlimit="8" fill="#83CBEB" fill-rule="evenodd"/><path d="M2228.5 1355C2228.5 1346.99 2234.99 1340.5 2243 1340.5 2251.01 1340.5 2257.5 1346.99 2257.5 1355 2257.5 1363.01 2251.01 1369.5 2243 1369.5 2234.99 1369.5 2228.5 1363.01 2228.5 1355Z" stroke="#005828" stroke-width="6.875" stroke-miterlimit="8" fill="#EEF9EB" fill-rule="evenodd"/><path d="M2280.5 1355C2280.5 1346.99 2286.99 1340.5 2295 1340.5 2303.01 1340.5 2309.5 1346.99 2309.5 1355 2309.5 1363.01 2303.01 1369.5 2295 1369.5 2286.99 1369.5 2280.5 1363.01 2280.5 1355Z" stroke="#005828" stroke-width="6.875" stroke-miterlimit="8" fill="#83CBEB" fill-rule="evenodd"/><path d="M2228.5 1454C2228.5 1445.99 2234.99 1439.5 2243 1439.5 2251.01 1439.5 2257.5 1445.99 2257.5 1454 2257.5 1462.01 2251.01 1468.5 2243 1468.5 2234.99 1468.5 2228.5 1462.01 2228.5 1454Z" stroke="#005828" stroke-width="6.875" stroke-miterlimit="8" fill="#EEF9EB" fill-rule="evenodd"/><path d="M2228.5 1409.5C2228.5 1401.77 2234.99 1395.5 2243 1395.5 2251.01 1395.5 2257.5 1401.77 2257.5 1409.5 2257.5 1417.23 2251.01 1423.5 2243 1423.5 2234.99 1423.5 2228.5 1417.23 2228.5 1409.5Z" stroke="#005828" stroke-width="6.875" stroke-miterlimit="8" fill="#EEF9EB" fill-rule="evenodd"/><path d="M2283.5 1409.5C2283.5 1401.77 2289.99 1395.5 2298 1395.5 2306.01 1395.5 2312.5 1401.77 2312.5 1409.5 2312.5 1417.23 2306.01 1423.5 2298 1423.5 2289.99 1423.5 2283.5 1417.23 2283.5 1409.5Z" stroke="#005828" stroke-width="6.875" stroke-miterlimit="8" fill="#83CBEB" fill-rule="evenodd"/><path d="M2283.5 1456C2283.5 1447.99 2289.99 1441.5 2298 1441.5 2306.01 1441.5 2312.5 1447.99 2312.5 1456 2312.5 1464.01 2306.01 1470.5 2298 1470.5 2289.99 1470.5 2283.5 1464.01 2283.5 1456Z" stroke="#005828" stroke-width="6.875" stroke-miterlimit="8" fill="#83CBEB" fill-rule="evenodd"/><path d="M2257 1409 2282.54 1449.97" stroke="#005828" stroke-width="2.29167" stroke-miterlimit="8" fill="none" fill-rule="evenodd"/><path d="M0 0 22.8835 0.000360892" stroke="#005828" stroke-width="2.29167" stroke-miterlimit="8" fill="none" fill-rule="evenodd" transform="matrix(-1 0 0 1 2282.88 1453)"/><path d="M2257 1354 2283.73 1454.24" stroke="#005828" stroke-width="2.29167" stroke-miterlimit="8" fill="none" fill-rule="evenodd"/><path d="M2257 1304 2279.58 1450.22" stroke="#005828" stroke-width="2.29167" stroke-miterlimit="8" fill="none" fill-rule="evenodd"/><path d="M0 0 22.8835 0.000360892" stroke="#005828" stroke-width="2.29167" stroke-miterlimit="8" fill="none" fill-rule="evenodd" transform="matrix(-1 0 0 1 2282.88 1409)"/><path d="M2282.41 1408.85 2257 1354" stroke="#005828" stroke-width="2.29167" stroke-miterlimit="8" fill="none" fill-rule="evenodd"/><path d="M2282.32 1409.26 2257 1304" stroke="#005828" stroke-width="2.29167" stroke-miterlimit="8" fill="none" fill-rule="evenodd"/><path d="M0 0 20.726 0.442454" stroke="#005828" stroke-width="2.29167" stroke-miterlimit="8" fill="none" fill-rule="evenodd" transform="matrix(-1 0 0 1 2277.73 1354)"/><path d="M2279.66 1353.97 2257 1304" stroke="#005828" stroke-width="2.29167" stroke-miterlimit="8" fill="none" fill-rule="evenodd"/><path d="M0 0 22.8835 0.000360892" stroke="#005828" stroke-width="2.29167" stroke-miterlimit="8" fill="none" fill-rule="evenodd" transform="matrix(-1 0 0 1 2277.88 1305)"/><path d="M1362.5 1472C1362.5 1463.99 1368.99 1457.5 1377 1457.5 1385.01 1457.5 1391.5 1463.99 1391.5 1472 1391.5 1480.01 1385.01 1486.5 1377 1486.5 1368.99 1486.5 1362.5 1480.01 1362.5 1472Z" stroke="#005828" stroke-width="6.875" stroke-miterlimit="8" fill="#EEF9EB" fill-rule="evenodd"/><path d="M1307.5 1423C1307.5 1414.99 1313.99 1408.5 1322 1408.5 1330.01 1408.5 1336.5 1414.99 1336.5 1423 1336.5 1431.01 1330.01 1437.5 1322 1437.5 1313.99 1437.5 1307.5 1431.01 1307.5 1423Z" stroke="#005828" stroke-width="6.875" stroke-miterlimit="8" fill="#EEF9EB" fill-rule="evenodd"/><path d="M1362.5 1422C1362.5 1413.99 1368.99 1407.5 1377 1407.5 1385.01 1407.5 1391.5 1413.99 1391.5 1422 1391.5 1430.01 1385.01 1436.5 1377 1436.5 1368.99 1436.5 1362.5 1430.01 1362.5 1422Z" stroke="#005828" stroke-width="6.875" stroke-miterlimit="8" fill="#EEF9EB" fill-rule="evenodd"/><path d="M1418.5 1423C1418.5 1414.99 1424.99 1408.5 1433 1408.5 1441.01 1408.5 1447.5 1414.99 1447.5 1423 1447.5 1431.01 1441.01 1437.5 1433 1437.5 1424.99 1437.5 1418.5 1431.01 1418.5 1423Z" stroke="#005828" stroke-width="6.875" stroke-miterlimit="8" fill="#EEF9EB" fill-rule="evenodd"/><path d="M1362.5 1375C1362.5 1366.99 1368.99 1360.5 1377 1360.5 1385.01 1360.5 1391.5 1366.99 1391.5 1375 1391.5 1383.01 1385.01 1389.5 1377 1389.5 1368.99 1389.5 1362.5 1383.01 1362.5 1375Z" stroke="#005828" stroke-width="6.875" stroke-miterlimit="8" fill="#EEF9EB" fill-rule="evenodd"/><path d="M1376.24 1457.19 1322 1437" stroke="#005828" stroke-width="2.29167" stroke-miterlimit="8" fill="none" fill-rule="evenodd"/><path d="M0 0 0.000360892 20.9516" stroke="#005828" stroke-width="2.29167" stroke-miterlimit="8" fill="none" fill-rule="evenodd" transform="matrix(1 0 0 -1 1376 1456.95)"/><path d="M0 0 56.5284 20.1876" stroke="#005828" stroke-width="2.29167" stroke-miterlimit="8" fill="none" fill-rule="evenodd" transform="matrix(1 0 0 -1 1376 1457.19)"/><path d="M0 0 54.236 19.3301" stroke="#005828" stroke-width="2.29167" stroke-miterlimit="8" fill="none" fill-rule="evenodd" transform="matrix(-1 0 0 1 1376.24 1389)"/><path d="M1376 1389 1376 1407.57" stroke="#005828" stroke-width="2.29167" stroke-miterlimit="8" fill="none" fill-rule="evenodd"/><path d="M1376 1389 1432.53 1408.33" stroke="#005828" stroke-width="2.29167" stroke-miterlimit="8" fill="none" fill-rule="evenodd"/><path d="M2260.5 1151.5C2260.5 1143.77 2266.99 1137.5 2275 1137.5 2283.01 1137.5 2289.5 1143.77 2289.5 1151.5 2289.5 1159.23 2283.01 1165.5 2275 1165.5 2266.99 1165.5 2260.5 1159.23 2260.5 1151.5Z" stroke="#005828" stroke-width="6.875" stroke-miterlimit="8" fill="#EEF9EB" fill-rule="evenodd"/><path d="M2205.5 1103C2205.5 1094.99 2211.99 1088.5 2220 1088.5 2228.01 1088.5 2234.5 1094.99 2234.5 1103 2234.5 1111.01 2228.01 1117.5 2220 1117.5 2211.99 1117.5 2205.5 1111.01 2205.5 1103Z" stroke="#005828" stroke-width="6.875" stroke-miterlimit="8" fill="#EEF9EB" fill-rule="evenodd"/><path d="M2260.5 1102C2260.5 1093.99 2266.99 1087.5 2275 1087.5 2283.01 1087.5 2289.5 1093.99 2289.5 1102 2289.5 1110.01 2283.01 1116.5 2275 1116.5 2266.99 1116.5 2260.5 1110.01 2260.5 1102Z" stroke="#005828" stroke-width="6.875" stroke-miterlimit="8" fill="#EEF9EB" fill-rule="evenodd"/><path d="M2316.5 1103C2316.5 1094.99 2322.99 1088.5 2331 1088.5 2339.01 1088.5 2345.5 1094.99 2345.5 1103 2345.5 1111.01 2339.01 1117.5 2331 1117.5 2322.99 1117.5 2316.5 1111.01 2316.5 1103Z" stroke="#005828" stroke-width="6.875" stroke-miterlimit="8" fill="#EEF9EB" fill-rule="evenodd"/><path d="M2260.5 1055C2260.5 1046.99 2266.99 1040.5 2275 1040.5 2283.01 1040.5 2289.5 1046.99 2289.5 1055 2289.5 1063.01 2283.01 1069.5 2275 1069.5 2266.99 1069.5 2260.5 1063.01 2260.5 1055Z" stroke="#005828" stroke-width="6.875" stroke-miterlimit="8" fill="#EEF9EB" fill-rule="evenodd"/><path d="M2274.24 1137.19 2220 1117" stroke="#005828" stroke-width="2.29167" stroke-miterlimit="8" fill="none" fill-rule="evenodd"/><path d="M0 0 0.000360892 20.9516" stroke="#005828" stroke-width="2.29167" stroke-miterlimit="8" fill="none" fill-rule="evenodd" transform="matrix(1 0 0 -1 2274 1136.95)"/><path d="M0 0 56.5284 20.1876" stroke="#005828" stroke-width="2.29167" stroke-miterlimit="8" fill="none" fill-rule="evenodd" transform="matrix(1 0 0 -1 2274 1137.19)"/><path d="M0 0 54.236 19.3301" stroke="#005828" stroke-width="2.29167" stroke-miterlimit="8" fill="none" fill-rule="evenodd" transform="matrix(-1 0 0 1 2274.24 1069)"/><path d="M2274 1069 2274 1087.57" stroke="#005828" stroke-width="2.29167" stroke-miterlimit="8" fill="none" fill-rule="evenodd"/><path d="M2274 1069 2330.53 1088.33" stroke="#005828" stroke-width="2.29167" stroke-miterlimit="8" fill="none" fill-rule="evenodd"/><path d="M2156.06 1918.57 2156.06 1710.06 2186.64 1710.06 2186.64 1716.94 2159.5 1716.94 2162.94 1713.5 2162.94 1918.57ZM2182.06 1699.75 2209.56 1713.5 2182.06 1727.25Z" fill="#156082"/><path d="M1260.06 1916.57 1260.06 1708.06 1290.64 1708.06 1290.64 1714.94 1263.5 1714.94 1266.94 1711.5 1266.94 1916.57ZM1286.06 1697.75 1313.56 1711.5 1286.06 1725.25Z" fill="#156082"/></g></svg>